<?xml version="1.0" encoding="utf-8"?>
<!-- Generator: Adobe Illustrator 23.0.1, SVG Export Plug-In . SVG Version: 6.00 Build 0)  -->
<svg version="1.1" id="Layer_1" xmlns="http://www.w3.org/2000/svg" xmlns:xlink="http://www.w3.org/1999/xlink" x="0px" y="0px"
	 viewBox="0 0 972 972" style="enable-background:new 0 0 972 972;" xml:space="preserve">
<style type="text/css">
	.st0{fill:#98F03C;}
	.st1{fill:#3F7606;}
	.st2{fill:#F7F9FA;}
	.st3{display:none;fill:#5FDCD1;}
	.st4{display:none;fill:#F7F9FA;}
</style>
<title>education</title>
<g>
	<path class="st0" d="M214.2,883.2c-22,29.4-49.3,44.1-87.8,39.1c-26.9-3.5-54.7-1.4-82-0.4c-16.6,0.5-24.7-3.3-24.7-22.4
		c0.5-230.6,0.2-461.3,0.4-691.9c0-30.1,27.5-36.6,46-50.6l12.8,1.7l-32,34c56.6-0.2,112.1,13.9,152.7-35
		c21,1.9,13.5,18.3,13.5,29.1C213.8,418.8,214.1,651,214.2,883.2z"/>
	<path class="st0" d="M471.1,884.9c-23.2,30.5-53.5,42-91.6,37.1c-17.3-2.2-35.1-0.4-52.6-0.4c-50.2,0-50.2,0-50.3-48.8
		c0-10.7-0.3-21.5-0.4-32.2c0.1-200.2,1.7-400.5-0.7-600.6c-0.5-41.2,14.5-65.8,47.4-84.2c5.3,2.2,16,1.2,6,11.6
		c-7,7.3-17.7,11.6-20.7,25.9c53.8-1.5,109.4,13.5,150.6-35.9c19.4,4.8,11.3,20.6,11.3,31.5C470.8,420.9,471.1,652.9,471.1,884.9z"
		/>
	<path class="st0" d="M865.2,858.2c-9.3,29.6-25.6,51-58.6,57.7c-31.6,6.2-62.8,14.4-93.4,24.6c-21.4,7.3-27.4-1.1-32.2-19.3
		c-26.6-100.9-53.8-201.6-80.7-302.4c-1.5-5.7-1.7-11.7-7.1-15.4c-21.2-106.3-51.7-210.3-81.4-314.4c-11.6-40.4-2.1-69.1,26.2-95.7
		l13.7,0.8c-6.2,13-18.4,22.8-21.7,41.9c53-12.9,108.6-14.4,134.7-72.9c12-1.9,16.6,3.8,19.2,15.3c5.6,24.6,13.2,48.8,19.7,73.1
		C757.4,453.7,811.3,655.9,865.2,858.2z"/>
	<path class="st1" d="M865.2,858.2C811.3,656,757.4,453.7,703.5,251.5c-6.5-24.4-14.1-48.6-19.7-73.1c-2.6-11.5-7.2-17.2-19.2-15.3
		l71.3-116.6c30.6-25,30.7-25,40.7,12.6C834.4,275.4,892.2,491.8,950,708.2c4.1,15.4,3.3,28-6.7,41
		C916,784.5,896.2,825.3,865.2,858.2z M738.2,324.4c17.3-43.6,71.5-71.9,53.8-129C773.8,238.6,720.7,267.1,738.2,324.4z
		 M760.2,186.7c-12.7,27.8-45.5,46.9-36.4,83C738,242.6,768.1,222.7,760.2,186.7z"/>
	<path class="st1" d="M538,193.2c-28.2,26.6-37.7,55.2-26.2,95.7c29.8,104,60.3,208,81.4,314.4c-0.3,51.6-1,103.2-0.5,154.8
		c0.1,14.9-4.2,25.8-15.6,35.5c-35.7,30.1-70.7,60.8-106,91.3c-0.2-232-0.5-464-0.9-696c0-10.9,8-26.7-11.3-31.5
		c26.1-36.6,69.3-56.1,94.2-94c4.5-1.9,9-3.8,13.5-5.7c20.9-8.6,29.2-2.3,25.3,20.5c-1.5,8.5-0.6,17.5-0.8,26.2
		C573.3,133.9,555.6,163.5,538,193.2z"/>
	<path class="st1" d="M322.9,155.7C290,174.2,275,198.8,275.5,240c2.3,200.2,0.8,400.4,0.7,600.6l-52.5,42.5
		c-0.3-232.2-0.6-464.3-1.1-696.5c0-10.8,7.5-27.2-13.5-29.1c27.9-34.2,67.3-57.1,97.9-96c-27.1,0-48.7,1.6-69.9-0.4
		c-27.4-2.5-48.6,6.4-68.1,25.4c-25.8,25.1-53.6,48.1-80.6,72.1l-12.8-1.7c31.7-37.2,72.1-64.7,107.6-97.7c5-4.7,11.9-7.1,19.1-4.8
		c38.8,12.4,78.1,8.1,117.2,2.5c16.6-2.4,23.5,1.9,22.9,19.3c-0.7,19.4,0.4,38.9,0.7,58.3L322.9,155.7z"/>
	<path class="st2" d="M322.9,155.7l20-21.2c26-21.8,51.9-43.7,77.9-65.6c11.8-10,20.1-15,39.7-9.2c28.7,8.5,61.5,3.1,92.5,3.6
		c-24.8,37.9-68,57.4-94.1,94c-41.2,49.5-96.8,34.4-150.6,35.9c3-14.3,13.8-18.6,20.7-25.9C339,156.9,328.2,157.9,322.9,155.7z"/>
	<path class="st2" d="M735.9,46.3L664.6,163c-26.1,58.5-81.7,60-134.7,72.9c3.3-19.1,15.4-28.9,21.7-41.9
		c29.3-40.9,51.5-86.7,85.1-124.6L735.9,46.3z"/>
	<path class="st3" d="M636.8,69.4c-33.6,37.9-55.8,83.7-85.1,124.6l-13.7-0.8c17.7-29.6,35.3-59.3,53-88.9
		c9.7-6.8,14.9-17,21.2-26.5C618.2,68.7,624.4,60,636.8,69.4z"/>
	<path class="st2" d="M88.3,158.6c27-24,54.8-47,80.6-72.1c19.5-19,40.7-27.9,68.1-25.4c21.2,2,42.7,0.4,69.9,0.4
		c-30.6,39-70,61.9-97.9,96c-40.6,48.9-96.2,34.8-152.7,35L88.3,158.6z"/>
	<path class="st2" d="M738.2,324.4c-17.5-57.3,35.6-85.8,53.8-129C809.8,252.6,755.6,280.8,738.2,324.4z"/>
	<path class="st4" d="M760.2,186.7c7.8,36-22.3,55.9-36.4,83C714.7,233.6,747.6,214.5,760.2,186.7z"/>
</g>
</svg>
