<svg id="Layer_1" data-name="Layer 1" xmlns="http://www.w3.org/2000/svg" viewBox="0 0 972 972"><defs><style>.cls-1{fill:#fec950;}.cls-2{fill:#fd767c;}.cls-3{fill:#fe757c;}.cls-4{fill:#5fdcd1;}.cls-5{fill:#ebeeed;}.cls-6{fill:#f7f9fa;}</style></defs><title>education</title><path class="cls-1" d="M943,1026c-267.54-.74-485-219.28-484.54-486.91C458.92,270.7,678.47,52.71,947,54c267.48,1.29,484.48,220.33,483.46,488C1429.44,809.49,1210.63,1026.74,943,1026Zm141.57-807.16c-9.11-6.94-13.75-.52-18.18,6.17-4.64,7-8.5,14.61-15.63,19.62.15-6.47-.47-13.07.61-19.38,2.88-16.79-3.26-21.48-18.7-15.12-3.35,1.38-6.67,2.81-10,4.22-22.91-.39-47.11,3.57-68.29-2.69-14.49-4.27-20.62-.57-29.3,6.79-19.1,16.22-38.32,32.31-57.49,48.45-.22-14.37-1-28.76-.48-43.09.49-12.88-4.63-16-16.88-14.25-28.86,4.17-57.87,7.32-86.54-1.85-5.26-1.68-10.38.11-14.08,3.56-26.18,24.38-56.05,44.71-79.45,72.15-13.6,10.4-33.92,15.14-33.94,37.38-.14,170.3.06,340.6-.32,510.9,0,14.12,6,17,18.21,16.57,20.18-.66,40.67-2.25,60.55.32,28.45,3.69,48.62-7.16,64.84-28.89l38.8-31.39c.1,7.92.29,15.85.3,23.77,0,36,0,36,37.11,36,13,0,26.11-1.36,38.86.28,28.1,3.63,50.51-4.9,67.64-27.4,26.07-22.53,52-45.25,78.3-67.46,8.44-7.12,11.64-15.16,11.53-26.2-.36-38.11.2-76.23.4-114.34,4,2.8,4.1,7.21,5.22,11.41,19.82,74.45,40,148.81,59.58,223.31,3.54,13.44,8,19.67,23.77,14.28A551.59,551.59,0,0,1,1210,843.85c24.36-4.93,36.38-20.74,43.28-42.57,22.87-24.27,37.5-54.42,57.67-80.59,7.35-9.54,8-18.88,4.93-30.24q-64.29-239.6-128-479.35c-7.41-27.79-7.5-27.77-30.07-9.3Z" transform="translate(-458.46 -54)"/><path class="cls-2" d="M779.51,819.72c-16.23,21.71-36.4,32.56-64.85,28.87-19.88-2.57-40.37-1-60.55-.32-12.25.4-18.24-2.45-18.21-16.57.38-170.3.18-340.6.32-510.9,0-22.24,20.34-27,33.95-37.38l9.44,1.27L656,309.78c41.78-.14,82.74,10.27,112.76-25.86,15.52,1.41,10,13.5,10,21.49Q779.44,562.55,779.51,819.72Z" transform="translate(-458.46 -54)"/><path class="cls-3" d="M962.21,821c-17.13,22.51-39.54,31-67.64,27.41-12.75-1.64-25.89-.28-38.86-.28-37.08,0-37.06,0-37.11-36,0-7.92-.2-15.85-.3-23.77.11-147.85,1.23-295.7-.49-443.52-.36-30.39,10.68-48.58,35-62.21,3.89,1.61,11.85.87,4.45,8.6-5.15,5.38-13.07,8.53-15.32,19.12,39.73-1.11,80.78,10,111.21-26.54,14.3,3.51,8.36,15.19,8.38,23.25Q962.25,564,962.21,821Z" transform="translate(-458.46 -54)"/><path class="cls-2" d="M1253.23,801.28c-6.9,21.83-18.92,37.64-43.28,42.57A551.59,551.59,0,0,0,1141,862c-15.8,5.39-20.23-.84-23.77-14.28-19.62-74.5-39.76-148.86-59.58-223.31-1.12-4.2-1.26-8.61-5.22-11.4-15.63-78.5-38.17-155.29-60.13-232.12-8.53-29.85-1.52-51,19.31-70.63l10.08.62c-4.61,9.57-13.56,16.83-16,30.91,39.13-9.52,80.18-10.64,99.43-53.84,8.89-1.42,12.23,2.79,14.17,11.31,4.13,18.17,9.73,36,14.54,54Q1193.59,577.26,1253.23,801.28Z" transform="translate(-458.46 -54)"/><path class="cls-4" d="M1253.23,801.28q-59.67-224-119.37-448c-4.81-18-10.41-35.86-14.54-54-1.94-8.52-5.28-12.73-14.17-11.31l52.63-86.12c22.57-18.47,22.66-18.49,30.07,9.3q63.95,239.68,128,479.35c3.05,11.36,2.42,20.7-4.93,30.24C1290.73,746.86,1276.1,777,1253.23,801.28Zm-93.74-394.14c12.81-32.21,52.81-53.06,39.74-95.23C1185.77,343.79,1146.57,364.8,1159.49,407.14Zm16.25-101.69c-9.36,20.53-33.61,34.63-26.85,61.32C1159.28,346.74,1181.53,332,1175.74,305.45Z" transform="translate(-458.46 -54)"/><path class="cls-5" d="M1011.62,310.23c-20.83,19.62-27.84,40.78-19.31,70.63,22,76.83,44.5,153.62,60.13,232.12-.2,38.1-.76,76.22-.4,114.33.11,11-3.09,19.08-11.53,26.2-26.33,22.21-52.23,44.93-78.3,67.45Q962,564,961.53,307c0-8.06,5.92-19.74-8.38-23.25,19.3-27,51.19-41.43,69.53-69.41,3.32-1.41,6.64-2.84,10-4.22,15.44-6.36,21.58-1.67,18.7,15.12-1.08,6.31-.46,12.91-.62,19.34Q1031.18,277.37,1011.62,310.23Z" transform="translate(-458.46 -54)"/><path class="cls-4" d="M852.81,282.58c-24.32,13.63-35.36,31.82-35,62.21,1.72,147.82.6,295.67.49,443.52l-38.79,31.4q-.28-257.15-.78-514.3c0-8,5.54-20.08-10-21.49C789.35,258.7,818.42,241.77,841,213c-20,0-35.93,1.15-51.58-.29-20.26-1.86-35.88,4.76-50.31,18.76C720.07,250,699.53,267,679.61,284.69l-9.44-1.27c23.39-27.44,53.26-47.77,79.44-72.15,3.7-3.45,8.82-5.24,14.08-3.56,28.67,9.17,57.68,6,86.54,1.85,12.25-1.77,17.37,1.37,16.88,14.25-.54,14.33.26,28.72.48,43.08Z" transform="translate(-458.46 -54)"/><path class="cls-6" d="M852.81,282.58l14.78-15.69q28.75-24.19,57.49-48.44c8.68-7.36,14.81-11.06,29.3-6.79,21.18,6.26,45.38,2.3,68.29,2.69-18.33,28-50.22,42.39-69.52,69.41-30.43,36.52-71.48,25.43-111.21,26.54,2.25-10.59,10.17-13.74,15.32-19.12C864.66,283.45,856.7,284.19,852.81,282.58Z" transform="translate(-458.46 -54)"/><path class="cls-6" d="M1157.78,201.8l-52.63,86.12c-19.25,43.2-60.3,44.32-99.43,53.84,2.42-14.08,11.37-21.34,16-30.91,21.65-30.2,38.06-64,62.87-92Z" transform="translate(-458.46 -54)"/><path class="cls-4" d="M1084.57,218.84c-24.81,28-41.22,61.81-62.87,92l-10.08-.62q19.56-32.84,39.13-65.64c7.14-5,11-12.58,15.64-19.58C1070.82,218.32,1075.46,211.9,1084.57,218.84Z" transform="translate(-458.46 -54)"/><path class="cls-6" d="M679.61,284.69C699.53,267,720.07,250,739.15,231.47c14.43-14,30.05-20.62,50.31-18.76,15.65,1.44,31.54.29,51.58.29-22.62,28.77-51.69,45.7-72.28,70.92-30,36.13-71,25.72-112.77,25.86Z" transform="translate(-458.46 -54)"/><path class="cls-6" d="M1159.49,407.14c-12.92-42.34,26.28-63.35,39.74-95.23C1212.3,354.08,1172.3,374.93,1159.49,407.14Z" transform="translate(-458.46 -54)"/><path class="cls-6" d="M1175.74,305.45c5.79,26.55-16.46,41.29-26.85,61.32C1142.13,340.08,1166.38,326,1175.74,305.45Z" transform="translate(-458.46 -54)"/></svg>