<?xml version="1.0" encoding="utf-8"?>
<!-- Generator: Adobe Illustrator 23.0.1, SVG Export Plug-In . SVG Version: 6.00 Build 0)  -->
<svg version="1.1" id="Layer_1" xmlns="http://www.w3.org/2000/svg" xmlns:xlink="http://www.w3.org/1999/xlink" x="0px" y="0px"
	 viewBox="0 0 500 500" style="enable-background:new 0 0 500 500;" xml:space="preserve">
<style type="text/css">
	.st0{fill:#FFFFFF;}
	.st1{fill:#FF7514;}
	.st2{fill:#FF1900;}
	.st3{fill:#002D13;}
	.st4{fill:#5A7302;}
	.st5{fill:#00A99D;}
	.st6{fill:#3F7606;}
	.st7{fill:#F7F9FA;}
	.st8{display:none;fill:#5FDCD1;}
	.st9{display:none;fill:#F7F9FA;}
	.st10{fill:#FBAE17;}
	.st11{fill:none;stroke:#FBAE17;stroke-width:5;stroke-miterlimit:10;}
	.st12{fill:#8C0228;}
	.st13{fill:#FDFDFD;}
	.st14{fill:#E77800;}
</style>
<g>
	<g>
		<path class="st3" d="M242.09,160.79c0.87-8.86,1.16-16.86,2.41-24.67c6.55-38.83,38.73-68.41,76.12-70.44
			c39.51-2.12,74,22.26,85.27,60.41c11.18,38.06-4.34,79.4-37.58,98.67c-3.37,1.93-7.71,2.22-13.2,3.76c0,0.77-0.39,4.24-0.39,7.61
			c0,44.13-0.29,88.26,0.19,132.39c0.1,5.59,2.7,12.43,6.46,16.48c19.95,21.49,20.23,53.38,0,73.52
			c-19.46,19.37-50.97,19.27-70.34-0.1c-20.33-20.33-19.85-52.03,0.19-73.52c3.57-3.76,6.17-10.12,6.26-15.32
			c0.48-47.7,0.1-95.49,0.39-143.18c0.1-15.9,8.67-26.59,22.55-29.68c13.3-2.99,25.63,3.85,32.38,18.11
			c0.67,1.45,1.16,2.89,2.22,5.68c23.51-10.79,37.77-28.81,43.07-53.57c9.44-43.84-20.43-85.95-63.88-91.34
			c-41.72-5.11-79.59,28.71-81.9,72.75c-0.39,8.48,1.83,13.2,10.6,15.32c10.21,2.6,19.95,6.94,30.26,10.6
			c-0.58,10.5-5.68,16.09-14.26,19.08c-9.06,3.08-14.55,8.09-7.71,20.81c-6.55,0.77-11.56,1.93-16.67,1.93
			c-10.89-0.1-19.08,4.63-24.38,13.97c-4.14,7.23-4.05,14.94,2.6,20.81c6.55,5.68,13.2,3.47,19.17-1.64
			c3.28-2.89,6.26-6.17,9.44-9.06c6.07-5.59,12.82-10.6,21.1-5.59c8,4.91,13.68,11.95,10.5,23.7c-28.71-13.78-50.1,0.67-70.05,18.98
			c-13.88,12.82-15.9,29.29-3.85,43.94c7.32,8.96,17.83,15.32,27.46,21.87c2.31,1.54,7.13-0.19,10.6-1.25
			c2.51-0.67,5.78-4.34,6.94-3.66c5.01,3.18,11.18,6.46,13.59,11.37c3.66,7.52,9.15,19.46,6.07,24.28
			c-25.44,38.64-24.47,65.62,6.26,98.57c-39.22,22.55-110.23,20.62-161.3-20.91c-53.19-43.46-73.9-115.92-51.45-182.02
			C95.53,215.52,150.84,156.07,242.09,160.79z M247.96,174.48c-4.24-0.67-7.23-1.35-10.21-1.64
			c-73.71-7.03-145.4,51.45-156.29,127.29c-1.35,9.35-2.7,18.11,5.78,25.15c2.12,1.73,2.7,5.59,3.76,8.58
			c4.63,13.01,8.09,26.69,13.97,39.02c6.74,14.26,13.78,27.85,11.76,44.42c-0.29,2.7,0.96,6.74,2.89,8.48
			c12.91,11.37,26.11,22.26,38.73,32.86c0.77-15.03,0.58-28.04,2.51-40.66c0.58-4.05,6.36-9.15,10.7-10.21
			c8.77-2.31,10.98-6.36,8.19-14.65c-2.6-7.61-5.59-15.03,1.73-22.35c1.45-1.45,0.58-7.8-1.25-9.44
			c-5.49-4.82-11.56-10.7-18.11-11.85c-11.37-2.12-13.01-6.84-10.5-17.15c2.7-11.37-0.96-14.65-12.33-13.97
			c-5.4,0.39-10.89,0.77-16.28,0.29c-8.67-0.77-17.34-2.12-27.08-3.37c-0.58-8.29-1.25-18.21-1.73-24.38
			c6.74-8.38,13.3-13.49,15.71-20.23c2.99-8.48,6.94-13.97,15.42-16.19c8.48-2.22,14.16-6.65,13.78-16.67
			c-0.1-1.83,1.54-3.76,2.89-6.74c1.93,2.7,2.79,4.72,4.24,5.78c3.08,2.31,6.55,4.14,9.83,6.26c1.93-4.34,4.63-8.58,5.59-13.2
			c0.58-2.79-1.25-6.17-2.31-9.15c-1.93-5.59-2.99-9.92,3.66-14.07c3.08-1.93,2.89-9.15,4.24-13.97c-1.06-0.67-2.12-1.25-3.18-1.93
			c5.3-0.58,10.6-1.16,15.99-1.73c2.22,12.24,7.8,16.09,18.6,10.89c4.14-1.93,9.25-3.18,13.68-2.7
			C229.95,199.14,238.33,187.29,247.96,174.48z M345.57,239.42c-0.39-7.32,0.1-13.88-1.25-19.95c-2.22-9.25-9.06-14.16-18.31-13.88
			c-8.96,0.29-16,4.63-18.02,14.36c-0.87,4.24-0.96,8.77-0.96,13.1c0.1,46.93,0.29,93.85,0.67,140.78
			c0.1,6.94-1.64,11.47-7.23,16.19c-19.08,15.9-20.33,43.07-3.76,60.7c16.19,17.25,42.78,17.34,59.07,0.19
			c16.67-17.54,15.51-44.9-3.47-60.61c-5.97-5.01-7.52-10.02-7.42-17.34c0.39-28.91,0.39-57.72,0.39-86.62
			c0-4.24-0.39-8.48-0.58-12.53c-5.88-0.67-10.41-1.25-14.94-1.73c-0.19-1.25-0.48-2.41-0.67-3.66c5.11-1.45,10.21-2.79,15.8-4.34
			c0-4.91,0-10.02,0-14.55c-5.59-1.54-10.5-2.79-15.51-4.14c0.29-1.35,0.48-2.7,0.77-4.05
			C334.59,240.77,339.12,240.19,345.57,239.42z"/>
		<path class="st3" d="M367.64,243.37c23.41,43.84,27.08,89.32,10.89,136.82c-15.03-4.34-15.32-4.91-9.44-18.6
			c4.05-9.54,4.63-18.31,0.87-28.81c-2.79-7.8-2.02-18.69,1.06-26.59c6.65-16.77,4.34-31.99-2.31-47.6
			c-1.93-4.63-3.08-9.54-4.53-14.26C365.32,244.04,366.48,243.75,367.64,243.37z"/>
		<path class="st10" d="M322.74,55.48c0-12.24-0.1-24.09,0.1-35.94c0-1.45,1.73-3.18,3.08-3.95c0.67-0.39,3.57,1.25,3.47,1.83
			c-0.39,12.53-0.96,25.05-1.64,37.58C327.84,55.19,326.4,55.28,322.74,55.48z"/>
		<path class="st10" d="M438.75,155.88c-4.24-2.12-8.38-4.34-12.62-6.46c4.43-1.16,8.96-3.47,13.39-3.18
			c5.01,0.29,9.83,2.79,14.74,4.24C449.44,152.12,444.72,153.76,438.75,155.88z"/>
		<path class="st10" d="M213.37,143.93c4.43,2.12,8.67,4.24,13.01,6.36c-4.43,1.16-8.96,3.47-13.3,3.28
			c-5.01-0.19-9.92-2.7-14.84-4.14C202.87,147.69,207.59,146.05,213.37,143.93z"/>
		<path class="st10" d="M236.5,50.27c7.32,8.48,13.3,15.13,18.89,22.16c0.96,1.25,0.58,3.95,0.19,5.88
			c-0.1,0.48-3.18,1.16-3.85,0.58c-6.46-6.36-12.82-12.82-18.79-19.56C232.35,58.66,234.38,55.67,236.5,50.27z"/>
		<path class="st10" d="M399.24,80.34c-4.34-7.42-3.28-8.96,16.48-26.11C421.5,60.1,421.21,60.68,399.24,80.34z"/>
		<path class="st10" d="M417.16,240.57c-3.95-0.87-7.8-0.58-9.06-2.31c-4.05-5.49-13.97-8-10.89-19.08
			C404.06,226.41,409.74,232.58,417.16,240.57z"/>
		<path class="st3" d="M334.49,342.81c0,8,0.29,15.99-0.1,23.99c-0.58,12.82-0.48,23.22,13.2,31.8c15.51,9.73,14.26,34.4,0.67,47.41
			c-13.68,13.1-35.27,11.56-47.02-3.37c-11.95-15.13-8.77-38.45,8-47.98c7.61-4.34,9.15-8.96,9.06-16.77
			c-0.39-24.38-0.1-48.76-0.1-73.23c0-6.07-0.39-13.1,8-13.2c8.29-0.1,8.38,6.74,8.38,13.01
			C334.49,317.18,334.49,329.99,334.49,342.81z M321.68,400.81c-1.64-1.45-3.18-2.99-4.82-4.43c-5.49,6.07-11.08,11.95-16.28,18.21
			c-0.87,1.06-0.48,3.76,0.19,5.2c0.48,0.96,3.57,1.83,4.05,1.35C310.59,414.5,316.09,407.66,321.68,400.81z"/>
	</g>
</g>
<path class="st11" d="M285.47,158.27c1.64-16.67,14.74-27.46,26.31-26.31c7.9,0.77,9.92,13.59,17.92,14.36
	c7.8,0.77,15.32-10.12,20.33-19.17"/>
<path class="st11" d="M297.1,193.12c1.64-16.67,14.74-27.46,26.31-26.31c7.9,0.77,9.92,13.59,17.92,14.36
	c7.8,0.77,15.32-10.12,20.33-19.17"/>
</svg>
