<?xml version="1.0" encoding="utf-8"?>
<!-- Generator: Adobe Illustrator 23.0.1, SVG Export Plug-In . SVG Version: 6.00 Build 0)  -->
<svg version="1.1" id="Layer_1" xmlns="http://www.w3.org/2000/svg" xmlns:xlink="http://www.w3.org/1999/xlink" x="0px" y="0px"
	 viewBox="0 0 500 500" style="enable-background:new 0 0 500 500;" xml:space="preserve">
<style type="text/css">
	.st0{fill:none;stroke:#008600;stroke-width:105;stroke-miterlimit:10;}
	.st1{fill:#008600;}
	.st2{fill:none;stroke:#008600;stroke-width:5;stroke-miterlimit:10;}
</style>
<path class="st0" d="M250,5.5"/>
<path class="st0" d="M250,494.5"/>
<g>
	<g>
		<path class="st1" d="M230.1,156.2c0.9-9.2,1.2-17.5,2.5-25.6c6.8-40.3,40.2-71,79-73.1c41-2.2,76.8,23.1,88.5,62.7
			c11.6,39.5-4.5,82.4-39,102.4c-3.5,2-8,2.3-13.7,3.9c0,0.8-0.4,4.4-0.4,7.9c0,45.8-0.3,91.6,0.2,137.4c0.1,5.8,2.8,12.9,6.7,17.1
			c20.7,22.3,21,55.4,0,76.3c-20.2,20.1-52.9,20-73-0.1c-21.1-21.1-20.6-54,0.2-76.3c3.7-3.9,6.4-10.5,6.5-15.9
			c0.5-49.5,0.1-99.1,0.4-148.6c0.1-16.5,9-27.6,23.4-30.8c13.8-3.1,26.6,4,33.6,18.8c0.7,1.5,1.2,3,2.3,5.9
			c24.4-11.2,39.2-29.9,44.7-55.6c9.8-45.5-21.2-89.2-66.3-94.8c-43.3-5.3-82.6,29.8-85,75.5c-0.4,8.8,1.9,13.7,11,15.9
			c10.6,2.7,20.7,7.2,31.4,11c-0.6,10.9-5.9,16.7-14.8,19.8c-9.4,3.2-15.1,8.4-8,21.6c-6.8,0.8-12,2-17.3,2
			c-11.3-0.1-19.8,4.8-25.3,14.5c-4.3,7.5-4.2,15.5,2.7,21.6c6.8,5.9,13.7,3.6,19.9-1.7c3.4-3,6.5-6.4,9.8-9.4
			c6.3-5.8,13.3-11,21.9-5.8c8.3,5.1,14.2,12.4,10.9,24.6c-29.8-14.3-52,0.7-72.7,19.7c-14.4,13.3-16.5,30.4-4,45.6
			c7.6,9.3,18.5,15.9,28.5,22.7c2.4,1.6,7.4-0.2,11-1.3c2.6-0.7,6-4.5,7.2-3.8c5.2,3.3,11.6,6.7,14.1,11.8
			c3.8,7.8,9.5,20.2,6.3,25.2c-26.4,40.1-25.4,68.1,6.5,102.3C239.1,503,165.4,501,112.4,457.9C57.2,412.8,35.7,337.6,59,269
			C78,213,135.4,151.3,230.1,156.2z M236.2,170.4c-4.4-0.7-7.5-1.4-10.6-1.7c-76.5-7.3-150.9,53.4-162.2,132.1
			c-1.4,9.7-2.8,18.8,6,26.1c2.2,1.8,2.8,5.8,3.9,8.9c4.8,13.5,8.4,27.7,14.5,40.5c7,14.8,14.3,28.9,12.2,46.1c-0.3,2.8,1,7,3,8.8
			c13.4,11.8,27.1,23.1,40.2,34.1c0.8-15.6,0.6-29.1,2.6-42.2c0.6-4.2,6.6-9.5,11.1-10.6c9.1-2.4,11.4-6.6,8.5-15.2
			c-2.7-7.9-5.8-15.6,1.8-23.2c1.5-1.5,0.6-8.1-1.3-9.8c-5.7-5-12-11.1-18.8-12.3c-11.8-2.2-13.5-7.1-10.9-17.8
			c2.8-11.8-1-15.2-12.8-14.5c-5.6,0.4-11.3,0.8-16.9,0.3c-9-0.8-18-2.2-28.1-3.5c-0.6-8.6-1.3-18.9-1.8-25.3c7-8.7,13.8-14,16.3-21
			c3.1-8.8,7.2-14.5,16-16.8c8.8-2.3,14.7-6.9,14.3-17.3c-0.1-1.9,1.6-3.9,3-7c2,2.8,2.9,4.9,4.4,6c3.2,2.4,6.8,4.3,10.2,6.5
			c2-4.5,4.8-8.9,5.8-13.7c0.6-2.9-1.3-6.4-2.4-9.5c-2-5.8-3.1-10.3,3.8-14.6c3.2-2,3-9.5,4.4-14.5c-1.1-0.7-2.2-1.3-3.3-2
			c5.5-0.6,11-1.2,16.6-1.8c2.3,12.7,8.1,16.7,19.3,11.3c4.3-2,9.6-3.3,14.2-2.8C217.5,196,226.2,183.7,236.2,170.4z M337.5,237.8
			c-0.4-7.6,0.1-14.4-1.3-20.7c-2.3-9.6-9.4-14.7-19-14.4c-9.3,0.3-16.6,4.8-18.7,14.9c-0.9,4.4-1,9.1-1,13.6
			c0.1,48.7,0.3,97.4,0.7,146.1c0.1,7.2-1.7,11.9-7.5,16.8c-19.8,16.5-21.1,44.7-3.9,63c16.8,17.9,44.4,18,61.3,0.2
			c17.3-18.2,16.1-46.6-3.6-62.9c-6.2-5.2-7.8-10.4-7.7-18c0.4-30,0.4-59.9,0.4-89.9c0-4.4-0.4-8.8-0.6-13
			c-6.1-0.7-10.8-1.3-15.5-1.8c-0.2-1.3-0.5-2.5-0.7-3.8c5.3-1.5,10.6-2.9,16.4-4.5c0-5.1,0-10.4,0-15.1c-5.8-1.6-10.9-2.9-16.1-4.3
			c0.3-1.4,0.5-2.8,0.8-4.2C326.1,239.2,330.8,238.6,337.5,237.8z"/>
		<path class="st1" d="M360.4,241.9c24.3,45.5,28.1,92.7,11.3,142c-15.6-4.5-15.9-5.1-9.8-19.3c4.2-9.9,4.8-19,0.9-29.9
			c-2.9-8.1-2.1-19.4,1.1-27.6c6.9-17.4,4.5-33.2-2.4-49.4c-2-4.8-3.2-9.9-4.7-14.8C358,242.6,359.2,242.3,360.4,241.9z"/>
		<path class="st1" d="M313.8,46.9c0-12.7-0.1-25,0.1-37.3c0-1.5,1.8-3.3,3.2-4.1c0.7-0.4,3.7,1.3,3.6,1.9c-0.4,13-1,26-1.7,39
			C319.1,46.6,317.6,46.7,313.8,46.9z"/>
		<path class="st1" d="M434.2,151.1c-4.4-2.2-8.7-4.5-13.1-6.7c4.6-1.2,9.3-3.6,13.9-3.3c5.2,0.3,10.2,2.9,15.3,4.4
			C445.3,147.2,440.4,148.9,434.2,151.1z"/>
		<path class="st1" d="M200.3,138.7c4.6,2.2,9,4.4,13.5,6.6c-4.6,1.2-9.3,3.6-13.8,3.4c-5.2-0.2-10.3-2.8-15.4-4.3
			C189.4,142.6,194.3,140.9,200.3,138.7z"/>
		<path class="st1" d="M224.3,41.5c7.6,8.8,13.8,15.7,19.6,23c1,1.3,0.6,4.1,0.2,6.1c-0.1,0.5-3.3,1.2-4,0.6
			c-6.7-6.6-13.3-13.3-19.5-20.3C220,50.2,222.1,47.1,224.3,41.5z"/>
		<path class="st1" d="M393.2,72.7c-4.5-7.7-3.4-9.3,17.1-27.1C416.3,51.7,416,52.3,393.2,72.7z"/>
		<path class="st1" d="M411.8,239c-4.1-0.9-8.1-0.6-9.4-2.4c-4.2-5.7-14.5-8.3-11.3-19.8C398.2,224.3,404.1,230.7,411.8,239z"/>
		<path class="st1" d="M326,345.1c0,8.3,0.3,16.6-0.1,24.9c-0.6,13.3-0.5,24.1,13.7,33c16.1,10.1,14.8,35.7,0.7,49.2
			c-14.2,13.6-36.6,12-48.8-3.5c-12.4-15.7-9.1-39.9,8.3-49.8c7.9-4.5,9.5-9.3,9.4-17.4c-0.4-25.3-0.1-50.6-0.1-76
			c0-6.3-0.4-13.6,8.3-13.7c8.6-0.1,8.7,7,8.7,13.5C326,318.5,326,331.8,326,345.1z M312.7,405.3c-1.7-1.5-3.3-3.1-5-4.6
			c-5.7,6.3-11.5,12.4-16.9,18.9c-0.9,1.1-0.5,3.9,0.2,5.4c0.5,1,3.7,1.9,4.2,1.4C301.2,419.5,306.9,412.4,312.7,405.3z"/>
	</g>
</g>
<path class="st2" d="M259.3,172.4c1.7-17.3,15.3-28.5,27.3-27.3c8.2,0.8,10.3,14.1,18.6,14.9c8.1,0.8,15.9-10.5,21.1-19.9"/>
<path class="st2" d="M275.4,205.9c1.7-17.3,15.3-28.5,27.3-27.3c8.2,0.8,10.3,14.1,18.6,14.9c8.1,0.8,15.9-10.5,21.1-19.9"/>
</svg>
