<?xml version="1.0" encoding="utf-8"?>
<!-- Generator: Adobe Illustrator 23.0.1, SVG Export Plug-In . SVG Version: 6.00 Build 0)  -->
<svg version="1.1" id="Layer_1" xmlns="http://www.w3.org/2000/svg" xmlns:xlink="http://www.w3.org/1999/xlink" x="0px" y="0px"
	 viewBox="0 0 500 500" style="enable-background:new 0 0 500 500;" xml:space="preserve">
<style type="text/css">
	.st0{fill:#FFFFFF;}
	.st1{fill:#FF7514;}
	.st2{fill:#FF1900;}
	.st3{fill:#002D13;}
	.st4{fill:#5A7302;}
	.st5{fill:#00A99D;}
	.st6{fill:#3F7606;}
	.st7{fill:#F7F9FA;}
	.st8{display:none;fill:#5FDCD1;}
	.st9{display:none;fill:#F7F9FA;}
	.st10{fill:#FBAE17;}
	.st11{fill:none;stroke:#FBAE17;stroke-width:5;stroke-miterlimit:10;}
	.st12{fill:#8C0228;}
	.st13{fill:#FDFDFD;}
	.st14{fill:#E77800;}
</style>
<g>
	<path class="st3" d="M461.53,269.98c0,122-97.2,219.2-219.3,219.2c-122.6,0-219.7-97.4-219.4-220.2c0.2-61.1,22.5-113.1,65.6-156.2
		c32.4-32.4,71.7-51.6,116.5-58.7c74.7-11.8,140,8.2,193.9,61.8C439.83,156.48,461.53,211.18,461.53,269.98z M403.13,270.28
		c0.1-89.4-71.1-161.3-159.9-161.5c-90.1-0.2-161.5,71-162.2,160.4c-0.6,87.8,71.6,161.3,160.3,161.8
		C333.83,431.58,404.23,354.38,403.13,270.28z"/>
	<path class="st1" d="M300.63,255.28c-19,47.6-37.3,93.3-55.6,139c-0.8-0.1-1.7-0.2-2.5-0.3c0-8.2,0-16.5,0-24.7
		c0-10.7,0.3-21.5-0.1-32.2c-0.4-12.1,5.2-28.1-2-35.4c-7.8-7.8-23.9-1.7-36.3-2.4c-4.4-0.3-8.9-0.2-13.3,0
		c-5.2,0.2-6.6-1.8-4.6-6.7c17.7-43.8,35.4-87.7,53.1-131.6c0.1-0.2,0.6-0.1,2.5-0.4c0,11.7,0,23.3,0,34.8c0,16.3,0.4,32.6-0.2,48.9
		c-0.3,8.4,1.6,11.7,10.8,11.2C267.83,254.68,283.43,255.28,300.63,255.28z"/>
</g>
</svg>
