<?xml version="1.0" encoding="utf-8"?>
<!-- Generator: Adobe Illustrator 23.0.1, SVG Export Plug-In . SVG Version: 6.00 Build 0)  -->
<svg version="1.1" id="Layer_1" xmlns="http://www.w3.org/2000/svg" xmlns:xlink="http://www.w3.org/1999/xlink" x="0px" y="0px"
	 viewBox="0 0 500 500" style="enable-background:new 0 0 500 500;" xml:space="preserve">
<style type="text/css">
	.st0{fill:#FFFFFF;}
	.st1{fill:#FF7514;}
	.st2{fill:#FF1900;}
	.st3{fill:#002D13;}
	.st4{fill:#5A7302;}
	.st5{fill:#00A99D;}
	.st6{fill:#3F7606;}
	.st7{fill:#F7F9FA;}
	.st8{display:none;fill:#5FDCD1;}
	.st9{display:none;fill:#F7F9FA;}
	.st10{fill:#FBAE17;}
	.st11{fill:none;stroke:#FBAE17;stroke-width:5;stroke-miterlimit:10;}
	.st12{fill:#8C0228;}
	.st13{fill:#FDFDFD;}
	.st14{fill:#E77800;}
</style>
<g>
	<path class="st0" d="M68.56,295.6c2.3,6.7,5.8,12.4,12.6,15.4c14.4,6.2,29.6-3.4,30.1-19.1c0.4-15.6,1.1-31.2,0.7-46.8
		c-0.3-11.2,3.5-21.3,6.4-32.5c3.9,5.6,5.8,11.1,5.7,17.2c-0.1,12.4-0.4,24.7-0.6,37.1c-0.2,9.5,0,19-0.8,28.4
		c-0.9,10.9-6.8,19.1-16.1,24.7c-2,1.2-2.7,2.4-2.7,4.7c0.1,44.1,0,88.1,0.1,132.2c0,10.7,5.6,18.1,15.8,21.5
		c0.4,0.1,0.8,0.5,1.2,0.7c-17.5,0-35,0-52.5,0C68.56,418,68.56,356.8,68.56,295.6z"/>
	<path class="st1" d="M276.16,20.6c3,0.8,6,1.5,8.9,2.6c18.5,6.9,29.6,26.3,26.1,45.4c-3.6,19.7-20.4,33.7-40.4,33.8
		c-19.7,0-36.6-14.1-40.2-33.5c-4-21.8,10.4-43,32.3-47.5c0.9-0.2,1.9-0.5,2.8-0.8C269.16,20.6,272.66,20.6,276.16,20.6z"/>
	<path class="st2" d="M384.96,229.9c0,21.9-1.3,43.4-6.2,64.6c-9.2,39.5-27.5,73.7-58.5,100.4c-14.1,12.1-29.9,21.7-47,29
		c-1.4,0.6-3.7,0.5-5.2-0.2c-56.9-25.1-90.9-68.9-105-128.9c-4.8-20.4-6.3-41.2-6.2-62.1c0-2.3,1-2.9,3-3.3
		c22.7-4.7,43.9-13.2,63.6-25.4c16.3-10,31.6-21.5,44.9-35.3c0.7-0.7,1.4-1.4,2.4-2.3C302.76,198.2,339.66,221.3,384.96,229.9z
		 M270.26,195.3c-0.5,0.4-1.3,1-2,1.6c-26.2,22.1-55.1,39.1-88.2,48.5c-2.2,0.6-2.5,1.8-2.4,3.8c0.8,19.8,3.9,39.2,10.2,58.1
		c14,42.3,40.5,74,80.6,94c1.3,0.6,3.4,0.7,4.8,0c21.1-10.3,39.2-24.4,53.6-42.9c25-32.1,35.5-69.3,37.3-109.4
		c0.1-2.2-0.7-3-2.7-3.6c-20.6-5.8-39.8-14.6-57.7-26.3C292.36,211.7,281.66,203.5,270.26,195.3z"/>
	<path class="st1" d="M196.26,92.1c0.1,21-16.8,38-37.7,38c-21,0-38.2-16.9-38.1-37.7c0-21,16.9-38,37.8-38.1
		C179.16,54.2,196.26,71.2,196.26,92.1z"/>
	<path class="st1" d="M421.06,92.1c0.2,20.6-16.5,37.7-37,37.9c-21.3,0.3-38.4-16.2-38.8-37.4c-0.4-20.7,16.7-38.2,37.5-38.4
		C403.96,54.1,420.86,70.8,421.06,92.1z"/>
	<g>
		<g>
			<path class="st3" d="M157.46,213.9c-5.2-7.5-10.2-14.3-14.9-21.4c-1.5-2.2-2.6-4.8-3.1-7.4c-1.6-8.5-2.8-17-4.2-25.5
				c-1.1-6.5-2.2-12.9-3.3-19.7c-9.1,1.6-17.8,3-26.5,4.8c-8.8,1.8-14.4,7.2-16.8,15.8c-3.9,13.7-7.3,27.5-11.7,41
				c-5.7,17.5-8.7,35.3-7.8,53.7c0.2,4.7-0.4,9.5-0.6,14.2c0,8.7,0,17.5,0.2,26.2c2.3,6.7,5.8,12.4,12.6,15.4
				c14.4,6.3,29.7-3.4,30.1-19.1c0.4-15.6,1-31.2,0.7-46.8c-0.3-11.2,3.4-21.3,6.4-32.5c3.9,5.6,5.7,11.1,5.7,17.2
				c-0.1,12.4-0.4,24.7-0.6,37.1c-0.2,9.4,0,19-0.8,28.4c-0.9,10.9-6.8,19.1-16.1,24.7c-2,1.2-2.7,2.4-2.7,4.7
				c0.1,44.1,0,88.1,0.1,132.2c0,10.7,5.6,18.1,15.8,21.5c0.4,0.1,0.8,0.4,1.2,0.7c2.7,0,5.4,0,8.2,0c14.7-4.7,17.9-14.4,17.5-26.4
				c-0.4-13.2-0.1-26.5-0.1-39.7c-0.1-27.1,0-54.2-0.1-81.3c0-4.6,1-8.9,5.1-11.4c2.3-1.3,2.1-2.6,1.6-4.8
				c-2.9-11.7-6.6-23.4-8.1-35.3c-2.3-18.9-3.2-38-4.6-57c-0.1-1.7,0-3.4,0-5.5C146.06,216.5,151.56,215.2,157.46,213.9z"/>
			<path class="st3" d="M472.96,269.5c-0.2-8.5-0.1-17-0.4-25.5c-0.3-6.7,0-13.7-1.6-20.1c-5.5-21.3-11.6-42.6-17.9-63.7
				c-1.1-3.8-3.8-7.2-6.3-10.4c-1.4-1.7-3.7-3.3-5.9-3.8c-10.1-2.3-20.4-4.3-30.9-6.4c-2.5,14.8-4.8,29-7,43.1
				c-0.6,4.2-1.8,7.9-4.4,11.3c-4.8,6.3-9.2,12.9-14.1,19.9c6,1.4,11.5,2.6,17.2,3.9c-0.4,5.9-1,11.3-1.1,16.8
				c-0.5,27.9-3.6,55.5-12.3,82.2c-0.3,0.8,0.4,2.4,1.1,2.9c4.2,2.8,5.8,6.7,5.8,11.5c-0.1,29.8-0.1,59.7-0.1,89.5c0,12,0,24-0.1,36
				c-0.1,7.3,2.4,13.5,8.3,17.9c2.8,2,6.2,3.1,9.3,4.6c2.5,0,5,0,7.5,0.2c3.1-1.5,6.6-2.6,9.3-4.6c5.9-4.4,8.3-10.7,8.3-18
				c0-44.1,0-88.1,0.1-132.2c0-2.1-0.6-3.3-2.5-4.4c-10.6-6.4-16.3-15.9-16.6-28.4c-0.4-20-0.6-39.9-1-59.9
				c-0.1-6.8,1.6-12.9,5.3-18.5c0.5,0,1-0.1,1.5-0.1c1.8,9.1,4.5,18.1,5.1,27.2c1,16.8,0.8,33.7,1.1,50.5
				c0.2,11.3,7.6,20.1,18.3,21.7c10.5,1.6,20.3-4.9,23.7-15.7c0.3-0.7,0.5-1.4,0.8-2.1c0-6.7,0-13.4,0-20.2
				C473.26,273,472.96,271.2,472.96,269.5z"/>
			<path class="st3" d="M345.86,391.2c-0.8,1-0.9,2.8-0.9,4.2c0,16.8-0.1,33.7,0,50.5c0.1,10.4,0.4,20.7-6,30.3c2.8,1.1,5.2,2,7.6,3
				c2.5,0,5,0,7.4,0.1c0.3-0.2,0.6-0.5,0.9-0.6c11.1-3.4,16.5-10.6,16.5-22c0-32.1,0-64.1,0-96.2c0-1.1-0.1-2.2-0.1-2.5
				C362.86,368.9,354.36,380,345.86,391.2z"/>
			<path class="st3" d="M196.76,449c0-17.8,0.1-35.6-0.1-53.5c0-1.9-1-4-2.1-5.6c-7.1-9.9-14.4-19.7-21.6-29.6
				c-0.8-1-1.5-2.2-2.5-3.7c-0.2,1.1-0.3,1.5-0.3,2c0,33.3,0,66.7,0,100c0,5.5,1.8,10.5,6,14c3.4,2.7,7.6,4.4,11.5,6.6
				c2.5,0,5,0,7.6,0.1c2.3-1,4.7-2,6.6-2.8c-1.6-4.9-3.5-9.2-4.3-13.7C196.66,458.3,196.76,453.6,196.76,449z"/>
			<path class="st3" d="M285.36,435.4c-1,0.5-1.8,2.3-1.8,3.5c-0.1,6-0.4,12,0.1,18c0.3,3.6,1.5,7.3,3,10.6
				c3.1,6.6,9.2,9.5,15.7,11.7c2.7,0,5.5,0,8.2-0.1c0.3-0.2,0.6-0.5,0.9-0.6c12-3.6,18-11.4,18-23.9c0-14.6,0-29.2,0-43.8
				c0-1-0.2-2-0.3-3.6C315.46,418.8,300.96,427.9,285.36,435.4z"/>
			<path class="st3" d="M255.46,434.7c-14.6-7-28.2-15.5-40.7-25.8c-0.7-0.5-1.4-0.8-2.3-1.3c0,17.6-0.2,34.8,0.2,52
				c0.1,3.6,2.4,7.3,4.4,10.5c3.1,5.2,8.6,7.2,14.1,9.1c2.7,0,5.5,0,8.3,0c0.5-0.2,0.9-0.6,1.3-0.7c11-3.2,17.4-11.5,17.5-22.8
				c0.1-5.5-0.1-11,0.1-16.5C258.36,436.8,257.56,435.7,255.46,434.7z"/>
			<path class="st3" d="M349.96,203.3c5.2,2.2,10.6,4.1,16.6,6.4c-0.5-2.5-0.7-4.1-1.1-5.5c-5.7-20.6-12.2-41.1-17.1-62
				c-3.6-15.6-11.8-24.1-27.8-25.5c-7-0.7-13.9-2.4-20.9-3.6c-0.2,0.9-0.4,1.3-0.5,1.8c-2.6,15.9-5.2,31.8-7.7,47.7
				c-0.2,1.2,0.8,3.1,1.8,4C310.36,181.7,329.16,194.1,349.96,203.3z"/>
			<path class="st3" d="M249.06,165.9c0.7-0.6,1.3-1.9,1.2-2.8c-2.6-16.5-5.3-33-8.1-50.1c-9.4,1.7-18.5,3.3-27.7,5
				c-10,1.7-16.5,7.5-19.2,17.1c-6.6,23-12.9,46.1-19.3,69.1c-0.4,1.5-0.6,3.1-0.9,5c1.2-0.2,1.9-0.3,2.6-0.5
				C204.46,199.4,227.96,184.7,249.06,165.9z"/>
			<path class="st3" d="M392.76,187.2c-0.7-7-2-14-2.5-21.1c-0.5-7.8-3.9-15.7,1-23.3c1.3-2-0.9-4.1-3.6-4.1c-2.9,0-5.9,0-8.9,0
				c-3.2,0-4.6,2.1-3.3,5.1c1.4,3.4,2.7,6.6,2.1,10.7c-2.3,14.3-4.4,28.8,2,42.8c0.3,0.6,0.3,1.2,0.6,1.8c0.9,1.9,1.7,3.7,3,6.4
				c3.2-5,6-9,8.4-13.1C392.36,190.9,392.96,188.9,392.76,187.2z"/>
		</g>
		<path class="st4" d="M158.76,205.5c-3.6-5.4-6.9-9.8-9.6-14.6c-0.8-1.5-0.4-3.9-0.2-5.8c1.1-9.7,2.1-19.4,3.5-29
			c0.7-4.4,0.2-8.3-1.8-12.2c-1.7-3.3,0.1-5.3,3.8-5.1c2.5,0.1,5,0.2,7.5,0c4.1-0.2,5.8,1.7,4,5.3c-1.9,3.8-2.5,7.6-1.7,11.9
			c1,5.5,1.6,11.1,1.9,16.7c0.2,4-0.1,8.1-0.8,12.1c-1,5-2.6,9.9-4,14.8C160.86,201.3,159.86,202.9,158.76,205.5z"/>
		<path class="st4" d="M261.76,152.4c0.8-6.4,1.3-12.8,2.4-19.1c1.1-6.6,1-12.8-2.9-18.3c1.6-3.1,3.7-3.8,6.7-3.2
			c2.3,0.4,4.7,0.1,7.1-0.1c3.8-0.3,6,2.1,4.1,5.2c-3.9,6.4-1.9,13-1.2,19.6c0.5,5.3,1.3,10.6,2,16.9c-3.2-3.7-5.7-6.5-8.6-9.9
			c-3.2,3.8-5.7,6.7-8.2,9.6C262.76,152.9,262.26,152.7,261.76,152.4z"/>
	</g>
	<path class="st5" d="M270.66,205.6c0,62.9,0,125.1,0,187.8c-1.3-0.6-2.3-1-3.2-1.5c-41.9-22.7-66.3-58.4-76.7-104.1
		c-2.4-10.8-3.2-21.9-4.9-32.9c-0.3-2,0.3-2.9,2.3-3.5c29.7-9.5,56.3-24.9,80.5-44.4C269.16,206.6,269.66,206.3,270.66,205.6z"/>
</g>
</svg>
