<?xml version="1.0" encoding="utf-8"?>
<!-- Generator: Adobe Illustrator 23.0.1, SVG Export Plug-In . SVG Version: 6.00 Build 0)  -->
<svg version="1.1" id="Layer_1" xmlns="http://www.w3.org/2000/svg" xmlns:xlink="http://www.w3.org/1999/xlink" x="0px" y="0px"
	 viewBox="0 0 500 500" style="enable-background:new 0 0 500 500;" xml:space="preserve">
<style type="text/css">
	.st0{fill:#397000;}
	.st1{fill:#9CBF00;}
</style>
<g>
	<path class="st0" d="M471.6,252.4c0,122-97.2,219.2-219.3,219.2c-122.6,0-219.7-97.4-219.4-220.2c0.2-61.1,22.5-113.1,65.6-156.2
		c32.4-32.4,71.7-51.6,116.5-58.7c74.7-11.8,140,8.2,193.9,61.8C449.9,138.9,471.6,193.6,471.6,252.4z M413.2,252.7
		c0.1-89.4-71.1-161.3-159.9-161.5c-90.1-0.2-161.5,71-162.2,160.4c-0.6,87.8,71.6,161.3,160.3,161.8
		C343.9,414,414.3,336.8,413.2,252.7z"/>
	<path class="st1" d="M310.7,237.7c-19,47.6-37.3,93.3-55.6,139c-0.8-0.1-1.7-0.2-2.5-0.3c0-8.2,0-16.5,0-24.7
		c0-10.7,0.3-21.5-0.1-32.2c-0.4-12.1,5.2-28.1-2-35.4c-7.8-7.8-23.9-1.7-36.3-2.4c-4.4-0.3-8.9-0.2-13.3,0
		c-5.2,0.2-6.6-1.8-4.6-6.7c17.7-43.8,35.4-87.7,53.1-131.6c0.1-0.2,0.6-0.1,2.5-0.4c0,11.7,0,23.3,0,34.8c0,16.3,0.4,32.6-0.2,48.9
		c-0.3,8.4,1.6,11.7,10.8,11.2C277.9,237.1,293.5,237.7,310.7,237.7z"/>
</g>
</svg>
