<?xml version="1.0" encoding="utf-8"?>
<!-- Generator: Adobe Illustrator 23.0.1, SVG Export Plug-In . SVG Version: 6.00 Build 0)  -->
<svg version="1.1" id="Layer_1" xmlns="http://www.w3.org/2000/svg" xmlns:xlink="http://www.w3.org/1999/xlink" x="0px" y="0px"
	 viewBox="0 0 500 500" style="enable-background:new 0 0 500 500;" xml:space="preserve">
<style type="text/css">
	.st0{fill:#FFFFFF;}
	.st1{fill:#FF7514;}
	.st2{fill:#FF1900;}
	.st3{fill:#002D13;}
	.st4{fill:#5A7302;}
	.st5{fill:#00A99D;}
	.st6{fill:#3F7606;}
	.st7{fill:#F7F9FA;}
	.st8{display:none;fill:#5FDCD1;}
	.st9{display:none;fill:#F7F9FA;}
	.st10{fill:#FBAE17;}
	.st11{fill:none;stroke:#FBAE17;stroke-width:5;stroke-miterlimit:10;}
	.st12{fill:#8C0228;}
	.st13{fill:#FDFDFD;}
	.st14{fill:#E77800;}
</style>
<g>
	<path class="st3" d="M13.3,97.21c0-6,0-11.2,0-16.7c25.6,0,51.1,0,77.2,0c1.5,5,3,10.3,4.5,15.5c2.1,7.6,4.4,15.2,6.3,23
		c0.9,3.5,2.5,4.6,6.1,4.6c59.9-0.1,119.8,0,179.7,0.1c58.8,0.1,117.5,0.2,176.3,0.2c6.2,0,12.4,0,19.3,0
		c-3.6,12.5-6.9,24.1-10.2,35.7c-15.7,54.9-31.4,109.8-47,164.8c-1,3.5-2.8,3.7-5.8,3.7c-84.1-0.1-168.3-0.2-252.5-0.2
		c-1.8,0-3.6,0-6.1,0c1.2,5,2.2,9.7,3.4,14.2c2.2,7.9,4.8,15.6,6.9,23.6c0.9,3.2,2.2,4.2,5.5,4.2c58.3-0.1,116.6,0,175,0.1
		c20.6,0,41.2,0.1,61.7,0.1c0.7,0,1.4,0.1,2.8,0.2c-1.1,5.3-1.9,10.4-3.2,15.4c-0.2,0.8-2.7,1.5-4.2,1.5c-17.2,0.1-34.3,0-51.5,0
		c-64.1-0.1-128.3-0.2-192.4-0.2c-4,0-5.5-1.1-6.6-5c-26.4-93.5-53.1-186.6-79.6-279.9c-1.1-3.9-2.6-5.1-6.6-5c-18,0.2-36,0-54.1,0
		C16.7,97.21,15.1,97.21,13.3,97.21z M385,179.31c0.9,0.3,1.3,0.5,1.7,0.5c20.3,0,40.6,0.1,60.9-0.1c1.1,0,2.8-1.6,3.2-2.8
		c2.7-8.7,5.1-17.4,7.5-26.1c0.9-3.1,1.7-6.2,2.5-9.2c-0.7-0.3-1-0.5-1.3-0.5c-22.7-0.1-45.4-0.2-68.1-0.1c-1,0-2.6,1.5-2.8,2.6
		c-0.7,3.6-0.9,7.3-1.3,11C386.5,162.71,385.7,171.01,385,179.31z M183.3,179.81c-1.3-13.4-2.6-26.3-3.9-39c-24.3,0-47.9,0-71.9,0
		c3.4,11.8,6.8,23.2,9.8,34.7c0.9,3.3,2.1,4.5,5.7,4.4c18.6-0.2,37.2-0.1,55.7-0.1C180.2,179.81,181.6,179.81,183.3,179.81z
		 M192.9,179.51c19.6,0,38.8,0,58.1,0c0-13,0-25.7,0-38.7c-20.6,0-41,0-61.9,0C190.4,153.81,191.6,166.41,192.9,179.51z M379,140.91
		c-21,0-41.4,0-61.8,0c0,13.1,0,25.9,0,38.8c19.5,0,38.5,0,58,0C376.5,166.81,377.7,154.21,379,140.91z M380.5,224.71
		c18.7,0,36.7,0,54.7-0.1c0.9,0,2.2-0.9,2.4-1.7c3.3-11.1,6.4-22.3,9.6-33.3c-0.4-0.3-0.6-0.5-0.7-0.5c-20.1-0.1-40.2-0.2-60.4-0.2
		c-0.8,0-2.3,1.3-2.3,2.1C382.6,202.11,381.6,213.11,380.5,224.71z M187.7,224.41c-1.2-12-2.4-23.6-3.5-35.3c-21.2,0-41.8,0-62.9,0
		c3.1,10.8,6.3,21.2,9,31.7c0.8,3.1,2.2,4,5.2,3.9c16-0.1,32.1,0,48.1-0.1C184.8,224.71,186.1,224.51,187.7,224.41z M317.1,188.81
		c-0.2,1.3-0.3,1.9-0.3,2.6c-0.2,10-0.4,20-0.7,30c-0.1,3.2,1.6,3.3,4,3.3c15.9,0,31.7,0,47.6,0c1,0,1.9-0.2,3.1-0.4
		c1.1-11.8,2.3-23.4,3.5-35.5C355,188.81,336.3,188.81,317.1,188.81z M193.9,189.11c1.1,11,2.2,21.4,3.1,31.9
		c0.2,2.9,1.2,3.8,4.1,3.8c13.3-0.1,26.7-0.1,40-0.1c3.2,0,6.5,0,10,0c0-12.1,0-23.8,0-35.6C231.9,189.11,213.1,189.11,193.9,189.11
		z M376.1,268.61c0.6,0.5,0.7,0.6,0.8,0.6c15.2,0.1,30.3,0.2,45.4,0.1c1,0,2.5-1.6,2.9-2.8c1.9-5.8,3.4-11.7,5.1-17.5
		c1.4-5,2.8-10,4.2-15.2c-18.6,0-36.6,0-55,0C378.4,245.61,377.2,257.11,376.1,268.61z M251.1,233.81c-17.7,0-34.9,0-52.6,0
		c0.1,1.8,0.1,3.3,0.2,4.9c0.8,8.9,1.8,17.8,2.5,26.7c0.2,3.2,1.3,4.3,4.6,4.3c13.7-0.2,27.5-0.1,41.3-0.1c1.2,0,2.5-0.2,3.9-0.3
		C251.1,257.31,251.1,245.81,251.1,233.81z M134,233.71c3.1,11,6.3,21.5,9.1,32.1c0.8,3,2.2,3.7,5,3.7c13.3-0.1,26.7,0,40-0.1
		c1.2,0,2.4-0.2,4-0.4c-1.2-12-2.4-23.7-3.5-35.4C170.2,233.71,152.4,233.71,134,233.71z M369.8,233.81c-17.8,0-35.1,0-52.7,0
		c0,12,0,23.6,0,35.7c15.9,0,31.4,0,47-0.1c0.9,0,2.3-1.8,2.4-2.9c0.7-4.9,1.1-9.8,1.6-14.8C368.7,245.81,369.2,239.91,369.8,233.81
		z M306.9,140.91c-15.6,0-30.7,0-45.8,0c0,13,0,25.7,0,38.5c15.4,0,30.6,0,45.8,0C306.9,166.51,306.9,153.91,306.9,140.91z
		 M261.2,189.11c0,12.1,0,23.6,0,35.9c14.7,0,29.1,0,43.5,0c2.9,0,3.1-1.9,3-4c-0.2-3.4-0.4-6.8-0.5-10.2c-0.1-7.2,0-14.4,0-21.8
		C291.5,189.11,276.5,189.11,261.2,189.11z M306.8,233.61c-15.6,0-30.6,0-45.7,0c0,12.2,0,23.9,0,35.5c15.4,0,30.5,0,45.7,0
		C306.8,257.11,306.8,245.41,306.8,233.61z M251,278.71c-16.2,0-32,0-48.3,0c1,10.2,1.9,20.1,3.1,29.9c0.1,0.8,2.1,2,3.3,2
		c5.7,0.2,11.3,0.1,17,0.1c8.2,0,16.4,0,24.9,0C251,300.01,251,289.51,251,278.71z M317.2,278.71c0,11,0,21.4,0,31.9
		c15.2,0,30,0,45.1,0c1-10.7,2.1-21.2,3.1-31.9C349,278.71,333.2,278.71,317.2,278.71z M261.1,278.61c0,10.8,0,21.2,0,31.9
		c15.3,0,30.4,0,45.7,0c0-10.7,0-21.2,0-31.9C291.5,278.61,276.5,278.61,261.1,278.61z M421.8,278.81c-16,0-31.3,0-46.7,0
		c-1,10.8-2,21.3-3.1,32.2c13.3,0,25.9,0,38.5-0.1c0.9,0,2.3-0.9,2.5-1.6C416,299.21,418.8,289.11,421.8,278.81z M193,278.61
		c-15.7,0-30.7,0-46.2,0c2.9,10.3,5.7,20.4,8.8,30.4c0.3,0.9,2.5,1.6,3.8,1.6c7.7,0.2,15.3,0.1,23,0.1c4.5,0,9,0,13.9,0
		C195.1,299.71,194.1,289.31,193,278.61z"/>
	<path class="st1" d="M345.6,395.01c21.4,0,38.4,17,38.5,38.3c0.1,21.1-17.3,38.5-38.4,38.5c-21.2,0-38.4-17.2-38.5-38.4
		S324.3,395.01,345.6,395.01z M345.7,446.51c7.4,0,13.3-6,13.2-13.3c-0.1-7-6-13-13-13.2c-7.2-0.1-13.3,5.9-13.4,13.2
		C332.4,440.51,338.3,446.51,345.7,446.51z"/>
	<path class="st1" d="M225.2,395.01c21.2,0,38.4,17.2,38.3,38.5c-0.1,21.2-17.3,38.4-38.5,38.3s-38.3-17.3-38.2-38.5
		C186.8,411.81,203.8,394.91,225.2,395.01z M225.1,446.51c7.4,0,13.2-5.9,13.1-13.3c-0.1-7.2-5.9-13-13-13.1
		c-7.2-0.1-13.4,6-13.5,13.2C211.7,440.41,217.8,446.51,225.1,446.51z"/>
</g>
</svg>
