<?xml version="1.0" encoding="utf-8"?>
<!-- Generator: Adobe Illustrator 23.0.1, SVG Export Plug-In . SVG Version: 6.00 Build 0)  -->
<svg version="1.1" id="Layer_1" xmlns="http://www.w3.org/2000/svg" xmlns:xlink="http://www.w3.org/1999/xlink" x="0px" y="0px"
	 viewBox="0 0 500 500" style="enable-background:new 0 0 500 500;" xml:space="preserve">
<style type="text/css">
	.st0{fill:#FFFFFF;}
	.st1{fill:#FF7514;}
	.st2{fill:#FF1900;}
	.st3{fill:#002D13;}
	.st4{fill:#5A7302;}
	.st5{fill:#00A99D;}
	.st6{fill:#3F7606;}
	.st7{fill:#F7F9FA;}
	.st8{display:none;fill:#5FDCD1;}
	.st9{display:none;fill:#F7F9FA;}
	.st10{fill:#FBAE17;}
	.st11{fill:none;stroke:#FBAE17;stroke-width:5;stroke-miterlimit:10;}
	.st12{fill:#8C0228;}
	.st13{fill:#FDFDFD;}
	.st14{fill:#E77800;}
</style>
<g>
	<g>
		<path class="st3" d="M463.69,323.02c-0.1-3.9-3.3-8.5-6.3-11.5c-30.6-30.7-61.5-61.2-92.3-91.7c-2-2-4.4-3.6-9.1-7.4
			c0,35.8,0,68.7,0,101.7c-1.2,0.5-2.3,1-3.5,1.5c-33.7-33.8-67.5-67.6-103-103.2c0,35.5,0,68.9,0,102.4c-1.1,0.7-2.3,1.4-3.5,2.1
			c-33.9-33.9-67.9-67.9-103.7-103.7c0,35.1,0,68.2,0,101.2c-1.3,0.7-2.5,1.3-3.7,2c-34-34-68-68-102.6-102.6
			c0,85.5,0,170.2,0,255.9c143.2,0,285.3,0,428,0C463.99,420.22,464.09,371.62,463.69,323.02z M116.49,418.92c-19.8,0-38.8,0-58.7,0
			c0-16.3,0-32.4,0-49.5c19,0,38.3,0,58.7,0C116.49,386.32,116.49,402.32,116.49,418.92z M197.59,418.72c-19.1,0-38.1,0-58.2,0
			c0-16.8,0-32.9,0-49.6c19.6,0,38.6,0,58.2,0C197.59,385.72,197.59,401.82,197.59,418.72z M278.99,418.42c-18.9,0-38.2,0-58.8,0
			c0-16.3,0-32,0-48.9c19.3,0,38.5,0,58.8,0C278.99,385.22,278.99,401.32,278.99,418.42z M359.99,418.92c-19.4,0-38.4,0-58,0
			c0-16.7,0-32.8,0-49.7c19.2,0,38.1,0,58,0C359.99,385.42,359.99,401.52,359.99,418.92z M442.29,418.62c-19.7,0-39,0-59.1,0
			c0-16.2,0-32.3,0-49.3c19.6,0,38.8,0,59.1,0C442.29,386.22,442.29,402.02,442.29,418.62z"/>
		<path class="st3" d="M59.49,222.82c12.1,13,24.5,25.8,36.8,38.6c0.9-0.7,1.7-1.5,2.6-2.3c0-46.8,0-93.5,0-140.1
			c-14.4,0-27.9,0-41.9,0c0,32.8-0.1,64.6,0.1,96.4C57.09,217.92,57.89,221.02,59.49,222.82z"/>
		<path class="st3" d="M134.99,296.12c0-35.6,0-68.9,0-102.2c0.9-0.4,1.9-0.8,2.8-1.2c6.3,7.3,12.7,14.7,21.4,24.6
			c0-35.5,0-67,0-98.3c-14.3,0-27.8,0-41.9,0c0,49.9,0.6,98.8-0.3,147.7C116.69,280.42,123.29,287.62,134.99,296.12z"/>
	</g>
	<path class="st1" d="M186.49,52.42c2.9-2,6.6-2.6,10.1-2c12.4,2.3,25.3-3.8,34,8.2c1,1.4,6.4,0.6,9.2-0.5
		c7.2-2.9,14.4-2.5,17.1,4.5c1.7,4.5,0,12.4-3.3,16.2c-7.5,8.7-16,17-29.7,15.1c-1.9-0.3-4.5,3.4-6.4,5.5
		c-9,10.3-22.6,13.3-33.7,5.6c-8-5.5-14.3-3-21.3,0.6c-0.3,0.2-0.5,0.7-0.9,0.8c-1,0.3-1.8,0.5-2.6,0.8c-7.2,2.3-14.9-2-16.5-9.4
		c-0.2-1-0.1-1.7,0.5-4.4c0.8-3.2-0.9-7.8,0-11c0.8-3,5.1-13.2,7-15C160.79,57.62,175.89,59.82,186.49,52.42z"/>
</g>
</svg>
