<?xml version="1.0" encoding="utf-8"?>
<!-- Generator: Adobe Illustrator 23.0.1, SVG Export Plug-In . SVG Version: 6.00 Build 0)  -->
<svg version="1.1" id="Layer_1" xmlns="http://www.w3.org/2000/svg" xmlns:xlink="http://www.w3.org/1999/xlink" x="0px" y="0px"
	 viewBox="0 0 500 500" style="enable-background:new 0 0 500 500;" xml:space="preserve">
<style type="text/css">
	.st0{fill:#FFFFFF;}
	.st1{fill:#FF7514;}
	.st2{fill:#FF1900;}
	.st3{fill:#002D13;}
	.st4{fill:#5A7302;}
	.st5{fill:#00A99D;}
	.st6{fill:#3F7606;}
	.st7{fill:#F7F9FA;}
	.st8{display:none;fill:#5FDCD1;}
	.st9{display:none;fill:#F7F9FA;}
	.st10{fill:#FBAE17;}
	.st11{fill:none;stroke:#FBAE17;stroke-width:5;stroke-miterlimit:10;}
	.st12{fill:#8C0228;}
	.st13{fill:#FDFDFD;}
	.st14{fill:#E77800;}
</style>
<g>
	<path class="st1" d="M131.54,443.3c-9.95,13.29-22.29,19.94-39.7,17.68c-12.16-1.58-24.73-0.63-37.07-0.18
		c-7.51,0.23-11.17-1.49-11.17-10.13c0.23-104.26,0.09-208.57,0.18-312.83c0-13.61,12.43-16.55,20.8-22.88l5.79,0.77L55.9,131.11
		c25.59-0.09,50.68,6.28,69.04-15.82c9.49,0.86,6.1,8.27,6.1,13.16C131.36,233.33,131.5,338.32,131.54,443.3z"/>
	<path class="st1" d="M247.7,444.07c-10.49,13.79-24.19,18.99-41.42,16.77c-7.82-0.99-15.87-0.18-23.78-0.18
		c-22.7,0-22.7,0-22.74-22.06c0-4.84-0.14-9.72-0.18-14.56c0.05-90.52,0.77-181.08-0.32-271.55c-0.23-18.63,6.56-29.75,21.43-38.07
		c2.4,0.99,7.23,0.54,2.71,5.24c-3.16,3.3-8,5.24-9.36,11.71c24.32-0.68,49.46,6.1,68.09-16.23c8.77,2.17,5.11,9.31,5.11,14.24
		C247.56,234.28,247.7,339.18,247.7,444.07z"/>
	<path class="st1" d="M425.88,432c-4.2,13.38-11.57,23.06-26.49,26.09c-14.29,2.8-28.39,6.51-42.23,11.12
		c-9.68,3.3-12.39-0.5-14.56-8.73c-12.03-45.62-24.32-91.15-36.49-136.72c-0.68-2.58-0.77-5.29-3.21-6.96
		c-9.59-48.06-23.38-95.08-36.8-142.15c-5.24-18.27-0.95-31.24,11.85-43.27l6.19,0.36c-2.8,5.88-8.32,10.31-9.81,18.94
		c23.96-5.83,49.1-6.51,60.9-32.96c5.43-0.86,7.51,1.72,8.68,6.92c2.53,11.12,5.97,22.06,8.91,33.05
		C377.14,249.11,401.51,340.53,425.88,432z"/>
	<g>
		<path class="st3" d="M464.22,364.18c-26.13-97.84-52.26-195.68-78.4-293.48c-4.52-17-4.56-17-18.4-5.69l-32.24,52.71
			c5.43-0.86,7.51,1.72,8.68,6.92c2.54,11.08,5.97,22.02,8.91,33.05c24.37,91.42,48.74,182.89,73.11,274.31
			c14.02-14.87,22.97-33.32,35.31-49.28C465.71,376.84,466.08,371.14,464.22,364.18z M378.41,128.39
			c3.57,16.28-10.04,25.28-16.46,37.53C357.84,149.6,372.67,140.96,378.41,128.39z M368.46,190.65
			c-7.91-25.9,16.1-38.79,24.33-58.32C400.79,158.14,376.28,170.94,368.46,190.65z"/>
		<path class="st3" d="M302.68,386.74c0.04,6.74-1.9,11.67-7.06,16.05c-16.14,13.61-31.96,27.49-47.92,41.28
			c-0.09-104.89-0.23-209.79-0.41-314.68c0-4.93,3.62-12.07-5.11-14.24c11.8-16.55,31.33-25.37,42.59-42.5
			c2.04-0.86,4.07-1.72,6.1-2.58c9.45-3.89,13.21-1.04,11.44,9.27c-0.67,3.84-0.27,7.91-0.36,11.84
			c-8.05,13.34-16.05,26.72-24.01,40.15c-12.75,12.03-17.04,24.96-11.84,43.27c13.47,47.02,27.26,94.05,36.8,142.15
			C302.77,340.08,302.45,363.41,302.68,386.74z"/>
		<path class="st6" d="M141.9,71.61c-0.92-0.08-1.82-0.13-2.72-0.16c6.15,0.8,12.32,0.89,18.49,0.57
			C152.13,72.11,146.99,72.09,141.9,71.61z"/>
		<path class="st6" d="M117.53,70.75c-16.05,14.92-34.32,27.35-48.65,44.17l5.79,0.77c12.21-10.85,24.78-21.25,36.44-32.6
			c8.16-7.95,16.98-11.98,28.07-11.64c-4.35-0.57-8.69-1.49-13.02-2.87C122.91,67.54,119.79,68.62,117.53,70.75z"/>
		<path class="st3" d="M189.82,104.79l-9.13,9.59c-14.87,8.36-21.66,19.48-21.43,38.11c1.04,90.52,0.36,181.04,0.32,271.55
			l-23.74,19.22c-0.14-104.99-0.27-209.93-0.5-314.91c0-4.88,3.39-12.3-6.1-13.16c12.61-15.46,30.43-25.81,44.26-43.4
			c-5.74,0-10.94,0.16-15.83,0.23c7.16-0.37,14.33-1.29,21.48-2.31c7.51-1.09,10.63,0.86,10.36,8.72
			C189.19,87.2,189.69,96.02,189.82,104.79z"/>
	</g>
	<path class="st7" d="M180.69,114.38l9.04-9.59c11.76-9.86,23.47-19.76,35.22-29.66c5.34-4.52,9.09-6.78,17.95-4.16
		c12.98,3.84,27.81,1.4,41.82,1.63c-11.21,17.14-30.74,25.95-42.55,42.5c-18.63,22.38-43.77,15.55-68.09,16.23
		c1.36-6.47,6.24-8.41,9.36-11.71C187.97,114.92,183.09,115.37,180.69,114.38z"/>
	<path class="st7" d="M367.42,64.91l-32.24,52.76c-11.8,26.45-36.94,27.13-60.9,32.96c1.49-8.64,6.96-13.07,9.81-18.94
		c13.25-18.49,23.28-39.2,38.48-56.34L367.42,64.91z"/>
	<path class="st8" d="M322.61,75.36c-15.19,17.14-25.23,37.84-38.48,56.34l-6.19-0.36c8-13.38,15.96-26.81,23.96-40.19
		c4.39-3.07,6.74-7.69,9.59-11.98C314.2,75.04,317.01,71.11,322.61,75.36z"/>
	<path class="st7" d="M74.62,115.69c12.21-10.85,24.78-21.25,36.44-32.6c8.82-8.59,18.4-12.61,30.79-11.48
		c9.59,0.9,19.31,0.18,31.6,0.18c-13.84,17.63-31.65,27.99-44.26,43.4c-18.36,22.11-43.5,15.73-69.04,15.82L74.62,115.69z"/>
	<path class="st7" d="M368.46,190.65c-7.91-25.91,16.1-38.79,24.32-58.32C400.83,158.19,376.33,170.94,368.46,190.65z"/>
	<path class="st9" d="M378.41,128.39c3.53,16.28-10.08,25.27-16.46,37.53C357.84,149.6,372.71,140.96,378.41,128.39z"/>
</g>
</svg>
