<?xml version="1.0" encoding="utf-8"?>
<!-- Generator: Adobe Illustrator 23.0.1, SVG Export Plug-In . SVG Version: 6.00 Build 0)  -->
<svg version="1.1" id="Layer_1" xmlns="http://www.w3.org/2000/svg" xmlns:xlink="http://www.w3.org/1999/xlink" x="0px" y="0px"
	 viewBox="0 0 500 500" style="enable-background:new 0 0 500 500;" xml:space="preserve">
<style type="text/css">
	.st0{fill:#8C0228;}
	.st1{fill:#397000;}
</style>
<g>
	<g>
		<path class="st0" d="M464.1,250.4"/>
	</g>
</g>
<g>
	<path class="st1" d="M15.4,71.1c0-6,0-11.2,0-16.7c25.6,0,51.1,0,77.2,0c1.5,5,3,10.3,4.5,15.5c2.1,7.6,4.4,15.2,6.3,23
		c0.9,3.5,2.5,4.6,6.1,4.6c59.9-0.1,119.8,0,179.7,0.1c58.8,0.1,117.5,0.2,176.3,0.2c6.2,0,12.4,0,19.3,0
		c-3.6,12.5-6.9,24.1-10.2,35.7c-15.7,54.9-31.4,109.8-47,164.8c-1,3.5-2.8,3.7-5.8,3.7c-84.1-0.1-168.3-0.2-252.5-0.2
		c-1.8,0-3.6,0-6.1,0c1.2,5,2.2,9.7,3.4,14.2c2.2,7.9,4.8,15.6,6.9,23.6c0.9,3.2,2.2,4.2,5.5,4.2c58.3-0.1,116.6,0,175,0.1
		c20.6,0,41.2,0.1,61.7,0.1c0.7,0,1.4,0.1,2.8,0.2c-1.1,5.3-1.9,10.4-3.2,15.4c-0.2,0.8-2.7,1.5-4.2,1.5c-17.2,0.1-34.3,0-51.5,0
		c-64.1-0.1-128.3-0.2-192.4-0.2c-4,0-5.5-1.1-6.6-5C134.2,262.4,107.5,169.3,81,76c-1.1-3.9-2.6-5.1-6.6-5c-18,0.2-36,0-54.1,0
		C18.8,71.1,17.2,71.1,15.4,71.1z M387.1,153.2c0.9,0.3,1.3,0.5,1.7,0.5c20.3,0,40.6,0.1,60.9-0.1c1.1,0,2.8-1.6,3.2-2.8
		c2.7-8.7,5.1-17.4,7.5-26.1c0.9-3.1,1.7-6.2,2.5-9.2c-0.7-0.3-1-0.5-1.3-0.5c-22.7-0.1-45.4-0.2-68.1-0.1c-1,0-2.6,1.5-2.8,2.6
		c-0.7,3.6-0.9,7.3-1.3,11C388.6,136.6,387.8,144.9,387.1,153.2z M185.4,153.7c-1.3-13.4-2.6-26.3-3.9-39c-24.3,0-47.9,0-71.9,0
		c3.4,11.8,6.8,23.2,9.8,34.7c0.9,3.3,2.1,4.5,5.7,4.4c18.6-0.2,37.2-0.1,55.7-0.1C182.3,153.7,183.7,153.7,185.4,153.7z M195,153.4
		c19.6,0,38.8,0,58.1,0c0-13,0-25.7,0-38.7c-20.6,0-41,0-61.9,0C192.5,127.7,193.7,140.3,195,153.4z M381.1,114.8
		c-21,0-41.4,0-61.8,0c0,13.1,0,25.9,0,38.8c19.5,0,38.5,0,58,0C378.6,140.7,379.8,128.1,381.1,114.8z M382.6,198.6
		c18.7,0,36.7,0,54.7-0.1c0.9,0,2.2-0.9,2.4-1.7c3.3-11.1,6.4-22.3,9.6-33.3c-0.4-0.3-0.6-0.5-0.7-0.5c-20.1-0.1-40.2-0.2-60.4-0.2
		c-0.8,0-2.3,1.3-2.3,2.1C384.7,176,383.7,187,382.6,198.6z M189.8,198.3c-1.2-12-2.4-23.6-3.5-35.3c-21.2,0-41.8,0-62.9,0
		c3.1,10.8,6.3,21.2,9,31.7c0.8,3.1,2.2,4,5.2,3.9c16-0.1,32.1,0,48.1-0.1C186.9,198.6,188.2,198.4,189.8,198.3z M319.2,162.7
		c-0.2,1.3-0.3,1.9-0.3,2.6c-0.2,10-0.4,20-0.7,30c-0.1,3.2,1.6,3.3,4,3.3c15.9,0,31.7,0,47.6,0c1,0,1.9-0.2,3.1-0.4
		c1.1-11.8,2.3-23.4,3.5-35.5C357.1,162.7,338.4,162.7,319.2,162.7z M196,163c1.1,11,2.2,21.4,3.1,31.9c0.2,2.9,1.2,3.8,4.1,3.8
		c13.3-0.1,26.7-0.1,40-0.1c3.2,0,6.5,0,10,0c0-12.1,0-23.8,0-35.6C234,163,215.2,163,196,163z M378.2,242.5
		c0.6,0.5,0.7,0.6,0.8,0.6c15.2,0.1,30.3,0.2,45.4,0.1c1,0,2.5-1.6,2.9-2.8c1.9-5.8,3.4-11.7,5.1-17.5c1.4-5,2.8-10,4.2-15.2
		c-18.6,0-36.6,0-55,0C380.5,219.5,379.3,231,378.2,242.5z M253.2,207.7c-17.7,0-34.9,0-52.6,0c0.1,1.8,0.1,3.3,0.2,4.9
		c0.8,8.9,1.8,17.8,2.5,26.7c0.2,3.2,1.3,4.3,4.6,4.3c13.7-0.2,27.5-0.1,41.3-0.1c1.2,0,2.5-0.2,3.9-0.3
		C253.2,231.2,253.2,219.7,253.2,207.7z M136.1,207.6c3.1,11,6.3,21.5,9.1,32.1c0.8,3,2.2,3.7,5,3.7c13.3-0.1,26.7,0,40-0.1
		c1.2,0,2.4-0.2,4-0.4c-1.2-12-2.4-23.7-3.5-35.4C172.3,207.6,154.5,207.6,136.1,207.6z M371.9,207.7c-17.8,0-35.1,0-52.7,0
		c0,12,0,23.6,0,35.7c15.9,0,31.4,0,47-0.1c0.9,0,2.3-1.8,2.4-2.9c0.7-4.9,1.1-9.8,1.6-14.8C370.8,219.7,371.3,213.8,371.9,207.7z
		 M309,114.8c-15.6,0-30.7,0-45.8,0c0,13,0,25.7,0,38.5c15.4,0,30.6,0,45.8,0C309,140.4,309,127.8,309,114.8z M263.3,163
		c0,12.1,0,23.6,0,35.9c14.7,0,29.1,0,43.5,0c2.9,0,3.1-1.9,3-4c-0.2-3.4-0.4-6.8-0.5-10.2c-0.1-7.2,0-14.4,0-21.8
		C293.6,163,278.6,163,263.3,163z M308.9,207.5c-15.6,0-30.6,0-45.7,0c0,12.2,0,23.9,0,35.5c15.4,0,30.5,0,45.7,0
		C308.9,231,308.9,219.3,308.9,207.5z M253.1,252.6c-16.2,0-32,0-48.3,0c1,10.2,1.9,20.1,3.1,29.9c0.1,0.8,2.1,2,3.3,2
		c5.7,0.2,11.3,0.1,17,0.1c8.2,0,16.4,0,24.9,0C253.1,273.9,253.1,263.4,253.1,252.6z M319.3,252.6c0,11,0,21.4,0,31.9
		c15.2,0,30,0,45.1,0c1-10.7,2.1-21.2,3.1-31.9C351.1,252.6,335.3,252.6,319.3,252.6z M263.2,252.5c0,10.8,0,21.2,0,31.9
		c15.3,0,30.4,0,45.7,0c0-10.7,0-21.2,0-31.9C293.6,252.5,278.6,252.5,263.2,252.5z M423.9,252.7c-16,0-31.3,0-46.7,0
		c-1,10.8-2,21.3-3.1,32.2c13.3,0,25.9,0,38.5-0.1c0.9,0,2.3-0.9,2.5-1.6C418.1,273.1,420.9,263,423.9,252.7z M195.1,252.5
		c-15.7,0-30.7,0-46.2,0c2.9,10.3,5.7,20.4,8.8,30.4c0.3,0.9,2.5,1.6,3.8,1.6c7.7,0.2,15.3,0.1,23,0.1c4.5,0,9,0,13.9,0
		C197.2,273.6,196.2,263.2,195.1,252.5z"/>
	<path class="st1" d="M347.7,368.9c21.4,0,38.4,17,38.5,38.3c0.1,21.1-17.3,38.5-38.4,38.5c-21.2,0-38.4-17.2-38.5-38.4
		C309.2,386.1,326.4,368.9,347.7,368.9z M347.8,420.4c7.4,0,13.3-6,13.2-13.3c-0.1-7-6-13-13-13.2c-7.2-0.1-13.3,5.9-13.4,13.2
		C334.5,414.4,340.4,420.4,347.8,420.4z"/>
	<path class="st1" d="M227.3,368.9c21.2,0,38.4,17.2,38.3,38.5c-0.1,21.2-17.3,38.4-38.5,38.3c-21.2-0.1-38.3-17.3-38.2-38.5
		C188.9,385.7,205.9,368.8,227.3,368.9z M227.2,420.4c7.4,0,13.2-5.9,13.1-13.3c-0.1-7.2-5.9-13-13-13.1c-7.2-0.1-13.4,6-13.5,13.2
		C213.8,414.3,219.9,420.4,227.2,420.4z"/>
</g>
</svg>
