<?xml version="1.0" encoding="utf-8"?>
<!-- Generator: Adobe Illustrator 23.0.1, SVG Export Plug-In . SVG Version: 6.00 Build 0)  -->
<svg version="1.1" id="Layer_1" xmlns="http://www.w3.org/2000/svg" xmlns:xlink="http://www.w3.org/1999/xlink" x="0px" y="0px"
	 viewBox="0 0 500 500" style="enable-background:new 0 0 500 500;" xml:space="preserve">
<style type="text/css">
	.st0{fill:#1A2F05;}
	.st1{fill:#FFFFFF;}
	.st2{fill:#355E09;}
	.st3{fill:#FF1900;}
	.st4{fill:#00A99D;}
</style>
<g>
	<path class="st0" d="M42.8,285.6c0.2-4.7,0.8-9.5,0.6-14.2c-0.9-18.4,2.1-36.2,7.8-53.7c4.4-13.5,7.8-27.3,11.7-41
		c2.4-8.6,8-14,16.8-15.8c8.7-1.8,17.4-3.2,26.5-4.8c1.1,6.8,2.2,13.2,3.3,19.7c1.4,8.5,2.6,17,4.2,25.5c0.5,2.6,1.6,5.2,3.1,7.4
		c4.7,7.1,9.7,13.9,14.9,21.4c-5.9,1.3-11.4,2.6-16.8,3.8c0,2.1-0.1,3.8,0,5.5c1.4,19,2.3,38.1,4.6,57c1.5,11.9,5.2,23.6,8.1,35.3
		c0.5,2.2,0.7,3.5-1.6,4.8c-4.1,2.5-5.1,6.8-5.1,11.4c0.1,27.1,0,54.2,0.1,81.3c0,13.2-0.3,26.5,0.1,39.7c0.4,12-2.8,21.7-17.5,26.4
		c-2.8,0-5.5,0-8.2,0c-0.4-0.3-0.8-0.6-1.2-0.7c-10.2-3.4-15.8-10.8-15.8-21.5c-0.1-44.1,0-88.1-0.1-132.2c0-2.3,0.7-3.5,2.7-4.7
		c9.3-5.6,15.2-13.8,16.1-24.7c0.8-9.4,0.6-19,0.8-28.4c0.2-12.4,0.5-24.7,0.6-37.1c0-6.1-1.8-11.6-5.7-17.2
		c-3,11.2-6.7,21.3-6.4,32.5c0.3,15.6-0.3,31.2-0.7,46.8c-0.4,15.7-15.7,25.4-30.1,19.1c-6.8-3-10.3-8.7-12.6-15.4
		C42.8,303.1,42.8,294.3,42.8,285.6z"/>
	<path class="st0" d="M386.8,495.4c-3.1-1.5-6.5-2.6-9.3-4.6c-5.9-4.4-8.4-10.6-8.3-17.9c0.1-12,0.1-24,0.1-36
		c0-29.8,0-59.7,0.1-89.5c0-4.8-1.6-8.7-5.8-11.5c-0.7-0.5-1.4-2.1-1.1-2.9c8.7-26.7,11.8-54.3,12.3-82.2c0.1-5.5,0.7-10.9,1.1-16.8
		c-5.7-1.3-11.2-2.5-17.2-3.9c4.9-7,9.3-13.6,14.1-19.9c2.6-3.4,3.8-7.1,4.4-11.3c2.2-14.1,4.5-28.3,7-43.1
		c10.5,2.1,20.8,4.1,30.9,6.4c2.2,0.5,4.5,2.1,5.9,3.8c2.5,3.2,5.2,6.6,6.3,10.4c6.3,21.1,12.4,42.4,17.9,63.7
		c1.6,6.4,1.3,13.4,1.6,20.1c0.3,8.5,0.2,17,0.4,25.5c0,1.7,0.3,3.5,0.5,5.2c0,6.8,0,13.5,0,20.2c-0.3,0.7-0.5,1.4-0.8,2.1
		c-3.4,10.8-13.2,17.3-23.7,15.7c-10.7-1.6-18.1-10.4-18.3-21.7c-0.3-16.8-0.1-33.7-1.1-50.5c-0.6-9.1-3.3-18.1-5.1-27.2
		c-0.5,0-1,0.1-1.5,0.1c-3.7,5.6-5.4,11.7-5.3,18.5c0.4,20,0.6,39.9,1,59.9c0.3,12.5,6,22,16.6,28.4c1.9,1.1,2.5,2.3,2.5,4.4
		c-0.1,44.1-0.1,88.1-0.1,132.2c0,7.3-2.4,13.6-8.3,18c-2.7,2-6.2,3.1-9.3,4.6C391.8,495.4,389.3,495.4,386.8,495.4z"/>
	<path class="st1" d="M42.8,311.8c2.3,6.7,5.8,12.4,12.6,15.4c14.4,6.2,29.6-3.4,30.1-19.1c0.4-15.6,1.1-31.2,0.7-46.8
		c-0.3-11.2,3.5-21.3,6.4-32.5c3.9,5.6,5.8,11.1,5.7,17.2c-0.1,12.4-0.4,24.7-0.6,37.1c-0.2,9.5,0,19-0.8,28.4
		c-0.9,10.9-6.8,19.1-16.1,24.7c-2,1.2-2.7,2.4-2.7,4.7c0.1,44.1,0,88.1,0.1,132.2c0,10.7,5.6,18.1,15.8,21.5
		c0.4,0.1,0.8,0.5,1.2,0.7c-17.5,0-35,0-52.5,0C42.8,434.2,42.8,373,42.8,311.8z"/>
	<path class="st2" d="M250.4,36.8c3,0.8,6,1.5,8.9,2.6c18.5,6.9,29.6,26.3,26.1,45.4c-3.6,19.7-20.4,33.7-40.4,33.8
		c-19.7,0-36.6-14.1-40.2-33.5c-4-21.8,10.4-43,32.3-47.5c0.9-0.2,1.9-0.5,2.8-0.8C243.4,36.8,246.9,36.8,250.4,36.8z"/>
	<path class="st0" d="M320.8,495.4c-2.4-1-4.8-1.9-7.6-3c6.4-9.6,6.1-19.9,6-30.3c-0.1-16.8,0-33.7,0-50.5c0-1.4,0.1-3.2,0.9-4.2
		c8.5-11.2,17-22.3,25.4-33.2c0,0.3,0.1,1.4,0.1,2.5c0,32.1,0,64.1,0,96.2c0,11.4-5.4,18.6-16.5,22c-0.3,0.1-0.6,0.4-0.9,0.6
		C325.8,495.4,323.3,495.4,320.8,495.4z"/>
	<path class="st0" d="M161.9,495.4c-3.9-2.2-8.1-3.9-11.5-6.6c-4.2-3.5-6-8.5-6-14c0-33.3,0-66.7,0-100c0-0.5,0.1-0.9,0.3-2
		c1,1.5,1.7,2.7,2.5,3.7c7.2,9.9,14.5,19.7,21.6,29.6c1.1,1.6,2.1,3.7,2.1,5.6c0.2,17.9,0.1,35.7,0.1,53.5c0,4.6-0.1,9.3,0.8,13.8
		c0.8,4.5,2.7,8.8,4.3,13.7c-1.9,0.8-4.3,1.8-6.6,2.8C166.9,495.4,164.4,495.4,161.9,495.4z"/>
	<path class="st2" d="M276.6,495.4c-6.5-2.2-12.6-5.1-15.7-11.7c-1.5-3.3-2.7-7-3-10.6c-0.5-6-0.2-12-0.1-18c0-1.2,0.8-3,1.8-3.5
		c15.6-7.5,30.1-16.6,43.8-28.2c0.1,1.6,0.3,2.6,0.3,3.6c0,14.6,0,29.2,0,43.8c0,12.5-6,20.3-18,23.9c-0.3,0.1-0.6,0.4-0.9,0.6
		C282.1,495.4,279.3,495.4,276.6,495.4z"/>
	<path class="st2" d="M205.4,495.4c-5.5-1.9-11-3.9-14.1-9.1c-2-3.2-4.3-6.9-4.4-10.5c-0.4-17.2-0.2-34.4-0.2-52
		c0.9,0.5,1.6,0.8,2.3,1.3c12.5,10.3,26.1,18.8,40.7,25.8c2.1,1,2.9,2.1,2.9,4.5c-0.2,5.5,0,11-0.1,16.5
		c-0.1,11.3-6.5,19.6-17.5,22.8c-0.4,0.1-0.8,0.5-1.3,0.7C210.9,495.4,208.1,495.4,205.4,495.4z"/>
	<path class="st3" d="M359.2,246.1c0,21.9-1.3,43.4-6.2,64.6c-9.2,39.5-27.5,73.7-58.5,100.4c-14.1,12.1-29.9,21.7-47,29
		c-1.4,0.6-3.7,0.5-5.2-0.2c-56.9-25.1-90.9-68.9-105-128.9c-4.8-20.4-6.3-41.2-6.2-62.1c0-2.3,1-2.9,3-3.3
		c22.7-4.7,43.9-13.2,63.6-25.4c16.3-10,31.6-21.5,44.9-35.3c0.7-0.7,1.4-1.4,2.4-2.3C277,214.4,313.9,237.5,359.2,246.1z
		 M244.5,211.5c-0.5,0.4-1.3,1-2,1.6c-26.2,22.1-55.1,39.1-88.2,48.5c-2.2,0.6-2.5,1.8-2.4,3.8c0.8,19.8,3.9,39.2,10.2,58.1
		c14,42.3,40.5,74,80.6,94c1.3,0.6,3.4,0.7,4.8,0c21.1-10.3,39.2-24.4,53.6-42.9c25-32.1,35.5-69.3,37.3-109.4
		c0.1-2.2-0.7-3-2.7-3.6c-20.6-5.8-39.8-14.6-57.7-26.3C266.6,227.9,255.9,219.7,244.5,211.5z"/>
	<path class="st0" d="M170.5,108.3c0.1,21-16.8,38-37.7,38c-21,0-38.2-16.9-38.1-37.7c0-21,16.9-38,37.8-38.1
		C153.4,70.4,170.5,87.4,170.5,108.3z"/>
	<path class="st0" d="M395.3,108.3c0.2,20.6-16.5,37.7-37,37.9c-21.3,0.3-38.4-16.2-38.8-37.4c-0.4-20.7,16.7-38.2,37.5-38.4
		C378.2,70.3,395.1,87,395.3,108.3z"/>
	<path class="st2" d="M340.8,225.9c-6-2.3-11.4-4.2-16.6-6.4c-20.8-9.2-39.6-21.6-56.7-36.7c-1-0.9-2-2.8-1.8-4
		c2.5-15.9,5.1-31.8,7.7-47.7c0.1-0.5,0.3-0.9,0.5-1.8c7,1.2,13.9,2.9,20.9,3.6c16,1.4,24.2,9.9,27.8,25.5
		c4.9,20.9,11.4,41.4,17.1,62C340.1,221.8,340.3,223.4,340.8,225.9z"/>
	<path class="st2" d="M216.4,129.2c2.8,17.1,5.5,33.6,8.1,50.1c0.1,0.9-0.5,2.2-1.2,2.8c-21.1,18.8-44.6,33.5-71.4,42.8
		c-0.7,0.2-1.4,0.3-2.6,0.5c0.3-1.9,0.5-3.5,0.9-5c6.4-23,12.7-46.1,19.3-69.1c2.7-9.6,9.2-15.4,19.2-17.1
		C197.9,132.5,207,130.9,216.4,129.2z"/>
	<path class="st0" d="M357.4,221.7c-1.3-2.7-2.1-4.5-3-6.4c-0.3-0.6-0.3-1.2-0.6-1.8c-6.4-14-4.3-28.5-2-42.8
		c0.6-4.1-0.7-7.3-2.1-10.7c-1.3-3,0.1-5.1,3.3-5.1c3,0,6,0,8.9,0c2.7,0,4.9,2.1,3.6,4.1c-4.9,7.6-1.5,15.5-1,23.3
		c0.5,7.1,1.8,14.1,2.5,21.1c0.2,1.7-0.4,3.7-1.2,5.2C363.4,212.7,360.6,216.7,357.4,221.7z"/>
	<path class="st0" d="M133,221.7c-3.6-5.4-6.9-9.8-9.6-14.6c-0.8-1.5-0.4-3.9-0.2-5.8c1.1-9.7,2.1-19.4,3.5-29
		c0.7-4.4,0.2-8.3-1.8-12.2c-1.7-3.3,0.1-5.3,3.8-5.1c2.5,0.1,5,0.2,7.5,0c4.1-0.2,5.8,1.7,4,5.3c-1.9,3.8-2.5,7.6-1.7,11.9
		c1,5.5,1.6,11.1,1.9,16.7c0.2,4-0.1,8.1-0.8,12.1c-1,5-2.6,9.9-4,14.8C135.1,217.5,134.1,219.1,133,221.7z"/>
	<path class="st2" d="M236,168.6c0.8-6.4,1.3-12.8,2.4-19.1c1.1-6.6,1-12.8-2.9-18.3c1.6-3.1,3.7-3.8,6.7-3.2
		c2.3,0.4,4.7,0.1,7.1-0.1c3.8-0.3,6,2.1,4.1,5.2c-3.9,6.4-1.9,13-1.2,19.6c0.5,5.3,1.3,10.6,2,16.9c-3.2-3.7-5.7-6.5-8.6-9.9
		c-3.2,3.8-5.7,6.7-8.2,9.6C237,169.1,236.5,168.9,236,168.6z"/>
	<path class="st4" d="M244.9,221.8c0,62.9,0,125.1,0,187.8c-1.3-0.6-2.3-1-3.2-1.5c-41.9-22.7-66.3-58.4-76.7-104.1
		c-2.4-10.8-3.2-21.9-4.9-32.9c-0.3-2,0.3-2.9,2.3-3.5c29.7-9.5,56.3-24.9,80.5-44.4C243.4,222.8,243.9,222.5,244.9,221.8z"/>
</g>
</svg>
