<?xml version="1.0" encoding="utf-8"?>
<!-- Generator: Adobe Illustrator 23.0.1, SVG Export Plug-In . SVG Version: 6.00 Build 0)  -->
<svg version="1.1" id="Layer_1" xmlns="http://www.w3.org/2000/svg" xmlns:xlink="http://www.w3.org/1999/xlink" x="0px" y="0px"
	 viewBox="0 0 500 500" style="enable-background:new 0 0 500 500;" xml:space="preserve">
<style type="text/css">
	.st0{fill:#1A2F05;}
	.st1{fill:#FDFDFD;}
	.st2{fill:#69BD13;}
</style>
<g>
	<path class="st0" d="M92,217.8c-6.4-4.7-13.5-6.4-21.5-6.5c-8.2-0.1-13.8,0.7-12.1,11c1,6.5-3.8,5.6-7.8,5.7
		c-16.1,0.5-32.2-1.1-48.3,0.9c0-51.1,0-102.2,0-153.3c12.5-0.2,25-0.4,37.5-0.5c17.8-0.1,17.8,0,19.4,16c4.7,0,9.5,0.3,14.1-0.1
		c6-0.6,12.5,2.3,18-2.5c7.4-6.6,14.9-13,22.4-19.5c4.6-3.6,9.6-6.9,13.8-11c6.9-6.6,14-7.9,23.1-4.8c13.9,4.8,28.3,8.4,42.4,12.6
		c2.8,0.8,6.6,1.2,8,3.2c9.8,13.8,22.4,8.5,34.7,5.6c21.2,3.3,26.4,16.5,21.9,37.1c-2.6,11.8,0.4,25.6-0.2,38.7
		c-0.4,8.4,4.3,17.4-1.1,26c-1.8,2.8-1.1,5.1,0.3,7.1c5.4,7.9,4,16,1.5,24.3c-5.1,5.4-10.2,11.8-18.1,11.7
		c-17.1-0.2-34.6,3.6-52.2-4.1c1.1,6.1-4.8,14.3,6.1,14.8c13,0.5,21,5.7,24.8,18.1c1.3,4.3,3.3,9.4-2.5,11.3
		c-4.9,1.6-10.4,1.5-12.3-5.5c-2.1-7.6-7.6-10.3-15.2-9.9c-6.6,0.3-13.3,0-20,0.1c-7.8,0.2-12.9,3.9-12.8,12
		c0.1,8,5.2,11.9,12.9,12.1c8.1,0.2,16.3-0.2,24.4,0.2c14.9,0.7,26.4,12.4,26.9,27.1c0.5,14-9.9,26.8-24.2,28.5
		c-5.7,0.6-9.1,1.3-8.5,8c0.6,6.3-3.1,8-8.9,8.4c-6.6,0.3-7.5-3.2-6.8-8.2c0.9-6.5-2.1-7.7-8.1-8.2c-9.4-0.8-16.5-6.3-20.8-14.7
		c-2.2-4.4-6.1-10.7-0.4-13.5c4.3-2.2,12.3-4.1,14.6,5.6c1,4.3,5.4,7,10.3,7c8.1,0.1,16.3,0.2,24.4-0.1c7.4-0.3,12.2-4.7,12.2-11.8
		c0-7.6-4.7-12.2-12.8-12.3c-6.7-0.1-13.3,0-20,0c-17.7-0.1-29.9-9.8-31.2-24.8c-1.4-17.1,7.2-27.8,25.6-31.1
		c3.1-0.6,6.6-0.6,5.8-4.7c-2.1-10.3,3.7-13.1,10.9-13c-3.6-18.3,2.5-36.2-1.6-53.7c-0.1-0.6,0.4-1.4,0.8-2
		c6.4-9.4-0.2-16.4-4.7-23.5c-3.1-4.9-6.7-5.5-11.5-1.1c-7.4,6.7-15.9,12.2-23.2,18.9c-4.6,4.1-7.4,2.7-10.6-1
		c-4.2-5.7-2.8-9.7,2.9-13.7c6.4-4.4,12.1-9.7,18.2-14.5c6.1-4.8,11.7-12.5,18.4-13.7c7.9-1.3,11.6,9.2,17.5,14.2
		c6.1,5.1,12.1,5.3,17.9,0.5c6-5,6.5-11.4,2.1-17.8c-9.1-13.2-19.9-22.6-36.3-28c-21.9-7.3-39.1-6.7-54.5,11.8
		C104.1,103,87,110.8,65.7,106.9c-5.9-1.1-7.5,1.7-7.5,7.4c0.3,24.4,0.3,48.8,0,73.3c-0.1,6.2,1.6,8.8,8,8.1
		c12.5-1.4,24.2,0.7,34.4,8.7C100,210.3,95.3,213.6,92,217.8z M42.3,151.9c0-17.4-0.7-34.8,0.2-52.2c0.6-12-7.2-8.2-13-8.5
		c-6-0.3-12-2.1-11.7,8.6c0.8,32.6,0.2,65.1,0.3,97.7c0.1,15.8-3.4,13.8,14.9,14.4c7.1,0.3,9.6-1.5,9.3-9
		C41.9,185.9,42.3,168.9,42.3,151.9z M219.6,203.9c5.5,0,11.1,0.2,16.6-0.1c4.6-0.3,7.6-3.2,7.9-7.7c0.3-4.7-2.9-8.1-7.2-8.3
		c-11.1-0.5-22.2-0.5-33.2-0.1c-4.3,0.1-7.9,2.9-7.9,7.7c0,5.1,3.1,8.2,8.3,8.4C209.3,204.1,214.5,204,219.6,203.9z M220.2,155.6
		C220.2,155.6,220.2,155.6,220.2,155.6c-5.5,0-11-0.2-16.5,0.1c-4.6,0.2-7.7,3-7.8,7.6c-0.1,4.6,2.7,7.8,7.4,7.9
		c11,0.3,22,0.3,33,0.1c4.7-0.1,7.8-3.1,7.8-7.6c0-5-3.2-8-8.5-8.1C230.4,155.5,225.3,155.6,220.2,155.6z M207.5,141.3
		c10.4,1,18.1,0.2,25.9-1.4c5.1-1,9.4-2,10.7-7.5c0.8-3.6-1-6.8-4.3-8c-5.5-2.1-12.2-4.1-16.1,1.1C219.4,131,213.9,135,207.5,141.3z
		 M220.4,91.1c2,4.4,3.6,8.4,5.4,12.3c2.9,6.2,8.4,3.4,12.6,2.8c3.9-0.6,6.4-4,5.7-8.2c-0.8-4.4-3.8-7-8.6-6.9
		C230.6,91.2,225.8,91.1,220.4,91.1z"/>
	<path class="st0" d="M446.7,502.2c-2.5-7.1,3.5-17.7-3.4-21.2c-5.1-2.6-14,2.1-21.3,3.5c-16.9,3.4-34,0.5-50.9,1.7
		c-47.8,3.3-94.3-5-140.4-16c-17.7-4.2-33.2-14-48.9-22.9c-10.5-5.9-12.7-19.2-7.1-29.8c5.4-10.1,18.6-14.5,29.8-9.9
		c6,2.4,10.3,7.7,17.2,8.8c1.3-1.8,0.1-4-0.5-6.5c-3-11.8,2.6-23.2,13.2-27.1c11.4-4.2,23.1,0.7,28.6,12.3c3,6.3,6,12.7,8,19.4
		c2.6,8.8,6.8,12.2,15.8,8.1c2.7-1.2,5.9-1.1,10.7-1.9c-6.5-3.7-11.6-6.4-16.5-9.4c-11.1-6.9-15.2-19-10.4-30.6
		c4.7-11.4,14.9-17.4,27.6-13.6c30.2,9.1,61.5,15.2,87.4,35.2c3.5,2.7,8.3,3.6,13.3,3.5c12.6-0.4,25.2-0.6,37.8,0
		c8.2,0.4,10.8-2.9,9.5-10.3c-2-11.5,2.4-15.3,14-14.3c14,1.2,28.1,0.7,42.1,0.9c0,37.8-0.1,75.6,0.1,113.3c0,5.6-1.2,7-6.8,6.8
		C479.3,502,463,502.2,446.7,502.2z M365.4,470.1c8.1,0,16.3,0.1,24.4,0c8.1-0.1,16.2-0.4,24.4-0.5c27.7-0.3,31.9-4.4,31.9-31
		c0-3-0.3-6,0.1-8.9c0.8-6.4-1.7-8.3-8-8.2c-14.4,0.4-28.8,0-43.3,0.2c-4.5,0-8.8-0.1-12.5-3.2c-24.5-19.9-55.6-24.6-83.8-36
		c-5.2-2.1-10.6-1.7-13.2,4.3c-2.5,5.9,0.5,9.5,5.9,12.2c10.5,5.3,20.9,10.9,31.2,16.6c2.6,1.5,7,1.7,6.5,6.3
		c-0.3,3.7-3.9,4-6.3,5.5c-12.9,7.9-26.4,11.5-41.9,10.6c-27.9-1.6-57.1,5-81.6-15c-2.9-2.4-7.3-2-9.8,1.7c-2.9,4.3-1.2,8,2.8,10.3
		c13.3,8,27.1,16.2,41.9,19.5C277.2,464.3,320.4,475.2,365.4,470.1z M462.1,443.3c0,11.8,0.4,23.7-0.1,35.5
		c-0.3,7.3,1.2,11.1,9.5,9.9c6.7-1,15.4,3,15-9.9c-0.6-21.8-0.2-43.6-0.2-65.4c0-16.5,0-16.1-16.5-16.1c-6.6,0-7.9,2.4-7.7,8.3
		C462.4,418.2,462.1,430.8,462.1,443.3z M255.2,417.7c-2.4-5.4-4.8-11.6-7.8-17.5c-1.6-3.1-5-3.1-7.8-1.7c-2.4,1.2-4.1,3.6-3.2,6.4
		c1.7,5.6,3.8,11.1,5.9,16.6c1.6,4.1,4.5,3.1,7,1.1C251.1,421,255.9,423.6,255.2,417.7z"/>
	<path class="st1" d="M113.5,69c-7.5,6.5-15,12.9-22.4,19.5c-5.5,4.8-11.9,2-18,2.5c-4.7,0.4-9.4,0.1-14.1,0.1
		c-1.5-16-1.5-16.1-19.3-16c-12.5,0.1-25,0.3-37.5,0.5c0-22.2,0.2-44.5-0.2-66.7C2,3.3,3.3,2,8.9,2.1c37.8,0.3,75.6,0.2,113.3,0.2
		c-7.5,3.7-14.3,8.4-14.9,17.4C106.2,36.4,105.4,53.3,113.5,69z"/>
	<path class="st2" d="M113.5,69c-8.1-15.7-7.3-32.6-6.1-49.4c0.6-9,7.4-13.8,14.9-17.4c3,0,5.9,0,8.9,0c11.4,4.3,17,12.3,16,24.7
		c-0.3,3.4,0,7.4,4.6,7.2c3.8-0.2,4-3.9,3.7-6.9c-1.2-12.4,4.5-20.4,15.7-25c3,0,5.9,0,8.9,0c11.3,4.5,16.7,12.7,15.8,25
		c-0.2,3-0.1,6.7,3.7,6.9c4.6,0.3,5-3.8,4.6-7.1c-1.2-12.5,4.6-20.4,15.9-24.8c3,0,5.9,0,8.9,0c11.6,5,15.6,14,15.6,26.4
		c0.1,16.1-1.6,31.5-9,46c-12.3,2.8-24.8,8.2-34.7-5.6c-1.4-2-5.2-2.4-8-3.2c-14.1-4.2-28.5-7.8-42.4-12.6
		c-9.1-3.1-16.3-1.8-23.1,4.8C123.1,62.1,118.1,65.4,113.5,69z"/>
	<path class="st1" d="M171.1,2.2c-11.2,4.6-16.9,12.6-15.7,25c0.3,3,0.1,6.7-3.7,6.9c-4.6,0.2-4.9-3.8-4.6-7.2
		c1-12.4-4.6-20.4-16-24.7C144.4,2.2,157.8,2.2,171.1,2.2z"/>
	<path class="st1" d="M220,2.2c-11.3,4.4-17.1,12.2-15.9,24.8c0.3,3.4,0,7.4-4.6,7.1c-3.8-0.2-3.9-3.9-3.7-6.9
		c0.9-12.3-4.5-20.5-15.8-25C193.3,2.2,206.7,2.2,220,2.2z"/>
	<path class="st2" d="M131.3,148.4c3.2,3.7,6,5.1,10.6,1c7.4-6.7,15.8-12.2,23.2-18.9c4.8-4.4,8.4-3.8,11.5,1.1
		c4.5,7.1,11.2,14.1,4.7,23.5c-0.4,0.6-0.9,1.4-0.8,2c4.1,17.4-2,35.4,1.6,53.7c-7.2-0.1-13,2.7-10.9,13c0.8,4.1-2.7,4.1-5.8,4.7
		c-18.4,3.3-27,14-25.6,31.1c1.3,15,13.4,24.7,31.2,24.8c6.7,0,13.3-0.1,20,0c8,0.1,12.8,4.8,12.8,12.3c0,7.1-4.8,11.5-12.2,11.8
		c-8.1,0.3-16.3,0.1-24.4,0.1c-5,0-9.3-2.7-10.3-7c-2.3-9.7-10.3-7.8-14.6-5.6c-5.7,2.9-1.7,9.2,0.4,13.5c4.2,8.5,11.4,14,20.8,14.7
		c5.9,0.5,8.9,1.7,8.1,8.2c-0.7,5,0.2,8.6,6.8,8.2c5.8-0.3,9.5-2,8.9-8.4c-0.6-6.7,2.8-7.4,8.5-8c14.3-1.6,24.8-14.5,24.2-28.5
		c-0.6-14.8-12-26.5-26.9-27.1c-8.1-0.4-16.3,0-24.4-0.2c-7.8-0.2-12.8-4.1-12.9-12.1c-0.1-8.1,5.1-11.9,12.8-12
		c6.6-0.1,13.3,0.2,20-0.1c7.6-0.3,13.1,2.3,15.2,9.9c1.9,7,7.4,7.1,12.3,5.5c5.9-1.9,3.9-6.9,2.5-11.3
		c-3.8-12.4-11.8-17.6-24.8-18.1c-10.9-0.4-5.1-8.7-6.1-14.8c17.6,7.7,35.1,3.9,52.2,4.1c7.9,0.1,13-6.4,18.1-11.7
		c34.4,34.1,35.5,96.9,2.1,135.6c-28.9,33.5-65.9,45-107.8,33.6c-42-11.4-67.7-41.1-75.8-84c-5.1-26.7,1.6-52,15.7-75.3
		c3.3-4.2,8-7.5,8.7-13.4c4.9-0.7,7.4-4.6,10.1-8C122,182.3,128.9,166.3,131.3,148.4z"/>
	<path class="st1" d="M255.2,417.7c0.8,6-4.1,3.3-6,4.9c-2.5,2-5.4,3.1-7-1.1c-2.1-5.5-4.1-11-5.9-16.6c-0.9-2.8,0.8-5.2,3.2-6.4
		c2.8-1.3,6.2-1.4,7.8,1.7C250.4,406.1,252.8,412.3,255.2,417.7z"/>
</g>
</svg>
