<?xml version="1.0" encoding="utf-8"?>
<!-- Generator: Adobe Illustrator 23.0.1, SVG Export Plug-In . SVG Version: 6.00 Build 0)  -->
<svg version="1.1" id="Layer_1" xmlns="http://www.w3.org/2000/svg" xmlns:xlink="http://www.w3.org/1999/xlink" x="0px" y="0px"
	 viewBox="0 0 500 500" style="enable-background:new 0 0 500 500;" xml:space="preserve">
<style type="text/css">
	.st0{fill:#FFFFFF;}
	.st1{fill:#FF7514;}
	.st2{fill:#FF1900;}
	.st3{fill:#002D13;}
	.st4{fill:#5A7302;}
	.st5{fill:#00A99D;}
	.st6{fill:#3F7606;}
	.st7{fill:#F7F9FA;}
	.st8{display:none;fill:#5FDCD1;}
	.st9{display:none;fill:#F7F9FA;}
	.st10{fill:#FBAE17;}
	.st11{fill:none;stroke:#FBAE17;stroke-width:5;stroke-miterlimit:10;}
	.st12{fill:#8C0228;}
	.st13{fill:#FDFDFD;}
	.st14{fill:#E77800;}
</style>
<g>
	<path class="st1" d="M239.58,89.56c-0.1-1.6-0.2-3.1-0.2-4.6c0-20.6,0-41.1,0-61.7c0-6.7,2.5-10.7,7.5-12.1
		c4.2-1.2,7.6,0.9,11.2,6.4c0.6,0.9,2.1,1.7,3.2,1.7c12.1-0.3,23.2,2.8,33.8,8.5c6.9,3.7,13.6,3.1,19.6-2.1c1.1-0.9,2.1-2.2,3.4-2.5
		c3.2-0.6,7.2-2,9.6-0.8c2.4,1.3,4.7,5.3,4.8,8.3c0.5,13.3,0.4,26.7,0,40c-0.1,2.6-1.8,5.7-3.7,7.6c-11.3,11.2-27.7,13.4-43.2,7
		c-5.9-2.4-12.2-3.7-18.4-5.1c-2.6-0.6-5.5-0.1-8.6-0.1c0,3.6,0,6.3,0,9.5C252.18,89.56,245.98,89.56,239.58,89.56z"/>
	<g>
		<path class="st3" d="M468.58,421.56c-146.4,0-292.7,0-439,0c-8.1,0-12.1,4.1-12.1,12.2c0,14.1,0,28.2,0,42.3
			c0.1,9.4,3.7,13,13.1,13c72.8,0,145.5,0,218.3,0c73.1,0,146.1,0,219.2,0.1c8.8,0,12.3-3.4,12.3-12.2c0-14.4,0-28.9,0-43.3
			C480.38,424.76,477.28,421.56,468.58,421.56z"/>
		<path class="st3" d="M352.98,220.66c0-6,0.2-11.6-0.1-17.2c-0.3-4.5-3-7.7-7.3-8.8c-2.6-0.7-3.3-1.8-3.6-4.4
			c-6.1-50.4-55.3-87.7-105.5-80.2c-42.3,6.3-74.1,38-80.6,80.4c-0.3,2.3-0.8,3.6-3.4,4c-4.6,0.8-7.2,4-7.5,8.5
			c-0.4,5.8-0.1,11.6-0.1,17.7C214.48,220.66,283.58,220.66,352.98,220.66z"/>
		<path class="st3" d="M93.18,259.56c2.4,0.1,4.8,0,7.1,0c7.9,0,15.9,0,24.3,0c0,47.5,0,94.5,0,141.6c16.9,0,33.2,0,49.8,0
			c0-53.6,0-106.8,0-160.7c-1.8,0-3.2,0-4.6,0c-24.5,0-48.9,0-73.4,0c-1.3,0-2.6-0.1-3.8,0.1c-4.9,0.6-8.7,5.3-8.5,10.2
			C84.28,255.96,87.78,259.26,93.18,259.56z"/>
		<path class="st3" d="M325.38,240.76c0,53.9,0,107.5,0,161.3c16,0,31.7,0,47.8,0c0-47.4,0-94.6,0-142.5c2.4,0,4.1,0,5.9-0.1
			c8.5,0,16.9,0.1,25.4,0c4.6,0,7.7-2.6,9-6.9c1.2-4.3-0.4-7.9-4-10.2c-1.9-1.2-4.4-1.9-6.6-1.9c-24.8-0.2-49.6-0.1-74.4-0.1
			C327.48,240.36,326.38,240.66,325.38,240.76z"/>
		<path class="st3" d="M392.98,402.06c16,0,31.8,0,48.1,0c0-32.9,0-65.4,0-98.2c3.4,0,6.2,0.1,9,0c5.8-0.3,10-4.6,9.9-9.9
			c-0.1-5.3-4-9.1-9.8-9.2c-8.5-0.1-16.9,0-25.4,0c-10.5,0-21,0-31.8,0C392.98,324.26,392.98,363.06,392.98,402.06z"/>
		<path class="st3" d="M46.88,303.86c3.2,0.1,6.5,0,10.3,0c0,32.9,0,65.1,0,97.3c16.2,0,31.8,0,47.7,0c0-38.8,0-77.4,0-116.3
			c-19.8,0-39.2-0.1-58.6,0.1c-5.2,0-8.6,4.6-8.4,10C38.08,300.26,41.38,303.56,46.88,303.86z"/>
		<path class="st3" d="M217.68,401.16c0-53.6,0-106.9,0-160.4c-8,0-15.8,0-23.4,0c0,53.7,0,106.9,0,160.4
			C202.18,401.16,209.78,401.16,217.68,401.16z"/>
		<path class="st3" d="M261.08,401.16c0-53.7,0-107,0-160.5c-7.9,0-15.5,0-23.3,0c0,53.6,0,107,0,160.5
			C245.58,401.16,253.08,401.16,261.08,401.16z"/>
		<path class="st3" d="M305.48,401.16c0-53.6,0-107,0-160.3c-8.1,0-15.8,0-23.4,0c0,53.6,0,106.9,0,160.3
			C289.98,401.16,297.58,401.16,305.48,401.16z"/>
	</g>
</g>
</svg>
