<?xml version="1.0" encoding="utf-8"?>
<!-- Generator: Adobe Illustrator 23.0.1, SVG Export Plug-In . SVG Version: 6.00 Build 0)  -->
<svg version="1.1" id="Layer_1" xmlns="http://www.w3.org/2000/svg" xmlns:xlink="http://www.w3.org/1999/xlink" x="0px" y="0px"
	 viewBox="0 0 500 500" style="enable-background:new 0 0 500 500;" xml:space="preserve">
<style type="text/css">
	.st0{fill:#397000;}
	.st1{fill:#355E09;}
	.st2{fill:#999999;}
</style>
<g>
	<path class="st0" d="M38,463.3c0-85.7,0-170.4,0-255.9C72.6,242,106.6,276,140.6,310c1.2-0.7,2.4-1.3,3.7-2c0-33,0-66.1,0-101.2
		c35.8,35.8,69.8,69.8,103.7,103.7c1.2-0.7,2.4-1.4,3.5-2.1c0-33.5,0-66.9,0-102.4c35.5,35.6,69.3,69.4,103,103.2
		c1.2-0.5,2.3-1,3.5-1.5c0-33,0-65.9,0-101.7c4.7,3.8,7.1,5.4,9.1,7.4c30.8,30.5,61.7,61,92.3,91.7c3,3,6.2,7.6,6.3,11.5
		c0.4,48.6,0.3,97.2,0.3,146.7C323.3,463.3,181.2,463.3,38,463.3z M222.2,412c20.6,0,39.9,0,58.8,0c0-17.1,0-33.2,0-48.9
		c-20.3,0-39.5,0-58.8,0C222.2,380,222.2,395.7,222.2,412z M118.5,363c-20.4,0-39.7,0-58.7,0c0,17.1,0,33.2,0,49.5
		c19.9,0,38.9,0,58.7,0C118.5,395.9,118.5,379.9,118.5,363z M444.3,362.9c-20.3,0-39.5,0-59.1,0c0,17,0,33.1,0,49.3
		c20.1,0,39.4,0,59.1,0C444.3,395.6,444.3,379.8,444.3,362.9z M141.4,412.3c20.1,0,39.1,0,58.2,0c0-16.9,0-33,0-49.6
		c-19.6,0-38.6,0-58.2,0C141.4,379.4,141.4,395.5,141.4,412.3z M362,412.5c0-17.4,0-33.5,0-49.7c-19.9,0-38.8,0-58,0
		c0,16.9,0,33,0,49.7C323.6,412.5,342.6,412.5,362,412.5z"/>
	<path class="st1" d="M98.3,255c-12.3-12.8-24.7-25.6-36.8-38.6c-1.6-1.8-2.4-4.9-2.4-7.4c-0.2-31.8-0.1-63.6-0.1-96.4
		c14,0,27.5,0,41.9,0c0,46.6,0,93.3,0,140.1C100,253.5,99.2,254.3,98.3,255z"/>
	<path class="st1" d="M161.2,210.9c-8.7-9.9-15.1-17.3-21.4-24.6c-0.9,0.4-1.9,0.8-2.8,1.2c0,33.3,0,66.6,0,102.2
		c-11.7-8.5-18.3-15.7-18-29.4c0.9-48.9,0.3-97.8,0.3-147.7c14.1,0,27.6,0,41.9,0C161.2,143.9,161.2,175.4,161.2,210.9z"/>
	<path class="st2" d="M188.5,46c2.9-2,6.6-2.6,10.1-2c12.4,2.3,25.3-3.8,34,8.2c1,1.4,6.4,0.6,9.2-0.5c7.2-2.9,14.4-2.5,17.1,4.5
		c1.7,4.5,0,12.4-3.3,16.2c-7.5,8.7-16,17-29.7,15.1c-1.9-0.3-4.5,3.4-6.4,5.5c-9,10.3-22.6,13.3-33.7,5.6c-8-5.5-14.3-3-21.3,0.6
		c-0.3,0.2-0.5,0.7-0.9,0.8c-1,0.3-1.8,0.5-2.6,0.8c-7.2,2.3-14.9-2-16.5-9.4c-0.2-1-0.1-1.7,0.5-4.4c0.8-3.2-0.9-7.8,0-11
		c0.8-3,5.1-13.2,7-15C162.8,51.2,177.9,53.4,188.5,46z"/>
</g>
</svg>
