<?xml version="1.0" encoding="utf-8"?>
<!-- Generator: Adobe Illustrator 23.0.1, SVG Export Plug-In . SVG Version: 6.00 Build 0)  -->
<svg version="1.1" id="Layer_1" xmlns="http://www.w3.org/2000/svg" xmlns:xlink="http://www.w3.org/1999/xlink" x="0px" y="0px"
	 viewBox="0 0 500 500" style="enable-background:new 0 0 500 500;" xml:space="preserve">
<style type="text/css">
	.st0{fill:#FFFFFF;}
	.st1{fill:#FF7514;}
	.st2{fill:#FF1900;}
	.st3{fill:#002D13;}
	.st4{fill:#5A7302;}
	.st5{fill:#00A99D;}
	.st6{fill:#3F7606;}
	.st7{fill:#F7F9FA;}
	.st8{display:none;fill:#5FDCD1;}
	.st9{display:none;fill:#F7F9FA;}
	.st10{fill:#FBAE17;}
	.st11{fill:none;stroke:#FBAE17;stroke-width:5;stroke-miterlimit:10;}
	.st12{fill:#8C0228;}
	.st13{fill:#FDFDFD;}
	.st14{fill:#E77800;}
</style>
<g>
	<path class="st0" d="M68.56,295.6c2.3,6.7,5.8,12.4,12.6,15.4c14.4,6.2,29.6-3.4,30.1-19.1c0.4-15.6,1.1-31.2,0.7-46.8
		c-0.3-11.2,3.5-21.3,6.4-32.5c3.9,5.6,5.8,11.1,5.7,17.2c-0.1,12.4-0.4,24.7-0.6,37.1c-0.2,9.5,0,19-0.8,28.4
		c-0.9,10.9-6.8,19.1-16.1,24.7c-2,1.2-2.7,2.4-2.7,4.7c0.1,44.1,0,88.1,0.1,132.2c0,10.7,5.6,18.1,15.8,21.5
		c0.4,0.1,0.8,0.5,1.2,0.7c-17.5,0-35,0-52.5,0C68.56,418,68.56,356.8,68.56,295.6z"/>
	<path class="st1" d="M276.16,20.6c3,0.8,6,1.5,8.9,2.6c18.5,6.9,29.6,26.3,26.1,45.4c-3.6,19.7-20.4,33.7-40.4,33.8
		c-19.7,0-36.6-14.1-40.2-33.5c-4-21.8,10.4-43,32.3-47.5c0.9-0.2,1.9-0.5,2.8-0.8C269.16,20.6,272.66,20.6,276.16,20.6z"/>
	<path class="st2" d="M384.96,229.9c0,21.9-1.3,43.4-6.2,64.6c-9.2,39.5-27.5,73.7-58.5,100.4c-14.1,12.1-29.9,21.7-47,29
		c-1.4,0.6-3.7,0.5-5.2-0.2c-56.9-25.1-90.9-68.9-105-128.9c-4.8-20.4-6.3-41.2-6.2-62.1c0-2.3,1-2.9,3-3.3
		c22.7-4.7,43.9-13.2,63.6-25.4c16.3-10,31.6-21.5,44.9-35.3c0.7-0.7,1.4-1.4,2.4-2.3C302.76,198.2,339.66,221.3,384.96,229.9z
		 M270.26,195.3c-0.5,0.4-1.3,1-2,1.6c-26.2,22.1-55.1,39.1-88.2,48.5c-2.2,0.6-2.5,1.8-2.4,3.8c0.8,19.8,3.9,39.2,10.2,58.1
		c14,42.3,40.5,74,80.6,94c1.3,0.6,3.4,0.7,4.8,0c21.1-10.3,39.2-24.4,53.6-42.9c25-32.1,35.5-69.3,37.3-109.4
		c0.1-2.2-0.7-3-2.7-3.6c-20.6-5.8-39.8-14.6-57.7-26.3C292.36,211.7,281.66,203.5,270.26,195.3z"/>
	<path class="st1" d="M196.26,92.1c0.1,21-16.8,38-37.7,38c-21,0-38.2-16.9-38.1-37.7c0-21,16.9-38,37.8-38.1
		C179.16,54.2,196.26,71.2,196.26,92.1z"/>
	<path class="st1" d="M421.06,92.1c0.2,20.6-16.5,37.7-37,37.9c-21.3,0.3-38.4-16.2-38.8-37.4c-0.4-20.7,16.7-38.2,37.5-38.4
		C403.96,54.1,420.86,70.8,421.06,92.1z"/>
	<g>
		<g>
			<path class="st3" d="M157.46,213.9c-5.2-7.5-10.2-14.3-14.9-21.4c-1.5-2.2-2.6-4.8-3.1-7.4c-1.6-8.5-2.8-17-4.2-25.5
				c-1.1-6.5-2.2-12.9-3.3-19.7c-9.1,1.6-17.8,3-26.5,4.8c-8.8,1.8-14.4,7.2-16.8,15.8c-3.9,13.7-7.3,27.5-11.7,41
				c-5.7,17.5-8.7,35.3-7.8,53.7c0.2,4.7-0.4,9.5-0.6,14.2c0,8.7,0,17.5,0.2,26.2c2.3,6.7,5.8,12.4,12.6,15.4
				c14.4,6.3,29.7-3.4,30.1-19.1c0.4-15.6,1-31.2,0.7-46.8c-0.3-11.2,3.4-21.3,6.4-32.5c3.9,5.6,5.7,11.1,5.7,17.2
				c-0.1,12.4-0.4,24.7-0.6,37.1c-0.2,9.4,0,19-0.8,28.4c-0.9,10.9-6.8,19.1-16.1,24.7c-2,1.2-2.7,2.4-2.7,4.7
				c0.1,44.1,0,88.1,0.1,132.2c0,10.7,5.6,18.1,15.8,21.5c0.4,0.1,0.8,0.4,1.2,0.7c2.7,0,5.4,0,8.2,0c14.7-4.7,17.9-14.4,17.5-26.4
				c-0.4-13.2-0.1-26.5-0.1-39.7c-0.1-27.1,0-54.2-0.1-81.3c0-4.6,1-8.9,5.1-11.4c2.3-1.3,2.1-2.6,1.6-4.8
				c-2.9-11.7-6.6-23.4-8.1-35.3c-2.3-18.9-3.2-38-4.6-57c-0.1-1.7,0-3.4,0-5.5C146.06,216.5,151.56,215.2,157.46,213.9z"/>
			<path class="st3" d="M472.96,269.5c-0.2-8.5-0.1-17-0.4-25.5c-0.3-6.7,0-13.7-1.6-20.1c-5.5-21.3-11.6-42.6-17.9-63.7
				c-1.1-3.8-3.8-7.2-6.3-10.4c-1.4-1.7-3.7-3.3-5.9-3.8c-10.1-2.3-20.4-4.3-30.9-6.4c-2.5,14.8-4.8,29-7,43.1
				c-0.6,4.2-1.8,7.9-4.4,11.3c-4.8,6.3-9.2,12.9-14.1,19.9c6,1.4,11.5,2.6,17.2,3.9c-0.4,5.9-1,11.3-1.1,16.8
				c-0.5,27.9-3.6,55.5-12.3,82.2c-0.3,0.8,0.4,2.4,1.1,2.9c4.2,2.8,5.8,6.7,5.8,11.5c-0.1,29.8-0.1,59.7-0.1,89.5c0,12,0,24-0.1,36
				c-0.1,7.3,2.4,13.5,8.3,17.9c2.8,2,6.2,3.1,9.3,4.6c2.5,0,5,0,7.5,0.2c3.1-1.5,6.6-2.6,9.3-4.6c5.9-4.4,8.3-10.7,8.3-18
				c0-44.1,0-88.1,0.1-132.2c0-2.1-0.6-3.3-2.5-4.4c-10.6-6.4-16.3-15.9-16.6-28.4c-0.4-20-0.6-39.9-1-59.9
				c-0.1-6.8,1.6-12.9,5.3-18.5c0.5,0,1-0.1,1.5-0.1c1.8,9.1,4.5,18.1,5.1,27.2c1,16.8,0.8,33.7,1.1,50.5
				c0.2,11.3,7.6,20.1,18.3,21.7c10.5,1.6,20.3-4.9,23.7-15.7c0.3-0.7,0.5-1.4,0.8-2.1c0-6.7,0-13.4,0-20.2
				C473.26,273,472.96,271.2,472.96,269.5z"/>
			<path class="st3" d="M345.86,391.2c-0.8,1-0.9,2.8-0.9,4.2c0,16.8-0.1,33.7,0,50.5c0.1,10.4,0.4,20.7-6,30.3c2.8,1.1,5.2,2,7.6,3
				c2.5,0,5,0,7.4,0.1c0.3-0.2,0.6-0.5,0.9-0.6c11.1-3.4,16.5-10.6,16.5-22c0-32.1,0-64.1,0-96.2c0-1.1-0.1-2.2-0.1-2.5
				C362.86,368.9,354.36,380,345.86,391.2z"/>
			<path class="st3" d="M196.76,449c0-17.8,0.1-35.6-0.1-53.5c0-1.9-1-4-2.1-5.6c-7.1-9.9-14.4-19.7-21.6-29.6
				c-0.8-1-1.5-2.2-2.5-3.7c-0.2,1.1-0.3,1.5-0.3,2c0,33.3,0,66.7,0,100c0,5.5,1.8,10.5,6,14c3.4,2.7,7.6,4.4,11.5,6.6
				c2.5,0,5,0,7.6,0.1c2.3-1,4.7-2,6.6-2.8c-1.6-4.9-3.5-9.2-4.3-13.7C196.66,458.3,196.76,453.6,196.76,449z"/>
			<path class="st3" d="M285.36,435.4c-1,0.5-1.8,2.3-1.8,3.5c-0.1,6-0.4,12,0.1,18c0.3,3.6,1.5,7.3,3,10.6
				c3.1,6.6,9.2,9.5,15.7,11.7c2.7,0,5.5,0,8.2-0.1c0.3-0.2,0.6-0.5,0.9-0.6c12-3.6,18-11.4,18-23.9c0-14.6,0-29.2,0-43.8
				c0-1-0.2-2-0.3-3.6C315.46,418.8,300.96,427.9,285.36,435.4z"/>
			<path class="st3" d="M255.46,434.7c-14.6-7-28.2-15.5-40.7-25.8c-0.7-0.5-1.4-0.8-2.3-1.3c0,17.6-0.2,34.8,0.2,52
				c0.1,3.6,2.4,7.3,4.4,10.5c3.1,5.2,8.6,7.2,14.1,9.1c2.7,0,5.5,0,8.3,0c0.5-0.2,0.9-0.6,1.3-0.7c11-3.2,17.4-11.5,17.5-22.8
				c0.1-5.5-0.1-11,0.1-16.5C258.36,436.8,257.56,435.7,255.46,434.7z"/>
			<path class="st3" d="M349.96,203.3c5.2,2.2,10.6,4.1,16.6,6.4c-0.5-2.5-0.7-4.1-1.1-5.5c-5.7-20.6-12.2-41.1-17.1-62
				c-3.6-15.6-11.8-24.1-27.8-25.5c-7-0.7-13.9-2.4-20.9-3.6c-0.2,0.9-0.4,1.3-0.5,1.8c-2.6,15.9-5.2,31.8-7.7,47.7
				c-0.2,1.2,0.8,3.1,1.8,4C310.36,181.7,329.16,194.1,349.96,203.3z"/>
			<path class="st3" d="M249.06,165.9c0.7-0.6,1.3-1.9,1.2-2.8c-2.6-16.5-5.3-33-8.1-50.1c-9.4,1.7-18.5,3.3-27.7,5
				c-10,1.7-16.5,7.5-19.2,17.1c-6.6,23-12.9,46.1-19.3,69.1c-0.4,1.5-0.6,3.1-0.9,5c1.2-0.2,1.9-0.3,2.6-0.5
				C204.46,199.4,227.96,184.7,249.06,165.9z"/>
			<path class="st3" d="M392.76,187.2c-0.7-7-2-14-2.5-21.1c-0.5-7.8-3.9-15.7,1-23.3c1.3-2-0.9-4.1-3.6-4.1c-2.9,0-5.9,0-8.9,0
				c-3.2,0-4.6,2.1-3.3,5.1c1.4,3.4,2.7,6.6,2.1,10.7c-2.3,14.3-4.4,28.8,2,42.8c0.3,0.6,0.3,1.2,0.6,1.8c0.9,1.9,1.7,3.7,3,6.4
				c3.2-5,6-9,8.4-13.1C392.36,190.9,392.96,188.9,392.76,187.2z"/>
		</g>
		<path class="st4" d="M158.76,205.5c-3.6-5.4-6.9-9.8-9.6-14.6c-0.8-1.5-0.4-3.9-0.2-5.8c1.1-9.7,2.1-19.4,3.5-29
			c0.7-4.4,0.2-8.3-1.8-12.2c-1.7-3.3,0.1-5.3,3.8-5.1c2.5,0.1,5,0.2,7.5,0c4.1-0.2,5.8,1.7,4,5.3c-1.9,3.8-2.5,7.6-1.7,11.9
			c1,5.5,1.6,11.1,1.9,16.7c0.2,4-0.1,8.1-0.8,12.1c-1,5-2.6,9.9-4,14.8C160.86,201.3,159.86,202.9,158.76,205.5z"/>
		<path class="st4" d="M261.76,152.4c0.8-6.4,1.3-12.8,2.4-19.1c1.1-6.6,1-12.8-2.9-18.3c1.6-3.1,3.7-3.8,6.7-3.2
			c2.3,0.4,4.7,0.1,7.1-0.1c3.8-0.3,6,2.1,4.1,5.2c-3.9,6.4-1.9,13-1.2,19.6c0.5,5.3,1.3,10.6,2,16.9c-3.2-3.7-5.7-6.5-8.6-9.9
			c-3.2,3.8-5.7,6.7-8.2,9.6C262.76,152.9,262.26,152.7,261.76,152.4z"/>
	</g>
	<path class="st5" d="M270.66,205.6c0,62.9,0,125.1,0,187.8c-1.3-0.6-2.3-1-3.2-1.5c-41.9-22.7-66.3-58.4-76.7-104.1
		c-2.4-10.8-3.2-21.9-4.9-32.9c-0.3-2,0.3-2.9,2.3-3.5c29.7-9.5,56.3-24.9,80.5-44.4C269.16,206.6,269.66,206.3,270.66,205.6z"/>
</g>
<g>
	<path class="st1" d="M651.54,443.3c-9.95,13.29-22.29,19.94-39.7,17.68c-12.16-1.58-24.73-0.63-37.07-0.18
		c-7.51,0.23-11.17-1.49-11.17-10.13c0.23-104.26,0.09-208.57,0.18-312.83c0-13.61,12.43-16.55,20.8-22.88l5.79,0.77l-14.47,15.37
		c25.59-0.09,50.68,6.28,69.04-15.82c9.49,0.86,6.1,8.27,6.1,13.16C651.36,233.33,651.5,338.32,651.54,443.3z"/>
	<path class="st1" d="M767.7,444.07c-10.49,13.79-24.19,18.99-41.42,16.77c-7.82-0.99-15.87-0.18-23.78-0.18
		c-22.7,0-22.7,0-22.74-22.06c0-4.84-0.14-9.72-0.18-14.56c0.05-90.52,0.77-181.08-0.32-271.55c-0.23-18.63,6.56-29.75,21.43-38.07
		c2.4,0.99,7.23,0.54,2.71,5.24c-3.16,3.3-8,5.24-9.36,11.71c24.32-0.68,49.46,6.1,68.09-16.23c8.77,2.17,5.11,9.31,5.11,14.24
		C767.56,234.28,767.7,339.18,767.7,444.07z"/>
	<path class="st1" d="M945.88,432c-4.2,13.38-11.57,23.06-26.49,26.09c-14.29,2.8-28.39,6.51-42.23,11.12
		c-9.68,3.3-12.39-0.5-14.56-8.73c-12.03-45.62-24.32-91.15-36.49-136.72c-0.68-2.58-0.77-5.29-3.21-6.96
		c-9.59-48.06-23.38-95.08-36.8-142.15c-5.24-18.27-0.95-31.24,11.85-43.27l6.19,0.36c-2.8,5.88-8.32,10.31-9.81,18.94
		c23.96-5.83,49.1-6.51,60.9-32.96c5.43-0.86,7.51,1.72,8.68,6.92c2.53,11.12,5.97,22.06,8.91,33.05
		C897.14,249.11,921.51,340.53,945.88,432z"/>
	<g>
		<path class="st3" d="M984.22,364.18c-26.13-97.84-52.26-195.68-78.4-293.48c-4.52-17-4.56-17-18.4-5.69l-32.24,52.71
			c5.43-0.86,7.51,1.72,8.68,6.92c2.54,11.08,5.97,22.02,8.91,33.05c24.37,91.42,48.74,182.89,73.11,274.31
			c14.02-14.87,22.97-33.32,35.31-49.28C985.71,376.84,986.08,371.14,984.22,364.18z M898.41,128.39
			c3.57,16.28-10.04,25.28-16.46,37.53C877.84,149.6,892.67,140.96,898.41,128.39z M888.46,190.65
			c-7.91-25.9,16.1-38.79,24.33-58.32C920.79,158.14,896.28,170.94,888.46,190.65z"/>
		<path class="st3" d="M822.68,386.74c0.04,6.74-1.9,11.67-7.06,16.05c-16.14,13.61-31.96,27.49-47.92,41.28
			c-0.09-104.89-0.23-209.79-0.41-314.68c0-4.93,3.62-12.07-5.11-14.24c11.8-16.55,31.33-25.37,42.59-42.5
			c2.04-0.86,4.07-1.72,6.1-2.58c9.45-3.89,13.21-1.04,11.44,9.27c-0.67,3.84-0.27,7.91-0.36,11.84
			c-8.05,13.34-16.05,26.72-24.01,40.15c-12.75,12.03-17.04,24.96-11.84,43.27c13.47,47.02,27.26,94.05,36.8,142.15
			C822.77,340.08,822.45,363.41,822.68,386.74z"/>
		<path class="st6" d="M661.9,71.61c-0.92-0.08-1.82-0.13-2.72-0.16c6.15,0.8,12.32,0.89,18.49,0.57
			C672.13,72.11,666.99,72.09,661.9,71.61z"/>
		<path class="st6" d="M637.53,70.75c-16.05,14.92-34.32,27.35-48.65,44.17l5.79,0.77c12.21-10.85,24.78-21.25,36.44-32.6
			c8.16-7.95,16.98-11.98,28.07-11.64c-4.35-0.57-8.69-1.49-13.02-2.87C642.91,67.54,639.79,68.62,637.53,70.75z"/>
		<path class="st3" d="M709.82,104.79l-9.13,9.59c-14.87,8.36-21.66,19.48-21.43,38.11c1.04,90.52,0.36,181.04,0.32,271.55
			l-23.74,19.22c-0.14-104.99-0.27-209.93-0.5-314.91c0-4.88,3.39-12.3-6.1-13.16c12.61-15.46,30.43-25.81,44.26-43.4
			c-5.74,0-10.94,0.16-15.83,0.23c7.16-0.37,14.33-1.29,21.48-2.31c7.51-1.09,10.63,0.86,10.36,8.72
			C709.19,87.2,709.69,96.02,709.82,104.79z"/>
	</g>
	<path class="st7" d="M700.69,114.38l9.04-9.59c11.76-9.86,23.47-19.76,35.22-29.66c5.34-4.52,9.09-6.78,17.95-4.16
		c12.98,3.84,27.81,1.4,41.82,1.63c-11.21,17.14-30.74,25.95-42.55,42.5c-18.63,22.38-43.77,15.55-68.09,16.23
		c1.36-6.47,6.24-8.41,9.36-11.71C707.97,114.92,703.09,115.37,700.69,114.38z"/>
	<path class="st7" d="M887.42,64.91l-32.24,52.76c-11.8,26.45-36.94,27.13-60.9,32.96c1.49-8.64,6.96-13.07,9.81-18.94
		c13.25-18.49,23.28-39.2,38.48-56.34L887.42,64.91z"/>
	<path class="st8" d="M842.61,75.36c-15.19,17.14-25.23,37.84-38.48,56.34l-6.19-0.36c8-13.38,15.96-26.81,23.96-40.19
		c4.39-3.07,6.74-7.69,9.59-11.98C834.2,75.04,837.01,71.11,842.61,75.36z"/>
	<path class="st7" d="M594.62,115.69c12.21-10.85,24.78-21.25,36.44-32.6c8.82-8.59,18.4-12.61,30.79-11.48
		c9.59,0.9,19.31,0.18,31.6,0.18c-13.84,17.63-31.65,27.99-44.26,43.4c-18.36,22.11-43.5,15.73-69.04,15.82L594.62,115.69z"/>
	<path class="st7" d="M888.46,190.65c-7.91-25.91,16.1-38.79,24.32-58.32C920.83,158.19,896.33,170.94,888.46,190.65z"/>
	<path class="st9" d="M898.41,128.39c3.53,16.28-10.08,25.27-16.46,37.53C877.84,149.6,892.71,140.96,898.41,128.39z"/>
</g>
<g>
	<g>
		<path class="st3" d="M242.09,680.79c0.87-8.86,1.16-16.86,2.41-24.67c6.55-38.83,38.73-68.41,76.12-70.44
			c39.51-2.12,74,22.26,85.27,60.41c11.18,38.06-4.34,79.4-37.58,98.67c-3.37,1.93-7.71,2.22-13.2,3.76c0,0.77-0.39,4.24-0.39,7.61
			c0,44.13-0.29,88.26,0.19,132.39c0.1,5.59,2.7,12.43,6.46,16.48c19.95,21.49,20.23,53.38,0,73.52
			c-19.46,19.37-50.97,19.27-70.34-0.1c-20.33-20.33-19.85-52.03,0.19-73.52c3.57-3.76,6.17-10.12,6.26-15.32
			c0.48-47.7,0.1-95.49,0.39-143.18c0.1-15.9,8.67-26.59,22.55-29.68c13.3-2.99,25.63,3.85,32.38,18.11
			c0.67,1.45,1.16,2.89,2.22,5.68c23.51-10.79,37.77-28.81,43.07-53.57c9.44-43.84-20.43-85.95-63.88-91.34
			c-41.72-5.11-79.59,28.71-81.9,72.75c-0.39,8.48,1.83,13.2,10.6,15.32c10.21,2.6,19.95,6.94,30.26,10.6
			c-0.58,10.5-5.68,16.09-14.26,19.08c-9.06,3.08-14.55,8.09-7.71,20.81c-6.55,0.77-11.56,1.93-16.67,1.93
			c-10.89-0.1-19.08,4.63-24.38,13.97c-4.14,7.23-4.05,14.94,2.6,20.81c6.55,5.68,13.2,3.47,19.17-1.64
			c3.28-2.89,6.26-6.17,9.44-9.06c6.07-5.59,12.82-10.6,21.1-5.59c8,4.91,13.68,11.95,10.5,23.7c-28.71-13.78-50.1,0.67-70.05,18.98
			c-13.88,12.82-15.9,29.29-3.85,43.94c7.32,8.96,17.83,15.32,27.46,21.87c2.31,1.54,7.13-0.19,10.6-1.25
			c2.51-0.67,5.78-4.34,6.94-3.66c5.01,3.18,11.18,6.46,13.59,11.37c3.66,7.52,9.15,19.46,6.07,24.28
			c-25.44,38.64-24.47,65.62,6.26,98.57c-39.22,22.55-110.23,20.62-161.3-20.91c-53.19-43.46-73.9-115.92-51.45-182.02
			C95.53,735.52,150.84,676.07,242.09,680.79z M247.96,694.48c-4.24-0.67-7.23-1.35-10.21-1.64
			c-73.71-7.03-145.4,51.45-156.29,127.29c-1.35,9.35-2.7,18.11,5.78,25.15c2.12,1.73,2.7,5.59,3.76,8.58
			c4.63,13.01,8.09,26.69,13.97,39.02c6.74,14.26,13.78,27.85,11.76,44.42c-0.29,2.7,0.96,6.74,2.89,8.48
			c12.91,11.37,26.11,22.26,38.73,32.86c0.77-15.03,0.58-28.04,2.51-40.66c0.58-4.05,6.36-9.15,10.7-10.21
			c8.77-2.31,10.98-6.36,8.19-14.65c-2.6-7.61-5.59-15.03,1.73-22.35c1.45-1.45,0.58-7.8-1.25-9.44
			c-5.49-4.82-11.56-10.7-18.11-11.85c-11.37-2.12-13.01-6.84-10.5-17.15c2.7-11.37-0.96-14.65-12.33-13.97
			c-5.4,0.39-10.89,0.77-16.28,0.29c-8.67-0.77-17.34-2.12-27.08-3.37c-0.58-8.29-1.25-18.21-1.73-24.38
			c6.74-8.38,13.3-13.49,15.71-20.23c2.99-8.48,6.94-13.97,15.42-16.19c8.48-2.22,14.16-6.65,13.78-16.67
			c-0.1-1.83,1.54-3.76,2.89-6.74c1.93,2.7,2.79,4.72,4.24,5.78c3.08,2.31,6.55,4.14,9.83,6.26c1.93-4.34,4.63-8.58,5.59-13.2
			c0.58-2.79-1.25-6.17-2.31-9.15c-1.93-5.59-2.99-9.92,3.66-14.07c3.08-1.93,2.89-9.15,4.24-13.97c-1.06-0.67-2.12-1.25-3.18-1.93
			c5.3-0.58,10.6-1.16,15.99-1.73c2.22,12.24,7.8,16.09,18.6,10.89c4.14-1.93,9.25-3.18,13.68-2.7
			C229.95,719.14,238.33,707.29,247.96,694.48z M345.57,759.42c-0.39-7.32,0.1-13.88-1.25-19.95c-2.22-9.25-9.06-14.16-18.31-13.88
			c-8.96,0.29-16,4.63-18.02,14.36c-0.87,4.24-0.96,8.77-0.96,13.1c0.1,46.93,0.29,93.85,0.67,140.78
			c0.1,6.94-1.64,11.47-7.23,16.19c-19.08,15.9-20.33,43.07-3.76,60.7c16.19,17.25,42.78,17.34,59.07,0.19
			c16.67-17.54,15.51-44.9-3.47-60.61c-5.97-5.01-7.52-10.02-7.42-17.34c0.39-28.91,0.39-57.72,0.39-86.62
			c0-4.24-0.39-8.48-0.58-12.53c-5.88-0.67-10.41-1.25-14.94-1.73c-0.19-1.25-0.48-2.41-0.67-3.66c5.11-1.45,10.21-2.79,15.8-4.34
			c0-4.91,0-10.02,0-14.55c-5.59-1.54-10.5-2.79-15.51-4.14c0.29-1.35,0.48-2.7,0.77-4.05
			C334.59,760.77,339.12,760.19,345.57,759.42z"/>
		<path class="st3" d="M367.64,763.37c23.41,43.84,27.08,89.32,10.89,136.82c-15.03-4.34-15.32-4.91-9.44-18.6
			c4.05-9.54,4.63-18.31,0.87-28.81c-2.79-7.8-2.02-18.69,1.06-26.59c6.65-16.77,4.34-31.99-2.31-47.6
			c-1.93-4.63-3.08-9.54-4.53-14.26C365.32,764.04,366.48,763.75,367.64,763.37z"/>
		<path class="st10" d="M322.74,575.48c0-12.24-0.1-24.09,0.1-35.94c0-1.45,1.73-3.18,3.08-3.95c0.67-0.39,3.57,1.25,3.47,1.83
			c-0.39,12.53-0.96,25.05-1.64,37.58C327.84,575.19,326.4,575.28,322.74,575.48z"/>
		<path class="st10" d="M438.75,675.88c-4.24-2.12-8.38-4.34-12.62-6.46c4.43-1.16,8.96-3.47,13.39-3.18
			c5.01,0.29,9.83,2.79,14.74,4.24C449.44,672.12,444.72,673.76,438.75,675.88z"/>
		<path class="st10" d="M213.37,663.93c4.43,2.12,8.67,4.24,13.01,6.36c-4.43,1.16-8.96,3.47-13.3,3.28
			c-5.01-0.19-9.92-2.7-14.84-4.14C202.87,667.69,207.59,666.05,213.37,663.93z"/>
		<path class="st10" d="M236.5,570.27c7.32,8.48,13.3,15.13,18.89,22.16c0.96,1.25,0.58,3.95,0.19,5.88
			c-0.1,0.48-3.18,1.16-3.85,0.58c-6.46-6.36-12.82-12.82-18.79-19.56C232.35,578.66,234.38,575.67,236.5,570.27z"/>
		<path class="st10" d="M399.24,600.34c-4.34-7.42-3.28-8.96,16.48-26.11C421.5,580.1,421.21,580.68,399.24,600.34z"/>
		<path class="st10" d="M417.16,760.57c-3.95-0.87-7.8-0.58-9.06-2.31c-4.05-5.49-13.97-8-10.89-19.08
			C404.06,746.41,409.74,752.58,417.16,760.57z"/>
		<path class="st3" d="M334.49,862.81c0,8,0.29,15.99-0.1,23.99c-0.58,12.82-0.48,23.22,13.2,31.8c15.51,9.73,14.26,34.4,0.67,47.41
			c-13.68,13.1-35.27,11.56-47.02-3.37c-11.95-15.13-8.77-38.45,8-47.98c7.61-4.34,9.15-8.96,9.06-16.77
			c-0.39-24.38-0.1-48.76-0.1-73.23c0-6.07-0.39-13.1,8-13.2c8.29-0.1,8.38,6.74,8.38,13.01
			C334.49,837.18,334.49,849.99,334.49,862.81z M321.68,920.81c-1.64-1.45-3.18-2.99-4.82-4.43c-5.49,6.07-11.08,11.95-16.28,18.21
			c-0.87,1.06-0.48,3.76,0.19,5.2c0.48,0.96,3.57,1.83,4.05,1.35C310.59,934.5,316.09,927.66,321.68,920.81z"/>
	</g>
</g>
<path class="st11" d="M285.47,678.27c1.64-16.67,14.74-27.46,26.31-26.31c7.9,0.77,9.92,13.59,17.92,14.36
	c7.8,0.77,15.32-10.12,20.33-19.17"/>
<path class="st11" d="M297.1,713.12c1.64-16.67,14.74-27.46,26.31-26.31c7.9,0.77,9.92,13.59,17.92,14.36
	c7.8,0.77,15.32-10.12,20.33-19.17"/>
<g>
	<g>
		<path class="st12" d="M982,796.51"/>
	</g>
</g>
<g>
	<path class="st3" d="M533.3,617.21c0-6,0-11.2,0-16.7c25.6,0,51.1,0,77.2,0c1.5,5,3,10.3,4.5,15.5c2.1,7.6,4.4,15.2,6.3,23
		c0.9,3.5,2.5,4.6,6.1,4.6c59.9-0.1,119.8,0,179.7,0.1c58.8,0.1,117.5,0.2,176.3,0.2c6.2,0,12.4,0,19.3,0
		c-3.6,12.5-6.9,24.1-10.2,35.7c-15.7,54.9-31.4,109.8-47,164.8c-1,3.5-2.8,3.7-5.8,3.7c-84.1-0.1-168.3-0.2-252.5-0.2
		c-1.8,0-3.6,0-6.1,0c1.2,5,2.2,9.7,3.4,14.2c2.2,7.9,4.8,15.6,6.9,23.6c0.9,3.2,2.2,4.2,5.5,4.2c58.3-0.1,116.6,0,175,0.1
		c20.6,0,41.2,0.1,61.7,0.1c0.7,0,1.4,0.1,2.8,0.2c-1.1,5.3-1.9,10.4-3.2,15.4c-0.2,0.8-2.7,1.5-4.2,1.5c-17.2,0.1-34.3,0-51.5,0
		c-64.1-0.1-128.3-0.2-192.4-0.2c-4,0-5.5-1.1-6.6-5c-26.4-93.5-53.1-186.6-79.6-279.9c-1.1-3.9-2.6-5.1-6.6-5c-18,0.2-36,0-54.1,0
		C536.7,617.21,535.1,617.21,533.3,617.21z M905,699.31c0.9,0.3,1.3,0.5,1.7,0.5c20.3,0,40.6,0.1,60.9-0.1c1.1,0,2.8-1.6,3.2-2.8
		c2.7-8.7,5.1-17.4,7.5-26.1c0.9-3.1,1.7-6.2,2.5-9.2c-0.7-0.3-1-0.5-1.3-0.5c-22.7-0.1-45.4-0.2-68.1-0.1c-1,0-2.6,1.5-2.8,2.6
		c-0.7,3.6-0.9,7.3-1.3,11C906.5,682.71,905.7,691.01,905,699.31z M703.3,699.81c-1.3-13.4-2.6-26.3-3.9-39c-24.3,0-47.9,0-71.9,0
		c3.4,11.8,6.8,23.2,9.8,34.7c0.9,3.3,2.1,4.5,5.7,4.4c18.6-0.2,37.2-0.1,55.7-0.1C700.2,699.81,701.6,699.81,703.3,699.81z
		 M712.9,699.51c19.6,0,38.8,0,58.1,0c0-13,0-25.7,0-38.7c-20.6,0-41,0-61.9,0C710.4,673.81,711.6,686.41,712.9,699.51z M899,660.91
		c-21,0-41.4,0-61.8,0c0,13.1,0,25.9,0,38.8c19.5,0,38.5,0,58,0C896.5,686.81,897.7,674.21,899,660.91z M900.5,744.71
		c18.7,0,36.7,0,54.7-0.1c0.9,0,2.2-0.9,2.4-1.7c3.3-11.1,6.4-22.3,9.6-33.3c-0.4-0.3-0.6-0.5-0.7-0.5c-20.1-0.1-40.2-0.2-60.4-0.2
		c-0.8,0-2.3,1.3-2.3,2.1C902.6,722.11,901.6,733.11,900.5,744.71z M707.7,744.41c-1.2-12-2.4-23.6-3.5-35.3c-21.2,0-41.8,0-62.9,0
		c3.1,10.8,6.3,21.2,9,31.7c0.8,3.1,2.2,4,5.2,3.9c16-0.1,32.1,0,48.1-0.1C704.8,744.71,706.1,744.51,707.7,744.41z M837.1,708.81
		c-0.2,1.3-0.3,1.9-0.3,2.6c-0.2,10-0.4,20-0.7,30c-0.1,3.2,1.6,3.3,4,3.3c15.9,0,31.7,0,47.6,0c1,0,1.9-0.2,3.1-0.4
		c1.1-11.8,2.3-23.4,3.5-35.5C875,708.81,856.3,708.81,837.1,708.81z M713.9,709.11c1.1,11,2.2,21.4,3.1,31.9
		c0.2,2.9,1.2,3.8,4.1,3.8c13.3-0.1,26.7-0.1,40-0.1c3.2,0,6.5,0,10,0c0-12.1,0-23.8,0-35.6C751.9,709.11,733.1,709.11,713.9,709.11
		z M896.1,788.61c0.6,0.5,0.7,0.6,0.8,0.6c15.2,0.1,30.3,0.2,45.4,0.1c1,0,2.5-1.6,2.9-2.8c1.9-5.8,3.4-11.7,5.1-17.5
		c1.4-5,2.8-10,4.2-15.2c-18.6,0-36.6,0-55,0C898.4,765.61,897.2,777.11,896.1,788.61z M771.1,753.81c-17.7,0-34.9,0-52.6,0
		c0.1,1.8,0.1,3.3,0.2,4.9c0.8,8.9,1.8,17.8,2.5,26.7c0.2,3.2,1.3,4.3,4.6,4.3c13.7-0.2,27.5-0.1,41.3-0.1c1.2,0,2.5-0.2,3.9-0.3
		C771.1,777.31,771.1,765.81,771.1,753.81z M654,753.71c3.1,11,6.3,21.5,9.1,32.1c0.8,3,2.2,3.7,5,3.7c13.3-0.1,26.7,0,40-0.1
		c1.2,0,2.4-0.2,4-0.4c-1.2-12-2.4-23.7-3.5-35.4C690.2,753.71,672.4,753.71,654,753.71z M889.8,753.81c-17.8,0-35.1,0-52.7,0
		c0,12,0,23.6,0,35.7c15.9,0,31.4,0,47-0.1c0.9,0,2.3-1.8,2.4-2.9c0.7-4.9,1.1-9.8,1.6-14.8C888.7,765.81,889.2,759.91,889.8,753.81
		z M826.9,660.91c-15.6,0-30.7,0-45.8,0c0,13,0,25.7,0,38.5c15.4,0,30.6,0,45.8,0C826.9,686.51,826.9,673.91,826.9,660.91z
		 M781.2,709.11c0,12.1,0,23.6,0,35.9c14.7,0,29.1,0,43.5,0c2.9,0,3.1-1.9,3-4c-0.2-3.4-0.4-6.8-0.5-10.2c-0.1-7.2,0-14.4,0-21.8
		C811.5,709.11,796.5,709.11,781.2,709.11z M826.8,753.61c-15.6,0-30.6,0-45.7,0c0,12.2,0,23.9,0,35.5c15.4,0,30.5,0,45.7,0
		C826.8,777.11,826.8,765.41,826.8,753.61z M771,798.71c-16.2,0-32,0-48.3,0c1,10.2,1.9,20.1,3.1,29.9c0.1,0.8,2.1,2,3.3,2
		c5.7,0.2,11.3,0.1,17,0.1c8.2,0,16.4,0,24.9,0C771,820.01,771,809.51,771,798.71z M837.2,798.71c0,11,0,21.4,0,31.9
		c15.2,0,30,0,45.1,0c1-10.7,2.1-21.2,3.1-31.9C869,798.71,853.2,798.71,837.2,798.71z M781.1,798.61c0,10.8,0,21.2,0,31.9
		c15.3,0,30.4,0,45.7,0c0-10.7,0-21.2,0-31.9C811.5,798.61,796.5,798.61,781.1,798.61z M941.8,798.81c-16,0-31.3,0-46.7,0
		c-1,10.8-2,21.3-3.1,32.2c13.3,0,25.9,0,38.5-0.1c0.9,0,2.3-0.9,2.5-1.6C936,819.21,938.8,809.11,941.8,798.81z M713,798.61
		c-15.7,0-30.7,0-46.2,0c2.9,10.3,5.7,20.4,8.8,30.4c0.3,0.9,2.5,1.6,3.8,1.6c7.7,0.2,15.3,0.1,23,0.1c4.5,0,9,0,13.9,0
		C715.1,819.71,714.1,809.31,713,798.61z"/>
	<path class="st1" d="M865.6,915.01c21.4,0,38.4,17,38.5,38.3c0.1,21.1-17.3,38.5-38.4,38.5c-21.2,0-38.4-17.2-38.5-38.4
		C827.1,932.21,844.3,915.01,865.6,915.01z M865.7,966.51c7.4,0,13.3-6,13.2-13.3c-0.1-7-6-13-13-13.2c-7.2-0.1-13.3,5.9-13.4,13.2
		C852.4,960.51,858.3,966.51,865.7,966.51z"/>
	<path class="st1" d="M745.2,915.01c21.2,0,38.4,17.2,38.3,38.5c-0.1,21.2-17.3,38.4-38.5,38.3c-21.2-0.1-38.3-17.3-38.2-38.5
		C706.8,931.81,723.8,914.91,745.2,915.01z M745.1,966.51c7.4,0,13.2-5.9,13.1-13.3c-0.1-7.2-5.9-13-13-13.1
		c-7.2-0.1-13.4,6-13.5,13.2C731.7,960.41,737.8,966.51,745.1,966.51z"/>
</g>
<g>
	<path class="st0" d="M43.91,1290.77c0-76.68,0-153.37,0-230.05c61.75,0,123.51,0,185.26,0c-16.73,15.13,3.32,20.63,8.81,30.28
		c-2.75,0.74-4.67,1.43-6.64,1.75c-84.37,14-141.06,62.61-173.03,140.55C50.89,1251.38,48.57,1271.55,43.91,1290.77z"/>
	<path class="st1" d="M497.91,1398.67c-5.06,3.1-9.76,7.29-15.25,9.08c-11.21,3.66-22.8,6.22-34.32,8.89
		c-10.23,2.37-14.57-0.3-17.19-10.3c-2.91-11.12-5.73-22.26-8.28-33.47c-1.72-7.55,0.24-13.82,8.6-15.69
		c8-1.79,11.81,2.99,13.52,10.16c0.67,2.82,1.58,5.58,3.21,11.29c3.43-9.24,6.51-15.64,8.22-22.39
		c14.92-59.23,4.5-113.5-29.77-164.31c-29.91-44.34-72.46-67.69-122.53-80.29c-14.48-3.64-18.4-6.49-16.04-14.58
		c3.45-11.85,12.51-7.39,20.18-6c91.88,16.6,165.84,98.2,173.95,190.23c3.32,37.65-1.46,73.48-17.02,108.63
		c11.25,1.68,23.29-10.92,32.73,2.65C497.91,1394.59,497.91,1396.63,497.91,1398.67z"/>
	<path class="st1" d="M247.49,1520.82c-14.85-2.93-29.97-4.87-44.49-8.97c-39.26-11.09-72.99-31.68-101.03-61.47
		c-4.39-4.67-9.4-8.76-14.67-13.63c-1.45,4.36-2.95,9.22-4.67,14c-2.48,6.86-7.42,9.4-14.4,7.39c-6.7-1.93-9.28-7.02-7.87-13.36
		c3.01-13.51,6.32-26.98,10.19-40.27c1.68-5.78,6.06-8.39,12.71-6.52c12.69,3.57,25.48,6.83,38.31,9.85
		c7.79,1.84,12.58,6.1,10.44,14.18c-2.1,7.95-8.88,8.2-15.75,6.73c-2.47-0.53-4.95-1.04-10.04-2.1
		c30.31,34.23,64.62,57.81,106.72,67.26c74.45,16.71,140.15-0.33,194.69-55.26c3.34-3.37,6.61-6.83,10.16-9.98
		c5.67-5.02,11.86-5.69,16.96,0.35c4.68,5.54,2.99,10.79-1.93,16.07c-40.42,43.4-89.46,69.31-148.98,74.38
		c-1.29,0.11-2.52,0.88-3.78,1.34C269.21,1520.82,258.35,1520.82,247.49,1520.82z"/>
	<path class="st1" d="M43.91,1290.77c4.67-19.21,6.99-39.39,14.4-57.47c31.97-77.95,88.66-126.56,173.03-140.56
		c1.97-0.33,3.88-1.02,6.64-1.75c-5.49-9.64-25.53-15.14-8.81-30.28c2.71,0,5.43,0,8.14,0c11.7,10.75,23.52,21.37,35.03,32.32
		c4.42,4.2,4.02,9.12-0.39,13.33c-10.04,9.6-19.71,19.71-30.6,28.24c-3.37,2.63-11.85,2.98-15.11,0.54
		c-5.25-3.93-4.43-10.79,0.67-16.03c2.54-2.61,4.97-5.33,6.56-10.1c-11.5,3-23.2,5.35-34.45,9.1
		c-81.22,27.04-136.53,104.16-134.11,189.6c0.59,20.86,7.24,41.6,11.68,62.27c1.45,6.75,0.22,12.13-6.06,13.95
		c-5.97,1.72-13.8,3.85-15.94-6.15c-3.6-16.78-7.12-33.58-10.68-50.37C43.91,1315.2,43.91,1302.97,43.91,1290.77z"/>
	<path class="st3" d="M410.17,1299.81c-3.51,65.85-29.25,115.17-86.9,143.32c-65.15,31.82-143.34,7.18-182.7-55.62
		c-44.1-70.34-24.25-166.85,44-213.99c80.33-55.49,195.07-9.47,219.54,88.34C407.46,1275.23,408.52,1289.18,410.17,1299.81z
		 M257.45,1236.8c-16.77-4.03-33.05-7.95-49.71-11.95c-9.02,22.4-15.2,44.87-15,70.33c21.83,0,42.95,0,64.71,0
		C257.45,1276.3,257.45,1256.82,257.45,1236.8z M320.41,1381.63c8.05-21.88,13.68-44.79,13.39-70.19c-21.63,0-42.36,0-63.16,0
		c0,20.2,0,40.33,0,59.47C287.53,1374.55,303.61,1378.01,320.41,1381.63z M204.82,1380.43c18.48-4.12,34.15-7.61,49.77-11.09
		c0-20.01,0-39.86,0-59.34c-21.4,0-42.18,0-65.5,0C194.59,1334.59,199.69,1357.44,204.82,1380.43z M270.53,1238.08
		c0,18.64,0,38.11,0,57.03c21.31,0,42.04,0,65.93,0c-5.16-25.16-9.88-48.21-14.41-70.28
		C303.42,1229.63,287.52,1233.71,270.53,1238.08z M345.87,1310.53c-2.95,20.87-4.98,40.66-8.71,60.11
		c-3.44,17.91-4.25,17.76,10.97,28.04c0.49,0.33,1.29,0.21,2.36,0.36c24.77-23.92,38.16-52.92,38.69-88.52
		C374.09,1310.53,359.73,1310.53,345.87,1310.53z M179.19,1294.45c4.49-26.47,8.81-51.97,13.36-78.83
		c-3.79-2.68-9.26-6.54-15.18-10.73c-25.84,24.46-39.46,53.91-41.48,89.56C151.2,1294.45,165.33,1294.45,179.19,1294.45z
		 M178.43,1310.47c-13.1,0-27.5,0-42.64,0c1.99,35.59,16.05,64.85,40.82,89.44c5.88-4.18,11.58-8.24,15.52-11.04
		C187.48,1362.26,183.03,1336.77,178.43,1310.47z M390.7,1294.8c-3.43-35.14-15.42-64.91-39.12-87.95
		c-17.41,4.81-16.29,14.85-12.69,28.8c4.85,18.79,5.89,38.56,8.74,59.15c2.58,0,6.2,0,9.83,0
		C368.25,1294.8,379.04,1294.8,390.7,1294.8z M212.17,1393.55c7.84,25.31,28.14,44.25,43.94,41.83c0-16.68,0-33.43,0-52.04
		C240.82,1386.89,226.56,1390.2,212.17,1393.55z M255.7,1222.2c0-19.06,0-35.25,0-51.33c-18.15-1.11-38.7,18.44-42.69,40.9
		C226.77,1215.14,240.64,1218.53,255.7,1222.2z M270.01,1382.38c0,18.48-0.02,33.6,0.03,48.72c0.01,1.61,0.43,3.22,0.65,4.8
		c18.77-1.2,35.8-17.4,43.63-42.38C300.09,1389.94,285.97,1386.39,270.01,1382.38z M270.5,1170.2c0,17.95,0,34.42,0,53.62
		c15.44-3.7,29.78-7.14,46.17-11.06C303.52,1193.72,297,1172.09,270.5,1170.2z M316.66,1182.02c-0.59,0.66-1.18,1.32-1.77,1.98
		c4.11,6.76,8.21,13.53,12.52,20.62c4.12-2.94,7.74-5.54,13.05-9.33C331.47,1190.28,324.06,1186.15,316.66,1182.02z M339.69,1411.9
		c-4.85-3.29-8.51-5.77-12.29-8.33c-4.5,7.37-8.36,13.69-13.61,22.29C323.49,1420.63,330.73,1416.72,339.69,1411.9z M199.2,1203.45
		c4.39-7.25,8.13-13.44,11.87-19.63c-0.51-0.62-1.02-1.24-1.54-1.86c-7.05,3.96-14.1,7.92-22.56,12.67
		C191.68,1198.02,195.12,1200.49,199.2,1203.45z M186.93,1410.45c8.91,4.87,16.06,8.79,23.22,12.71c0.34-0.46,0.67-0.92,1.01-1.38
		c-3.75-6.29-7.5-12.58-11.64-19.51C195.76,1404.71,192.18,1407.05,186.93,1410.45z"/>
</g>
<g>
	<path class="st3" d="M981.53,1309.98c0,122-97.2,219.2-219.3,219.2c-122.6,0-219.7-97.4-219.4-220.2
		c0.2-61.1,22.5-113.1,65.6-156.2c32.4-32.4,71.7-51.6,116.5-58.7c74.7-11.8,140,8.2,193.9,61.8
		C959.83,1196.48,981.53,1251.18,981.53,1309.98z M923.13,1310.28c0.1-89.4-71.1-161.3-159.9-161.5c-90.1-0.2-161.5,71-162.2,160.4
		c-0.6,87.8,71.6,161.3,160.3,161.8C853.83,1471.58,924.23,1394.38,923.13,1310.28z"/>
	<path class="st1" d="M820.63,1295.28c-19,47.6-37.3,93.3-55.6,139c-0.8-0.1-1.7-0.2-2.5-0.3c0-8.2,0-16.5,0-24.7
		c0-10.7,0.3-21.5-0.1-32.2c-0.4-12.1,5.2-28.1-2-35.4c-7.8-7.8-23.9-1.7-36.3-2.4c-4.4-0.3-8.9-0.2-13.3,0
		c-5.2,0.2-6.6-1.8-4.6-6.7c17.7-43.8,35.4-87.7,53.1-131.6c0.1-0.2,0.6-0.1,2.5-0.4c0,11.7,0,23.3,0,34.8c0,16.3,0.4,32.6-0.2,48.9
		c-0.3,8.4,1.6,11.7,10.8,11.2C787.83,1294.68,803.43,1295.28,820.63,1295.28z"/>
</g>
<g>
	<path class="st3" d="M98.05,1778.26c-5.91-4.34-12.47-5.91-19.87-6.01c-7.58-0.09-12.75,0.65-11.18,10.16
		c0.92,6.01-3.51,5.17-7.21,5.27c-14.88,0.46-29.75-1.02-44.63,0.83c0-47.22,0-94.43,0-141.65c11.55-0.18,23.1-0.37,34.65-0.46
		c16.45-0.09,16.45,0,17.93,14.78c4.34,0,8.78,0.28,13.03-0.09c5.54-0.55,11.55,2.13,16.63-2.31c6.84-6.1,13.77-12.01,20.7-18.02
		c4.25-3.33,8.87-6.38,12.75-10.16c6.38-6.1,12.94-7.3,21.34-4.44c12.84,4.44,26.15,7.76,39.18,11.64c2.59,0.74,6.1,1.11,7.39,2.96
		c9.06,12.75,20.7,7.85,32.06,5.17c19.59,3.05,24.39,15.25,20.24,34.28c-2.4,10.9,0.37,23.65-0.18,35.76
		c-0.37,7.76,3.97,16.08-1.02,24.02c-1.66,2.59-1.02,4.71,0.28,6.56c4.99,7.3,3.7,14.78,1.39,22.45
		c-4.71,4.99-9.42,10.9-16.72,10.81c-15.8-0.18-31.97,3.33-48.23-3.79c1.02,5.64-4.44,13.21,5.64,13.68
		c12.01,0.46,19.4,5.27,22.91,16.72c1.2,3.97,3.05,8.69-2.31,10.44c-4.53,1.48-9.61,1.39-11.36-5.08
		c-1.94-7.02-7.02-9.52-14.04-9.15c-6.1,0.28-12.29,0-18.48,0.09c-7.21,0.18-11.92,3.6-11.83,11.09c0.09,7.39,4.8,11,11.92,11.18
		c7.48,0.18,15.06-0.18,22.55,0.18c13.77,0.65,24.39,11.46,24.86,25.04c0.46,12.94-9.15,24.76-22.36,26.33
		c-5.27,0.55-8.41,1.2-7.85,7.39c0.55,5.82-2.86,7.39-8.22,7.76c-6.1,0.28-6.93-2.96-6.28-7.58c0.83-6.01-1.94-7.11-7.48-7.58
		c-8.69-0.74-15.25-5.82-19.22-13.58c-2.03-4.07-5.64-9.89-0.37-12.47c3.97-2.03,11.36-3.79,13.49,5.17
		c0.92,3.97,4.99,6.47,9.52,6.47c7.48,0.09,15.06,0.18,22.55-0.09c6.84-0.28,11.27-4.34,11.27-10.9c0-7.02-4.34-11.27-11.83-11.36
		c-6.19-0.09-12.29,0-18.48,0c-16.35-0.09-27.63-9.06-28.83-22.91c-1.29-15.8,6.65-25.69,23.65-28.74c2.86-0.55,6.1-0.55,5.36-4.34
		c-1.94-9.52,3.42-12.1,10.07-12.01c-3.33-16.91,2.31-33.45-1.48-49.62c-0.09-0.55,0.37-1.29,0.74-1.85
		c5.91-8.69-0.18-15.15-4.34-21.71c-2.86-4.53-6.19-5.08-10.63-1.02c-6.84,6.19-14.69,11.27-21.44,17.46
		c-4.25,3.79-6.84,2.49-9.79-0.92c-3.88-5.27-2.59-8.96,2.68-12.66c5.91-4.07,11.18-8.96,16.82-13.4c5.64-4.44,10.81-11.55,17-12.66
		c7.3-1.2,10.72,8.5,16.17,13.12c5.64,4.71,11.18,4.9,16.54,0.46c5.54-4.62,6.01-10.53,1.94-16.45
		c-8.41-12.2-18.39-20.88-33.54-25.87c-20.24-6.75-36.13-6.19-50.36,10.9c-12.47,14.6-28.27,21.81-47.95,18.2
		c-5.45-1.02-6.93,1.57-6.93,6.84c0.28,22.55,0.28,45.09,0,67.73c-0.09,5.73,1.48,8.13,7.39,7.48c11.55-1.29,22.36,0.65,31.79,8.04
		C105.45,1771.33,101.1,1774.37,98.05,1778.26z M52.13,1717.36c0-16.08-0.65-32.15,0.18-48.23c0.55-11.09-6.65-7.58-12.01-7.85
		c-5.54-0.28-11.09-1.94-10.81,7.95c0.74,30.12,0.18,60.15,0.28,90.27c0.09,14.6-3.14,12.75,13.77,13.31
		c6.56,0.28,8.87-1.39,8.59-8.32C51.76,1748.78,52.13,1733.07,52.13,1717.36z M215.95,1765.41c5.08,0,10.26,0.18,15.34-0.09
		c4.25-0.28,7.02-2.96,7.3-7.11c0.28-4.34-2.68-7.48-6.65-7.67c-10.26-0.46-20.51-0.46-30.68-0.09c-3.97,0.09-7.3,2.68-7.3,7.11
		c0,4.71,2.86,7.58,7.67,7.76C206.44,1765.6,211.24,1765.5,215.95,1765.41z M216.51,1720.78L216.51,1720.78
		c-5.08,0-10.16-0.18-15.25,0.09c-4.25,0.18-7.11,2.77-7.21,7.02c-0.09,4.25,2.49,7.21,6.84,7.3c10.16,0.28,20.33,0.28,30.49,0.09
		c4.34-0.09,7.21-2.86,7.21-7.02c0-4.62-2.96-7.39-7.85-7.48C225.93,1720.69,221.22,1720.78,216.51,1720.78z M204.77,1707.57
		c9.61,0.92,16.72,0.18,23.93-1.29c4.71-0.92,8.69-1.85,9.89-6.93c0.74-3.33-0.92-6.28-3.97-7.39c-5.08-1.94-11.27-3.79-14.88,1.02
		C215.77,1698.05,210.69,1701.75,204.77,1707.57z M216.69,1661.19c1.85,4.07,3.33,7.76,4.99,11.36c2.68,5.73,7.76,3.14,11.64,2.59
		c3.6-0.55,5.91-3.7,5.27-7.58c-0.74-4.07-3.51-6.47-7.95-6.38C226.12,1661.28,221.68,1661.19,216.69,1661.19z"/>
	<path class="st3" d="M425.79,2041.04c-2.31-6.56,3.23-16.35-3.14-19.59c-4.71-2.4-12.94,1.94-19.68,3.23
		c-15.62,3.14-31.42,0.46-47.03,1.57c-44.17,3.05-87.13-4.62-129.73-14.78c-16.35-3.88-30.68-12.94-45.18-21.16
		c-9.7-5.45-11.73-17.74-6.56-27.53c4.99-9.33,17.19-13.4,27.53-9.15c5.54,2.22,9.52,7.11,15.89,8.13c1.2-1.66,0.09-3.7-0.46-6.01
		c-2.77-10.9,2.4-21.44,12.2-25.04c10.53-3.88,21.34,0.65,26.43,11.36c2.77,5.82,5.54,11.73,7.39,17.93
		c2.4,8.13,6.28,11.27,14.6,7.48c2.49-1.11,5.45-1.02,9.89-1.76c-6.01-3.42-10.72-5.91-15.25-8.69
		c-10.26-6.38-14.04-17.56-9.61-28.27c4.34-10.53,13.77-16.08,25.5-12.57c27.9,8.41,56.82,14.04,80.76,32.52
		c3.23,2.49,7.67,3.33,12.29,3.23c11.64-0.37,23.28-0.55,34.93,0c7.58,0.37,9.98-2.68,8.78-9.52c-1.85-10.63,2.22-14.14,12.94-13.21
		c12.94,1.11,25.96,0.65,38.9,0.83c0,34.93-0.09,69.85,0.09,104.69c0,5.17-1.11,6.47-6.28,6.28
		C455.91,2040.85,440.85,2041.04,425.79,2041.04z M350.67,2011.38c7.48,0,15.06,0.09,22.55,0c7.48-0.09,14.97-0.37,22.55-0.46
		c25.59-0.28,29.48-4.07,29.48-28.64c0-2.77-0.28-5.54,0.09-8.22c0.74-5.91-1.57-7.67-7.39-7.58c-13.31,0.37-26.61,0-40.01,0.18
		c-4.16,0-8.13-0.09-11.55-2.96c-22.64-18.39-51.37-22.73-77.43-33.26c-4.8-1.94-9.79-1.57-12.2,3.97
		c-2.31,5.45,0.46,8.78,5.45,11.27c9.7,4.9,19.31,10.07,28.83,15.34c2.4,1.39,6.47,1.57,6.01,5.82c-0.28,3.42-3.6,3.7-5.82,5.08
		c-11.92,7.3-24.39,10.63-38.71,9.79c-25.78-1.48-52.76,4.62-75.4-13.86c-2.68-2.22-6.75-1.85-9.06,1.57
		c-2.68,3.97-1.11,7.39,2.59,9.52c12.29,7.39,25.04,14.97,38.71,18.02C269.18,2006.02,309.09,2016.09,350.67,2011.38z
		 M440.02,1986.61c0,10.9,0.37,21.9-0.09,32.8c-0.28,6.74,1.11,10.26,8.78,9.15c6.19-0.92,14.23,2.77,13.86-9.15
		c-0.55-20.14-0.18-40.29-0.18-60.43c0-15.25,0-14.88-15.25-14.88c-6.1,0-7.3,2.22-7.11,7.67
		C440.3,1963.42,440.02,1975.06,440.02,1986.61z M248.85,1962.96c-2.22-4.99-4.44-10.72-7.21-16.17c-1.48-2.86-4.62-2.86-7.21-1.57
		c-2.22,1.11-3.79,3.33-2.96,5.91c1.57,5.17,3.51,10.26,5.45,15.34c1.48,3.79,4.16,2.86,6.47,1.02
		C245.06,1966.01,249.5,1968.41,248.85,1962.96z"/>
	<path class="st13" d="M117.92,1640.77c-6.93,6.01-13.86,11.92-20.7,18.02c-5.08,4.44-11,1.85-16.63,2.31
		c-4.34,0.37-8.69,0.09-13.03,0.09c-1.39-14.78-1.39-14.88-17.83-14.78c-11.55,0.09-23.1,0.28-34.65,0.46
		c0-20.51,0.18-41.12-0.18-61.63c0-5.17,1.2-6.38,6.38-6.28c34.93,0.28,69.85,0.18,104.69,0.18c-6.93,3.42-13.21,7.76-13.77,16.08
		C111.17,1610.64,110.44,1626.26,117.92,1640.77z"/>
	<path class="st14" d="M117.92,1640.77c-7.48-14.51-6.75-30.12-5.64-45.64c0.55-8.32,6.84-12.75,13.77-16.08c2.77,0,5.45,0,8.22,0
		c10.53,3.97,15.71,11.36,14.78,22.82c-0.28,3.14,0,6.84,4.25,6.65c3.51-0.18,3.7-3.6,3.42-6.38c-1.11-11.46,4.16-18.85,14.51-23.1
		c2.77,0,5.45,0,8.22,0c10.44,4.16,15.43,11.73,14.6,23.1c-0.18,2.77-0.09,6.19,3.42,6.38c4.25,0.28,4.62-3.51,4.25-6.56
		c-1.11-11.55,4.25-18.85,14.69-22.91c2.77,0,5.45,0,8.22,0c10.72,4.62,14.41,12.94,14.41,24.39c0.09,14.88-1.48,29.11-8.32,42.5
		c-11.36,2.59-22.91,7.58-32.06-5.17c-1.29-1.85-4.8-2.22-7.39-2.96c-13.03-3.88-26.33-7.21-39.18-11.64
		c-8.41-2.86-15.06-1.66-21.34,4.44C126.79,1634.39,122.17,1637.44,117.92,1640.77z"/>
	<path class="st13" d="M171.14,1579.04c-10.35,4.25-15.62,11.64-14.51,23.1c0.28,2.77,0.09,6.19-3.42,6.38
		c-4.25,0.18-4.53-3.51-4.25-6.65c0.92-11.46-4.25-18.85-14.78-22.82C146.47,1579.04,158.85,1579.04,171.14,1579.04z"/>
	<path class="st1" d="M216.32,1579.04c-10.44,4.07-15.8,11.27-14.69,22.91c0.28,3.14,0,6.84-4.25,6.56c-3.51-0.18-3.6-3.6-3.42-6.38
		c0.83-11.36-4.16-18.94-14.6-23.1C191.65,1579.04,204.04,1579.04,216.32,1579.04z"/>
	<path class="st1" d="M134.37,1714.13c2.96,3.42,5.54,4.71,9.79,0.92c6.84-6.19,14.6-11.27,21.44-17.46
		c4.44-4.07,7.76-3.51,10.63,1.02c4.16,6.56,10.35,13.03,4.34,21.71c-0.37,0.55-0.83,1.29-0.74,1.85
		c3.79,16.08-1.85,32.71,1.48,49.62c-6.65-0.09-12.01,2.49-10.07,12.01c0.74,3.79-2.49,3.79-5.36,4.34
		c-17,3.05-24.95,12.94-23.65,28.74c1.2,13.86,12.38,22.82,28.83,22.91c6.19,0,12.29-0.09,18.48,0c7.39,0.09,11.83,4.44,11.83,11.36
		c0,6.56-4.44,10.63-11.27,10.9c-7.48,0.28-15.06,0.09-22.55,0.09c-4.62,0-8.59-2.49-9.52-6.47c-2.13-8.96-9.52-7.21-13.49-5.17
		c-5.27,2.68-1.57,8.5,0.37,12.47c3.88,7.85,10.53,12.94,19.22,13.58c5.45,0.46,8.22,1.57,7.48,7.58c-0.65,4.62,0.18,7.95,6.28,7.58
		c5.36-0.28,8.78-1.85,8.22-7.76c-0.55-6.19,2.59-6.84,7.85-7.39c13.21-1.48,22.91-13.4,22.36-26.33
		c-0.55-13.67-11.09-24.49-24.86-25.04c-7.48-0.37-15.06,0-22.55-0.18c-7.21-0.18-11.83-3.79-11.92-11.18
		c-0.09-7.48,4.71-11,11.83-11.09c6.1-0.09,12.29,0.18,18.48-0.09c7.02-0.28,12.1,2.13,14.04,9.15c1.76,6.47,6.84,6.56,11.36,5.08
		c5.45-1.76,3.6-6.38,2.31-10.44c-3.51-11.46-10.9-16.26-22.91-16.72c-10.07-0.37-4.71-8.04-5.64-13.67
		c16.26,7.11,32.43,3.6,48.23,3.79c7.3,0.09,12.01-5.91,16.72-10.81c31.79,31.51,32.8,89.53,1.94,125.29
		c-26.7,30.95-60.89,41.58-99.61,31.05c-38.81-10.53-62.55-37.98-70.04-77.61c-4.71-24.67,1.48-48.05,14.51-69.58
		c3.05-3.88,7.39-6.93,8.04-12.38c4.53-0.65,6.84-4.25,9.33-7.39C125.77,1745.45,132.15,1730.67,134.37,1714.13z"/>
	<path class="st13" d="M248.85,1962.96c0.74,5.54-3.79,3.05-5.54,4.53c-2.31,1.85-4.99,2.86-6.47-1.02
		c-1.94-5.08-3.79-10.16-5.45-15.34c-0.83-2.59,0.74-4.8,2.96-5.91c2.59-1.2,5.73-1.29,7.21,1.57
		C244.41,1952.24,246.63,1957.97,248.85,1962.96z"/>
</g>
<circle class="st3" cx="783.5" cy="1814.19" r="234"/>
<polygon class="st0" points="937.5,1798.19 811.5,1798.19 811.5,1672.19 755.5,1672.19 755.5,1798.19 630.5,1798.19 630.5,1854.19 
	755.5,1854.19 755.5,1979.19 811.5,1979.19 811.5,1854.19 937.5,1854.19 "/>
<g>
	<path class="st1" d="M239.58,2169.56c-0.1-1.6-0.2-3.1-0.2-4.6c0-20.6,0-41.1,0-61.7c0-6.7,2.5-10.7,7.5-12.1
		c4.2-1.2,7.6,0.9,11.2,6.4c0.6,0.9,2.1,1.7,3.2,1.7c12.1-0.3,23.2,2.8,33.8,8.5c6.9,3.7,13.6,3.1,19.6-2.1c1.1-0.9,2.1-2.2,3.4-2.5
		c3.2-0.6,7.2-2,9.6-0.8c2.4,1.3,4.7,5.3,4.8,8.3c0.5,13.3,0.4,26.7,0,40c-0.1,2.6-1.8,5.7-3.7,7.6c-11.3,11.2-27.7,13.4-43.2,7
		c-5.9-2.4-12.2-3.7-18.4-5.1c-2.6-0.6-5.5-0.1-8.6-0.1c0,3.6,0,6.3,0,9.5C252.18,2169.56,245.98,2169.56,239.58,2169.56z"/>
	<g>
		<path class="st3" d="M468.58,2501.56c-146.4,0-292.7,0-439,0c-8.1,0-12.1,4.1-12.1,12.2c0,14.1,0,28.2,0,42.3
			c0.1,9.4,3.7,13,13.1,13c72.8,0,145.5,0,218.3,0c73.1,0,146.1,0,219.2,0.1c8.8,0,12.3-3.4,12.3-12.2c0-14.4,0-28.9,0-43.3
			C480.38,2504.76,477.28,2501.56,468.58,2501.56z"/>
		<path class="st3" d="M352.98,2300.66c0-6,0.2-11.6-0.1-17.2c-0.3-4.5-3-7.7-7.3-8.8c-2.6-0.7-3.3-1.8-3.6-4.4
			c-6.1-50.4-55.3-87.7-105.5-80.2c-42.3,6.3-74.1,38-80.6,80.4c-0.3,2.3-0.8,3.6-3.4,4c-4.6,0.8-7.2,4-7.5,8.5
			c-0.4,5.8-0.1,11.6-0.1,17.7C214.48,2300.66,283.58,2300.66,352.98,2300.66z"/>
		<path class="st3" d="M93.18,2339.56c2.4,0.1,4.8,0,7.1,0c7.9,0,15.9,0,24.3,0c0,47.5,0,94.5,0,141.6c16.9,0,33.2,0,49.8,0
			c0-53.6,0-106.8,0-160.7c-1.8,0-3.2,0-4.6,0c-24.5,0-48.9,0-73.4,0c-1.3,0-2.6-0.1-3.8,0.1c-4.9,0.6-8.7,5.3-8.5,10.2
			C84.28,2335.96,87.78,2339.26,93.18,2339.56z"/>
		<path class="st3" d="M325.38,2320.76c0,53.9,0,107.5,0,161.3c16,0,31.7,0,47.8,0c0-47.4,0-94.6,0-142.5c2.4,0,4.1,0,5.9-0.1
			c8.5,0,16.9,0.1,25.4,0c4.6,0,7.7-2.6,9-6.9c1.2-4.3-0.4-7.9-4-10.2c-1.9-1.2-4.4-1.9-6.6-1.9c-24.8-0.2-49.6-0.1-74.4-0.1
			C327.48,2320.36,326.38,2320.66,325.38,2320.76z"/>
		<path class="st3" d="M392.98,2482.06c16,0,31.8,0,48.1,0c0-32.9,0-65.4,0-98.2c3.4,0,6.2,0.1,9,0c5.8-0.3,10-4.6,9.9-9.9
			c-0.1-5.3-4-9.1-9.8-9.2c-8.5-0.1-16.9,0-25.4,0c-10.5,0-21,0-31.8,0C392.98,2404.26,392.98,2443.06,392.98,2482.06z"/>
		<path class="st3" d="M46.88,2383.86c3.2,0.1,6.5,0,10.3,0c0,32.9,0,65.1,0,97.3c16.2,0,31.8,0,47.7,0c0-38.8,0-77.4,0-116.3
			c-19.8,0-39.2-0.1-58.6,0.1c-5.2,0-8.6,4.6-8.4,10C38.08,2380.26,41.38,2383.56,46.88,2383.86z"/>
		<path class="st3" d="M217.68,2481.16c0-53.6,0-106.9,0-160.4c-8,0-15.8,0-23.4,0c0,53.7,0,106.9,0,160.4
			C202.18,2481.16,209.78,2481.16,217.68,2481.16z"/>
		<path class="st3" d="M261.08,2481.16c0-53.7,0-107,0-160.5c-7.9,0-15.5,0-23.3,0c0,53.6,0,107,0,160.5
			C245.58,2481.16,253.08,2481.16,261.08,2481.16z"/>
		<path class="st3" d="M305.48,2481.16c0-53.6,0-107,0-160.3c-8.1,0-15.8,0-23.4,0c0,53.6,0,106.9,0,160.3
			C289.98,2481.16,297.58,2481.16,305.48,2481.16z"/>
	</g>
</g>
<g>
	<g>
		<path class="st3" d="M983.69,2403.02c-0.1-3.9-3.3-8.5-6.3-11.5c-30.6-30.7-61.5-61.2-92.3-91.7c-2-2-4.4-3.6-9.1-7.4
			c0,35.8,0,68.7,0,101.7c-1.2,0.5-2.3,1-3.5,1.5c-33.7-33.8-67.5-67.6-103-103.2c0,35.5,0,68.9,0,102.4c-1.1,0.7-2.3,1.4-3.5,2.1
			c-33.9-33.9-67.9-67.9-103.7-103.7c0,35.1,0,68.2,0,101.2c-1.3,0.7-2.5,1.3-3.7,2c-34-34-68-68-102.6-102.6
			c0,85.5,0,170.2,0,255.9c143.2,0,285.3,0,428,0C983.99,2500.22,984.09,2451.62,983.69,2403.02z M636.49,2498.92
			c-19.8,0-38.8,0-58.7,0c0-16.3,0-32.4,0-49.5c19,0,38.3,0,58.7,0C636.49,2466.32,636.49,2482.32,636.49,2498.92z M717.59,2498.72
			c-19.1,0-38.1,0-58.2,0c0-16.8,0-32.9,0-49.6c19.6,0,38.6,0,58.2,0C717.59,2465.72,717.59,2481.82,717.59,2498.72z
			 M798.99,2498.42c-18.9,0-38.2,0-58.8,0c0-16.3,0-32,0-48.9c19.3,0,38.5,0,58.8,0C798.99,2465.22,798.99,2481.32,798.99,2498.42z
			 M879.99,2498.92c-19.4,0-38.4,0-58,0c0-16.7,0-32.8,0-49.7c19.2,0,38.1,0,58,0C879.99,2465.42,879.99,2481.52,879.99,2498.92z
			 M962.29,2498.62c-19.7,0-39,0-59.1,0c0-16.2,0-32.3,0-49.3c19.6,0,38.8,0,59.1,0C962.29,2466.22,962.29,2482.02,962.29,2498.62z"
			/>
		<path class="st3" d="M579.49,2302.82c12.1,13,24.5,25.8,36.8,38.6c0.9-0.7,1.7-1.5,2.6-2.3c0-46.8,0-93.5,0-140.1
			c-14.4,0-27.9,0-41.9,0c0,32.8-0.1,64.6,0.1,96.4C577.09,2297.92,577.89,2301.02,579.49,2302.82z"/>
		<path class="st3" d="M654.99,2376.12c0-35.6,0-68.9,0-102.2c0.9-0.4,1.9-0.8,2.8-1.2c6.3,7.3,12.7,14.7,21.4,24.6
			c0-35.5,0-67,0-98.3c-14.3,0-27.8,0-41.9,0c0,49.9,0.6,98.8-0.3,147.7C636.69,2360.42,643.29,2367.62,654.99,2376.12z"/>
	</g>
	<path class="st1" d="M706.49,2132.42c2.9-2,6.6-2.6,10.1-2c12.4,2.3,25.3-3.8,34,8.2c1,1.4,6.4,0.6,9.2-0.5
		c7.2-2.9,14.4-2.5,17.1,4.5c1.7,4.5,0,12.4-3.3,16.2c-7.5,8.7-16,17-29.7,15.1c-1.9-0.3-4.5,3.4-6.4,5.5
		c-9,10.3-22.6,13.3-33.7,5.6c-8-5.5-14.3-3-21.3,0.6c-0.3,0.2-0.5,0.7-0.9,0.8c-1,0.3-1.8,0.5-2.6,0.8c-7.2,2.3-14.9-2-16.5-9.4
		c-0.2-1-0.1-1.7,0.5-4.4c0.8-3.2-0.9-7.8,0-11c0.8-3,5.1-13.2,7-15C680.79,2137.62,695.89,2139.82,706.49,2132.42z"/>
</g>
</svg>
