<?xml version="1.0" encoding="utf-8"?>
<!-- Generator: Adobe Illustrator 23.0.1, SVG Export Plug-In . SVG Version: 6.00 Build 0)  -->
<svg version="1.1" id="Layer_1" xmlns="http://www.w3.org/2000/svg" xmlns:xlink="http://www.w3.org/1999/xlink" x="0px" y="0px"
	 viewBox="0 0 500 500" style="enable-background:new 0 0 500 500;" xml:space="preserve">
<style type="text/css">
	.st0{fill:#FFFFFF;}
	.st1{fill:#FF7514;}
	.st2{fill:#FF1900;}
	.st3{fill:#002D13;}
	.st4{fill:#5A7302;}
	.st5{fill:#00A99D;}
	.st6{fill:#3F7606;}
	.st7{fill:#F7F9FA;}
	.st8{display:none;fill:#5FDCD1;}
	.st9{display:none;fill:#F7F9FA;}
	.st10{fill:#FBAE17;}
	.st11{fill:none;stroke:#FBAE17;stroke-width:5;stroke-miterlimit:10;}
	.st12{fill:#8C0228;}
	.st13{fill:#FDFDFD;}
	.st14{fill:#E77800;}
</style>
<g>
	<path class="st0" d="M43.91,250.76c0-76.68,0-153.37,0-230.05c61.75,0,123.51,0,185.26,0c-16.73,15.13,3.32,20.63,8.81,30.28
		c-2.75,0.74-4.67,1.43-6.64,1.75c-84.37,14-141.06,62.61-173.03,140.55C50.89,211.38,48.57,231.54,43.91,250.76z"/>
	<path class="st1" d="M497.91,358.67c-5.06,3.1-9.76,7.29-15.25,9.08c-11.21,3.66-22.8,6.22-34.32,8.89
		c-10.23,2.37-14.57-0.3-17.19-10.3c-2.91-11.12-5.73-22.26-8.28-33.47c-1.72-7.55,0.24-13.82,8.6-15.69
		c8-1.79,11.81,2.99,13.52,10.16c0.67,2.82,1.58,5.58,3.21,11.29c3.43-9.24,6.51-15.64,8.22-22.39
		c14.92-59.23,4.5-113.5-29.77-164.31c-29.91-44.34-72.46-67.69-122.53-80.29c-14.48-3.64-18.4-6.49-16.04-14.58
		c3.45-11.85,12.51-7.39,20.18-6c91.88,16.6,165.84,98.2,173.95,190.23c3.32,37.65-1.46,73.48-17.02,108.63
		c11.25,1.68,23.29-10.92,32.73,2.65C497.91,354.6,497.91,356.63,497.91,358.67z"/>
	<path class="st1" d="M247.49,480.82c-14.85-2.93-29.97-4.87-44.49-8.97c-39.26-11.09-72.99-31.68-101.03-61.47
		c-4.39-4.67-9.4-8.76-14.67-13.63c-1.45,4.36-2.95,9.22-4.67,14c-2.48,6.86-7.42,9.4-14.4,7.39c-6.7-1.93-9.28-7.02-7.87-13.36
		c3.01-13.51,6.32-26.98,10.19-40.27c1.68-5.78,6.06-8.39,12.71-6.52c12.69,3.57,25.48,6.83,38.31,9.85
		c7.79,1.84,12.58,6.1,10.44,14.18c-2.1,7.95-8.88,8.2-15.75,6.73c-2.47-0.53-4.95-1.04-10.04-2.1
		c30.31,34.23,64.62,57.81,106.72,67.26c74.45,16.71,140.15-0.33,194.69-55.26c3.34-3.37,6.61-6.83,10.16-9.98
		c5.67-5.02,11.86-5.69,16.96,0.35c4.68,5.54,2.99,10.79-1.93,16.07c-40.42,43.4-89.46,69.31-148.98,74.38
		c-1.29,0.11-2.52,0.88-3.78,1.34C269.21,480.82,258.35,480.82,247.49,480.82z"/>
	<path class="st1" d="M43.91,250.76c4.67-19.21,6.99-39.39,14.4-57.47c31.97-77.95,88.66-126.56,173.03-140.56
		c1.97-0.33,3.88-1.02,6.64-1.75c-5.49-9.64-25.53-15.14-8.81-30.28c2.71,0,5.43,0,8.14,0c11.7,10.75,23.52,21.37,35.03,32.32
		c4.42,4.2,4.02,9.12-0.39,13.33c-10.04,9.6-19.71,19.71-30.6,28.24c-3.37,2.63-11.85,2.98-15.11,0.54
		c-5.25-3.93-4.43-10.79,0.67-16.03c2.54-2.61,4.97-5.33,6.56-10.1c-11.5,3-23.2,5.35-34.45,9.1
		C117.8,105.15,62.49,182.26,64.91,267.71c0.59,20.86,7.24,41.6,11.68,62.27c1.45,6.75,0.22,12.13-6.06,13.95
		c-5.97,1.72-13.8,3.85-15.94-6.15c-3.6-16.78-7.12-33.58-10.68-50.37C43.91,275.2,43.91,262.98,43.91,250.76z"/>
	<path class="st3" d="M410.17,259.8c-3.51,65.85-29.25,115.17-86.9,143.32c-65.15,31.82-143.34,7.18-182.7-55.62
		c-44.1-70.34-24.25-166.85,44-213.99c80.33-55.49,195.07-9.47,219.54,88.34C407.46,235.24,408.52,249.18,410.17,259.8z
		 M257.45,196.79c-16.77-4.03-33.05-7.95-49.71-11.95c-9.02,22.4-15.2,44.87-15,70.33c21.83,0,42.95,0,64.71,0
		C257.45,236.29,257.45,216.82,257.45,196.79z M320.41,341.63c8.05-21.88,13.68-44.79,13.39-70.19c-21.63,0-42.36,0-63.16,0
		c0,20.2,0,40.33,0,59.47C287.53,334.55,303.61,338.01,320.41,341.63z M204.82,340.43c18.48-4.12,34.15-7.61,49.77-11.09
		c0-20.01,0-39.86,0-59.34c-21.4,0-42.18,0-65.5,0C194.59,294.6,199.69,317.43,204.82,340.43z M270.53,198.09
		c0,18.64,0,38.11,0,57.03c21.31,0,42.04,0,65.93,0c-5.16-25.16-9.88-48.21-14.41-70.28C303.42,189.63,287.52,193.71,270.53,198.09z
		 M345.87,270.52c-2.95,20.87-4.98,40.66-8.71,60.11c-3.44,17.91-4.25,17.76,10.97,28.04c0.49,0.33,1.29,0.21,2.36,0.36
		c24.77-23.92,38.16-52.92,38.69-88.52C374.09,270.52,359.73,270.52,345.87,270.52z M179.19,254.45
		c4.49-26.47,8.81-51.97,13.36-78.83c-3.79-2.68-9.26-6.54-15.18-10.73c-25.84,24.46-39.46,53.91-41.48,89.56
		C151.2,254.45,165.33,254.45,179.19,254.45z M178.43,270.48c-13.1,0-27.5,0-42.64,0c1.99,35.59,16.05,64.85,40.82,89.44
		c5.88-4.18,11.58-8.24,15.52-11.04C187.48,322.26,183.03,296.77,178.43,270.48z M390.7,254.8c-3.43-35.14-15.42-64.91-39.12-87.95
		c-17.41,4.81-16.29,14.85-12.69,28.8c4.85,18.79,5.89,38.56,8.74,59.15c2.58,0,6.2,0,9.83,0C368.25,254.8,379.04,254.8,390.7,254.8
		z M212.17,353.55c7.84,25.31,28.14,44.25,43.94,41.83c0-16.68,0-33.43,0-52.04C240.82,346.89,226.56,350.2,212.17,353.55z
		 M255.7,182.21c0-19.06,0-35.25,0-51.33c-18.15-1.11-38.7,18.44-42.69,40.9C226.77,175.14,240.64,178.53,255.7,182.21z
		 M270.01,342.38c0,18.48-0.02,33.6,0.03,48.72c0.01,1.61,0.43,3.22,0.65,4.8c18.77-1.2,35.8-17.4,43.63-42.38
		C300.09,349.93,285.97,346.39,270.01,342.38z M270.5,130.21c0,17.95,0,34.42,0,53.62c15.44-3.7,29.78-7.14,46.17-11.06
		C303.52,153.73,297,132.1,270.5,130.21z M316.66,142.01c-0.59,0.66-1.18,1.32-1.77,1.98c4.11,6.76,8.21,13.53,12.52,20.62
		c4.12-2.94,7.74-5.54,13.05-9.33C331.47,150.28,324.06,146.15,316.66,142.01z M339.69,371.89c-4.85-3.29-8.51-5.77-12.29-8.33
		c-4.5,7.37-8.36,13.69-13.61,22.29C323.49,380.63,330.73,376.73,339.69,371.89z M199.2,163.45c4.39-7.25,8.13-13.44,11.87-19.63
		c-0.51-0.62-1.02-1.24-1.54-1.86c-7.05,3.96-14.1,7.92-22.56,12.67C191.68,158.01,195.12,160.5,199.2,163.45z M186.93,370.45
		c8.91,4.87,16.06,8.79,23.22,12.71c0.34-0.46,0.67-0.92,1.01-1.38c-3.75-6.29-7.5-12.58-11.64-19.51
		C195.76,364.71,192.18,367.05,186.93,370.45z"/>
</g>
</svg>
