<?xml version="1.0" encoding="utf-8"?>
<!-- Generator: Adobe Illustrator 23.0.1, SVG Export Plug-In . SVG Version: 6.00 Build 0)  -->
<svg version="1.1" id="Layer_1" xmlns="http://www.w3.org/2000/svg" xmlns:xlink="http://www.w3.org/1999/xlink" x="0px" y="0px"
	 viewBox="0 0 500 500" style="enable-background:new 0 0 500 500;" xml:space="preserve">
<style type="text/css">
	.st0{fill:#8C0228;}
	.st1{fill:#FDFDFD;}
	.st2{fill:#4BAC32;}
	.st3{fill:#7FCCE4;}
	.st4{fill:#FBD721;}
	.st5{fill:#374697;}
	.st6{fill:#EB332D;}
</style>
<g>
	<g>
		<path class="st0" d="M485.45,245.32 M249.93,14.48 M464.06,250.4"/>
	</g>
</g>
<g>
	<g>
		<path class="st1" d="M481.04,440.32c0,11.2-0.44,22.42,0.18,33.58c0.34,6.12-1.23,7.33-7.3,7.31
			c-66.15-0.28-132.31-0.17-198.47-0.17c-3.39,0-6.79,0-10.18,0c8.6-3.84,18.16-3.12,27.06-5.76c4.59-1.37,8.34-1.71,5.97-8.31
			c-1.82-5.08-2.27-9.07-9.7-6.74c-7.98,2.5-16.51,3.59-24.88,4.45c-38.4,3.98-74.68-3.2-108.32-22.21c-7.07-4-8.35,0.78-11.4,4.81
			c-4.26,5.6,0.43,6.74,3.7,8.58c12.98,7.32,26.74,12.74,40.96,17.22c9.84,3.1,20.4,3.38,29.81,7.97
			c-61.45,0-122.9-0.28-184.35,0.29c-9.71,0.09-13.03-2.14-11.11-11.52c0.33-1.62,0.05-3.37,0.05-5.05
			c23.32,0.2,46.64,0.3,69.95,0.66c5.25,0.08,6.13-2.54,6.06-6.91c-0.15-10.14-0.5-20.32,0.07-30.44c0.91-16.14-2.99-29.54-19-36.89
			c16.27-16.16,11.73-38.77,1.6-47.4c-11.39-9.7-30.19-9.87-41.24,0.34c-13.16,12.16-12.61,29.72,1.99,47.2
			c-9.95,3.61-14.82,11.94-19.43,20.49c0-127.01,0.04-254.02-0.13-381.03c-0.01-6.01,0.92-7.98,7.62-7.95
			c71.46,0.31,142.93,0.19,214.39,0.19c-0.11,8.07,0.1,16.16-0.45,24.2c-0.4,5.76,2.18,6.65,7.07,6.45
			c4.57-0.19,8.66,0.53,8.09-6.45c-0.65-8.02-0.35-16.13-0.46-24.2c71.58,0,143.17,0.1,214.75-0.17c6.07-0.02,7.32,1.22,7.3,7.3
			c-0.27,72.94-0.17,145.88-0.17,218.82c-4.55-15.88-13.43-28.15-30.29-31.67c-6.5-1.35-10.7-3.4-13.82-9.25
			c-11.51-21.56-50.64-20.03-62.66-2.52c-4.66,6.78-8.56,11.68-18.84,13.4c-22.23,3.72-32.92,31.07-22.52,51.39
			c1.35,2.63,3.23,4.72,2.55,8.33c-4.65,24.55,17.7,48.48,47.03,42.71c4.93-0.97,9.89-1.79,14.84-2.68
			c0.03,26.28,0.06,52.55,0.09,78.83c-16.47,0.18-32.22,3.66-46.89,11.17c-11.11,5.69-21.9,12.82-21.81,26.83
			c0.09,13.52,10.42,20.93,21.41,25.94c35.03,15.99,70.59,15.85,106.17,1.61C467.3,458.65,475.67,451.05,481.04,440.32z
			 M46.03,280.94c0,3.38-0.11,6.77,0.04,10.15c0.12,2.7,0.57,5.38,0.83,8.07c0.36,3.6-0.27,7.77,5.77,6.84
			c4.61-0.71,8.86-1.48,9.07-7.31c0.11-3.04-0.15-6.09-0.23-9.14c-1.63-64.18,23.71-115.51,74.42-154.3
			c6.14-4.7,3.77-7.07,1.2-11.84c-3.97-7.35-7.55-2.96-10.97-0.33C74.29,162.92,48.03,215.83,46.03,280.94z M282.13,106.97
			c0.99-16.27-13.93-30.03-29.6-30.56c-16.44-0.55-30.49,13.33-30.62,29.91c-0.14,17.91,12.68,30.99,30.3,30.93
			C269.35,137.19,282.03,124.36,282.13,106.97z M356.87,120.37c-4.9,0.43-5.75,4.7-7.85,7.53c-2.48,3.35,0.7,4.68,2.81,6.25
			c16.43,12.24,31.12,26.26,42.38,43.44c4.05,6.17,6.93,3.41,11.34,1.01c6.12-3.32,3.83-6.39,1.04-10.32
			c-12.28-17.26-26.78-32.33-43.78-44.97C360.97,121.95,359.28,120.01,356.87,120.37z M206.26,259.72
			c-0.02-7.02-3.48-8.09-11.68-3.63c-10.15,5.52-12.48,5.42-22.27,0.28c-3.34-1.75-7.99-5.92-10.59-1.35
			c-2.35,4.13-3.5,10.49,2.5,14.27c5.95,3.75,10,8.81,12.1,15.61c0.94,3.04,3.28,5.1,6.87,4.97c3.29-0.13,6.05-1.23,7.02-4.66
			c1.94-6.84,6.15-11.82,11.9-15.86C205.24,267.13,206.64,263.69,206.26,259.72z M107.53,264.8c-4.63-3.4-8.25-6.43-12.23-8.87
			c-3.1-1.89-7.44-4.96-10.1-2.52c-1.96,1.8-0.79,6.95-1.13,10.6c-0.23,2.41,1.14,3.78,2.95,4.79c6.49,3.63,10.91,8.9,12.99,16.07
			c0.99,3.41,3.35,4.77,6.74,4.98c3.55,0.22,6.26-1.56,7.15-4.54c2.24-7.56,6.89-12.72,13.42-16.94c4.47-2.88,3.38-8.45,1.65-11.95
			c-1.66-3.37-6.28-2.64-9.76-0.99C114.54,257.63,111.03,261.3,107.53,264.8z M122.36,299.8c-0.76,2.97,1.84,5.89,4.74,8.04
			c5.07,3.76,8.77,8.25,10.66,14.3c1.08,3.45,3.27,6.04,7.15,6.14c4.38,0.12,6.69-2.69,7.84-6.56c1.6-5.39,4.64-9.79,9.26-12.87
			c5.15-3.44,8.33-9.4,5.07-13.52c-3.87-4.9-10.65-2.55-14.95,1.87c-4.78,4.91-8.71,6.47-13.69,0.24c-1.76-2.19-5.03-3.25-7.73-4.59
			C124.8,289.93,122.75,292.92,122.36,299.8z M219.11,61.82c-5.53-5.05-11.18-9.89-16.43-15.12c-3.78-3.77-6.23-7.02-11.76-1.2
			c-4.93,5.19-4.19,8.01,0.61,11.85c2.36,1.89,4.34,4.24,6.48,6.39C207.86,73.64,207.86,73.64,219.11,61.82z M318.28,50.52
			c-3.28-3-5.99-6.12-9.3-8.34c-3.39-2.28-4.48,1.88-6.2,3.44c-4.51,4.07-8.48,8.73-13.03,12.75c-3.43,3.04-3.76,4.9-0.35,8.63
			c4.89,5.36,8.44,6.65,13.37,0.23c3.26-4.25,7.58-7.68,11.34-11.56C315.47,54.27,316.58,52.64,318.28,50.52z M182.9,114.81
			c1.35,0,2.71,0.08,4.06-0.01c5.39-0.38,12.03,2.79,11.83-7.98c-0.2-10.29-6.59-6.95-11.56-7.31c-4.04-0.29-8.14,0.23-12.16-0.11
			c-6.96-0.59-7.15,3.42-7.32,8.78c-0.17,5.59,2,7.15,7.04,6.67C177.47,114.6,180.2,114.81,182.9,114.81z M320.68,114.81
			c1.69,0,3.39,0.1,5.07-0.02c4.84-0.34,10.6,2.35,10.74-7.12c0.14-9.61-5.46-8.15-11.05-8.21c-4.39-0.05-8.83,0.38-13.17-0.1
			c-6.67-0.73-6.58,3.12-6.77,7.99c-0.21,5.44,0.94,8.37,7.08,7.51C315.23,114.5,317.98,114.81,320.68,114.81z M296.34,139.25
			c-3.35,3.86-5.98,6.9-8.61,9.93c-2.39,2.76,0.06,4.3,1.62,5.88c4.02,4.1,8.46,7.83,12.18,12.18c4.85,5.66,8.53,3.23,13.02-0.51
			c5.97-4.97,0.66-7.15-2-9.95c-3.95-4.17-8.13-8.12-12.13-12.24C299.26,143.35,298.36,141.89,296.34,139.25z M185.67,161.75
			c10.04,12.05,10.04,12.06,20.15,2.16c2.89-2.83,5.6-5.88,8.67-8.5c5.78-4.95,0.16-7.31-2.2-10.36c-2.48-3.21-4.64-5.18-8.53-0.83
			C198.17,150.49,191.71,155.98,185.67,161.75z M244.57,175.91c0,1.36-0.01,2.71,0,4.07c0.03,5.49-1.89,11.25,7.94,10.98
			c9.52-0.26,6.66-6.15,6.94-10.89c0.24-4.06-0.31-8.18,0.13-12.2c0.67-6.03-1.97-7.3-7.51-7.28c-5.43,0.02-8.41,1.03-7.57,7.19
			C244.88,170.44,244.57,173.2,244.57,175.91z"/>
		<path class="st2" d="M397.3,318.7c-4.95,0.89-9.9,1.71-14.83,2.68c-29.32,5.76-51.68-18.16-47.03-42.71
			c0.68-3.61-1.2-5.7-2.55-8.33c-10.4-20.32,0.29-47.66,22.52-51.39c10.28-1.72,14.18-6.62,18.84-13.4
			c12.03-17.51,51.16-19.04,62.66,2.52c3.12,5.85,7.33,7.9,13.82,9.25c16.87,3.51,25.75,15.78,30.29,31.67c0,4.07,0,8.14,0,12.21
			c-1.99,6.1-7.62,10.65-6.87,18.01c2.73,26.65-18.57,46.56-45.36,42.55c-5.6-0.84-11.14-2.03-16.71-3.06
			c-1.84-6.43,0.57-10.88,6.06-14.41c5.09-3.28,9.73-7.23,14.71-10.7c4.76-3.32,5.2-6.19,1.69-11.45
			c-4.19-6.27-6.75-2.32-10.45-0.33c-3.95,2.14-6.23,7.47-12.51,6.4c0-4.4-0.16-8.78,0.04-13.13c0.22-4.67-0.55-7.57-6.43-7.59
			c-5.79-0.03-7.93,1.89-7.47,7.61c0.36,4.48,0.07,9.01,0.07,13.53c-6.14-0.18-8.2-4.4-11.71-6.18c-3.58-1.81-6.29-7.4-11.29-0.33
			c-4.38,6.19-2,8.8,2.55,12.08c4.65,3.34,9.07,7.03,13.89,10.11C396.76,307.8,399.15,312.27,397.3,318.7z"/>
		<path class="st3" d="M481.04,440.32c-5.37,10.73-13.73,18.33-24.77,22.75c-35.58,14.24-71.14,14.38-106.17-1.61
			c-10.98-5.01-21.32-12.43-21.41-25.94c-0.09-14.01,10.7-21.14,21.81-26.83c14.66-7.5,30.41-10.99,46.89-11.16
			c4.87,0,9.74,0,14.61,0c13.24-0.25,25.89,2.84,38.21,7.24c13.25,4.73,24.42,12.23,30.83,25.38
			C481.04,433.54,481.04,436.93,481.04,440.32z M381.81,434.7c0,0.02,0,0.03,0,0.05c1.69,0,3.38,0,5.06,0
			c5.28-0.02,10.7,1.4,10.73-7.52c0.03-9.19-5.75-7.19-10.81-7.29c-5.06-0.1-10.13,0.12-15.19-0.02c-5.3-0.14-4.86,3.55-4.74,6.9
			c0.12,3.45-1.27,7.99,4.82,7.89C375.06,434.65,378.44,434.7,381.81,434.7z M435.44,427.89c-1.69,0-3.39-0.04-5.08,0.01
			c-5.11,0.14-10.73-1.84-10.69,7.4c0.04,9.3,5.79,7.13,10.8,7.27c4.74,0.13,9.51-0.25,14.23,0.08c6.52,0.46,5.7-3.86,5.89-7.97
			c0.2-4.39-0.67-7.31-6-6.82C441.56,428.12,438.49,427.9,435.44,427.89z"/>
		<path class="st4" d="M23.04,411.83c4.61-8.56,9.48-16.88,19.43-20.49c-14.6-17.49-15.15-35.05-1.99-47.2
			c11.06-10.21,29.85-10.04,41.24-0.34c10.13,8.63,14.66,31.23-1.6,47.4c16.01,7.35,19.91,20.75,19,36.89
			c-0.57,10.12-0.22,20.29-0.07,30.44c0.07,4.37-0.81,6.99-6.06,6.91c-23.31-0.36-46.63-0.47-69.95-0.66
			C23.04,447.11,23.04,429.47,23.04,411.83z"/>
		<path class="st1" d="M481.04,430.15c-6.41-13.16-17.58-20.65-30.83-25.38c-12.32-4.4-24.97-7.49-38.21-7.24
			c0.03-26.28,0.07-52.56,0.1-78.83c5.57,1.03,11.12,2.22,16.71,3.06c26.79,4.01,48.09-15.9,45.36-42.55
			c-0.75-7.35,4.88-11.9,6.87-18.01C481.04,317.51,481.04,373.83,481.04,430.15z"/>
		<path class="st5" d="M218.45,481.04c-9.41-4.59-19.97-4.87-29.81-7.97c-14.22-4.48-27.97-9.9-40.96-17.22
			c-3.27-1.84-7.96-2.98-3.7-8.58c3.06-4.02,4.33-8.81,11.4-4.81c33.65,19.02,69.92,26.19,108.32,22.21
			c8.37-0.87,16.9-1.95,24.88-4.45c7.43-2.33,7.88,1.66,9.7,6.74c2.37,6.6-1.38,6.95-5.97,8.31c-8.89,2.65-18.46,1.93-27.06,5.76
			C249.66,481.04,234.05,481.04,218.45,481.04z"/>
		<path class="st6" d="M259.16,23.04c0.11,8.07-0.19,16.17,0.46,24.2c0.57,6.98-3.52,6.26-8.09,6.45c-4.89,0.21-7.47-0.69-7.07-6.45
			c0.55-8.04,0.34-16.13,0.45-24.2C249.66,23.04,254.41,23.04,259.16,23.04z"/>
		<path class="st5" d="M46.03,280.94c2-65.11,28.26-118.02,80.12-157.85c3.43-2.63,7.01-7.02,10.97,0.33
			c2.57,4.77,4.94,7.14-1.2,11.84c-50.71,38.79-76.05,90.12-74.42,154.3c0.08,3.05,0.34,6.1,0.23,9.14
			c-0.21,5.82-4.46,6.6-9.07,7.31c-6.04,0.93-5.41-3.24-5.77-6.84c-0.27-2.69-0.72-5.38-0.83-8.07
			C45.92,287.72,46.03,284.33,46.03,280.94z"/>
		<path class="st6" d="M282.13,106.97c-0.1,17.39-12.77,30.21-29.92,30.28c-17.62,0.06-30.44-13.02-30.3-30.93
			c0.13-16.58,14.19-30.46,30.62-29.91C268.2,76.94,283.12,90.7,282.13,106.97z"/>
		<path class="st5" d="M412.09,318.69c-0.03,26.28-0.07,52.56-0.1,78.83c-4.87,0-9.74,0-14.61,0c-0.03-26.28-0.06-52.55-0.09-78.83
			c1.85-6.43-0.54-10.89-6.04-14.41c-4.81-3.08-9.23-6.77-13.89-10.11c-4.56-3.27-6.93-5.88-2.55-12.08c5-7.07,7.71-1.48,11.29,0.33
			c3.51,1.78,5.57,6,11.71,6.18c0-4.52,0.29-9.05-0.07-13.53c-0.46-5.71,1.68-7.64,7.47-7.61c5.88,0.03,6.65,2.92,6.43,7.59
			c-0.2,4.36-0.04,8.73-0.04,13.13c6.28,1.07,8.56-4.26,12.51-6.4c3.69-2,6.26-5.94,10.45,0.33c3.51,5.26,3.07,8.13-1.69,11.45
			c-4.97,3.47-9.62,7.43-14.71,10.7C412.67,307.81,410.26,312.26,412.09,318.69z"/>
		<path class="st5" d="M356.87,120.37c2.41-0.37,4.1,1.58,5.94,2.94c17,12.64,31.51,27.71,43.78,44.97
			c2.79,3.92,5.08,6.99-1.04,10.32c-4.42,2.4-7.3,5.16-11.34-1.01c-11.26-17.17-25.95-31.2-42.38-43.44
			c-2.11-1.57-5.29-2.9-2.81-6.25C351.12,125.07,351.97,120.81,356.87,120.37z"/>
		<path class="st5" d="M206.26,259.72c0.39,3.97-1.01,7.41-4.15,9.62c-5.75,4.04-9.95,9.02-11.9,15.86
			c-0.98,3.43-3.73,4.53-7.02,4.66c-3.59,0.14-5.94-1.92-6.87-4.97c-2.09-6.81-6.15-11.87-12.1-15.61c-6-3.78-4.85-10.13-2.5-14.27
			c2.6-4.57,7.26-0.4,10.59,1.35c9.79,5.14,12.12,5.24,22.27-0.28C202.78,251.62,206.25,252.7,206.26,259.72z"/>
		<path class="st5" d="M107.53,264.8c3.51-3.51,7.02-7.18,11.67-9.37c3.48-1.64,8.1-2.37,9.76,0.99c1.73,3.5,2.81,9.07-1.65,11.95
			c-6.53,4.22-11.17,9.38-13.42,16.94c-0.88,2.98-3.6,4.76-7.15,4.54c-3.38-0.21-5.75-1.57-6.74-4.98
			c-2.08-7.16-6.5-12.44-12.99-16.07c-1.81-1.01-3.18-2.38-2.95-4.79c0.34-3.65-0.83-8.8,1.13-10.6c2.67-2.44,7.01,0.63,10.1,2.52
			C99.28,258.37,102.9,261.4,107.53,264.8z"/>
		<path class="st5" d="M122.36,299.8c0.4-6.88,2.44-9.87,8.35-6.94c2.7,1.34,5.98,2.39,7.73,4.59c4.99,6.23,8.92,4.67,13.69-0.24
			c4.3-4.42,11.08-6.77,14.95-1.87c3.25,4.12,0.07,10.08-5.07,13.52c-4.62,3.08-7.66,7.49-9.26,12.87
			c-1.15,3.87-3.46,6.68-7.84,6.56c-3.87-0.11-6.07-2.69-7.15-6.14c-1.89-6.05-5.59-10.54-10.66-14.3
			C124.2,305.69,121.59,302.76,122.36,299.8z"/>
		<path class="st6" d="M219.11,61.82c-11.25,11.82-11.25,11.82-21.11,1.93c-2.14-2.15-4.13-4.5-6.48-6.39
			c-4.79-3.84-5.54-6.66-0.61-11.85c5.54-5.82,7.98-2.57,11.76,1.2C207.93,51.94,213.58,56.77,219.11,61.82z"/>
		<path class="st6" d="M318.28,50.52c-1.69,2.11-2.81,3.75-4.17,5.15c-3.76,3.88-8.08,7.31-11.34,11.56
			c-4.93,6.42-8.47,5.13-13.37-0.23c-3.41-3.73-3.09-5.59,0.35-8.63c4.54-4.02,8.52-8.68,13.03-12.75c1.73-1.56,2.81-5.71,6.2-3.44
			C312.29,44.4,315,47.52,318.28,50.52z"/>
		<path class="st6" d="M182.9,114.81c-2.71,0-5.43-0.21-8.11,0.04c-5.04,0.48-7.21-1.08-7.04-6.67c0.16-5.36,0.36-9.38,7.32-8.78
			c4.03,0.34,8.13-0.18,12.16,0.11c4.96,0.36,11.36-2.98,11.56,7.31c0.21,10.76-6.44,7.59-11.83,7.98
			C185.62,114.89,184.26,114.81,182.9,114.81z"/>
		<path class="st6" d="M320.68,114.81c-2.7,0-5.45-0.31-8.1,0.06c-6.14,0.86-7.29-2.08-7.08-7.51c0.19-4.87,0.1-8.72,6.77-7.99
			c4.34,0.47,8.78,0.04,13.17,0.1c5.59,0.07,11.19-1.4,11.05,8.21c-0.14,9.46-5.9,6.78-10.74,7.12
			C324.07,114.91,322.37,114.81,320.68,114.81z"/>
		<path class="st6" d="M296.34,139.25c2.01,2.63,2.92,4.09,4.08,5.29c4,4.12,8.18,8.07,12.13,12.24c2.66,2.8,7.97,4.98,2,9.95
			c-4.49,3.73-8.17,6.17-13.02,0.51c-3.72-4.35-8.16-8.08-12.18-12.18c-1.56-1.59-4-3.13-1.62-5.88
			C290.37,146.15,293,143.11,296.34,139.25z"/>
		<path class="st6" d="M185.67,161.75c6.03-5.77,12.5-11.27,18.09-17.53c3.89-4.35,6.05-2.38,8.53,0.83
			c2.36,3.05,7.97,5.41,2.2,10.36c-3.07,2.63-5.77,5.67-8.67,8.5C195.71,173.81,195.71,173.81,185.67,161.75z"/>
		<path class="st6" d="M244.57,175.91c0-2.71,0.31-5.47-0.06-8.13c-0.84-6.16,2.13-7.16,7.57-7.19c5.54-0.02,8.17,1.25,7.51,7.28
			c-0.45,4.02,0.11,8.14-0.13,12.2c-0.29,4.75,2.58,10.63-6.94,10.89c-9.83,0.27-7.9-5.49-7.94-10.98
			C244.56,178.63,244.57,177.27,244.57,175.91z"/>
		<path class="st5" d="M381.81,434.7c-3.37,0-6.75-0.04-10.12,0.01c-6.1,0.1-4.7-4.44-4.82-7.89c-0.12-3.35-0.56-7.04,4.74-6.9
			c5.06,0.13,10.13-0.08,15.19,0.02c5.06,0.1,10.84-1.89,10.81,7.29c-0.03,8.93-5.45,7.51-10.73,7.52c-1.69,0.01-3.38,0-5.06,0
			C381.81,434.73,381.81,434.71,381.81,434.7z"/>
		<path class="st5" d="M435.44,427.89c3.05,0.01,6.12,0.23,9.15-0.04c5.32-0.48,6.19,2.43,6,6.82c-0.18,4.11,0.63,8.43-5.89,7.97
			c-4.72-0.34-9.49,0.05-14.23-0.08c-5.02-0.13-10.76,2.03-10.8-7.27c-0.04-9.24,5.58-7.26,10.69-7.4
			C432.04,427.85,433.74,427.89,435.44,427.89z"/>
	</g>
</g>
</svg>
