<?xml version="1.0" encoding="utf-8"?>
<!-- Generator: Adobe Illustrator 23.0.1, SVG Export Plug-In . SVG Version: 6.00 Build 0)  -->
<svg version="1.1" id="Layer_1" xmlns="http://www.w3.org/2000/svg" xmlns:xlink="http://www.w3.org/1999/xlink" x="0px" y="0px"
	 viewBox="0 0 500 500" style="enable-background:new 0 0 500 500;" xml:space="preserve">
<style type="text/css">
	.st0{fill:#FFFFFF;}
	.st1{fill:#FF7514;}
	.st2{fill:#FF1900;}
	.st3{fill:#002D13;}
	.st4{fill:#5A7302;}
	.st5{fill:#00A99D;}
	.st6{fill:#3F7606;}
	.st7{fill:#F7F9FA;}
	.st8{display:none;fill:#5FDCD1;}
	.st9{display:none;fill:#F7F9FA;}
	.st10{fill:#FBAE17;}
	.st11{fill:none;stroke:#FBAE17;stroke-width:5;stroke-miterlimit:10;}
	.st12{fill:#8C0228;}
	.st13{fill:#FDFDFD;}
	.st14{fill:#E77800;}
</style>
<g>
	<path class="st3" d="M98.05,218.26c-5.91-4.34-12.47-5.91-19.87-6.01c-7.58-0.09-12.75,0.65-11.18,10.16
		c0.92,6.01-3.51,5.17-7.21,5.27c-14.88,0.46-29.75-1.02-44.63,0.83c0-47.22,0-94.43,0-141.65c11.55-0.18,23.1-0.37,34.65-0.46
		c16.45-0.09,16.45,0,17.93,14.78c4.34,0,8.78,0.28,13.03-0.09c5.54-0.55,11.55,2.13,16.63-2.31c6.84-6.1,13.77-12.01,20.7-18.02
		c4.25-3.33,8.87-6.38,12.75-10.16c6.38-6.1,12.94-7.3,21.34-4.44c12.84,4.44,26.15,7.76,39.18,11.64c2.59,0.74,6.1,1.11,7.39,2.96
		c9.06,12.75,20.7,7.85,32.06,5.17c19.59,3.05,24.39,15.25,20.24,34.28c-2.4,10.9,0.37,23.65-0.18,35.76
		c-0.37,7.76,3.97,16.08-1.02,24.02c-1.66,2.59-1.02,4.71,0.28,6.56c4.99,7.3,3.7,14.78,1.39,22.45
		c-4.71,4.99-9.42,10.9-16.72,10.81c-15.8-0.18-31.97,3.33-48.23-3.79c1.02,5.64-4.44,13.21,5.64,13.67
		c12.01,0.46,19.4,5.27,22.91,16.72c1.2,3.97,3.05,8.69-2.31,10.44c-4.53,1.48-9.61,1.39-11.36-5.08
		c-1.94-7.02-7.02-9.52-14.04-9.15c-6.1,0.28-12.29,0-18.48,0.09c-7.21,0.18-11.92,3.6-11.83,11.09c0.09,7.39,4.8,11,11.92,11.18
		c7.48,0.18,15.06-0.18,22.55,0.18c13.77,0.65,24.39,11.46,24.86,25.04c0.46,12.94-9.15,24.76-22.36,26.33
		c-5.27,0.55-8.41,1.2-7.85,7.39c0.55,5.82-2.86,7.39-8.22,7.76c-6.1,0.28-6.93-2.96-6.28-7.58c0.83-6.01-1.94-7.11-7.48-7.58
		c-8.69-0.74-15.25-5.82-19.22-13.58c-2.03-4.07-5.64-9.89-0.37-12.47c3.97-2.03,11.36-3.79,13.49,5.17
		c0.92,3.97,4.99,6.47,9.52,6.47c7.48,0.09,15.06,0.18,22.55-0.09c6.84-0.28,11.27-4.34,11.27-10.9c0-7.02-4.34-11.27-11.83-11.36
		c-6.19-0.09-12.29,0-18.48,0c-16.35-0.09-27.63-9.06-28.83-22.91c-1.29-15.8,6.65-25.69,23.65-28.74c2.86-0.55,6.1-0.55,5.36-4.34
		c-1.94-9.52,3.42-12.1,10.07-12.01c-3.33-16.91,2.31-33.45-1.48-49.62c-0.09-0.55,0.37-1.29,0.74-1.85
		c5.91-8.69-0.18-15.15-4.34-21.71c-2.86-4.53-6.19-5.08-10.63-1.02c-6.84,6.19-14.69,11.27-21.44,17.46
		c-4.25,3.79-6.84,2.49-9.79-0.92c-3.88-5.27-2.59-8.96,2.68-12.66c5.91-4.07,11.18-8.96,16.82-13.4c5.64-4.44,10.81-11.55,17-12.66
		c7.3-1.2,10.72,8.5,16.17,13.12c5.64,4.71,11.18,4.9,16.54,0.46c5.54-4.62,6.01-10.53,1.94-16.45
		c-8.41-12.2-18.39-20.88-33.54-25.87c-20.24-6.75-36.13-6.19-50.36,10.9c-12.47,14.6-28.27,21.81-47.95,18.2
		c-5.45-1.02-6.93,1.57-6.93,6.84c0.28,22.55,0.28,45.09,0,67.73c-0.09,5.73,1.48,8.13,7.39,7.48c11.55-1.29,22.36,0.65,31.79,8.04
		C105.45,211.33,101.1,214.37,98.05,218.26z M52.13,157.36c0-16.08-0.65-32.15,0.18-48.23c0.55-11.09-6.65-7.58-12.01-7.85
		c-5.54-0.28-11.09-1.94-10.81,7.95c0.74,30.12,0.18,60.15,0.28,90.27c0.09,14.6-3.14,12.75,13.77,13.31
		c6.56,0.28,8.87-1.39,8.59-8.32C51.76,188.78,52.13,173.07,52.13,157.36z M215.95,205.41c5.08,0,10.26,0.18,15.34-0.09
		c4.25-0.28,7.02-2.96,7.3-7.11c0.28-4.34-2.68-7.48-6.65-7.67c-10.26-0.46-20.51-0.46-30.68-0.09c-3.97,0.09-7.3,2.68-7.3,7.11
		c0,4.71,2.86,7.58,7.67,7.76C206.44,205.6,211.24,205.5,215.95,205.41z M216.51,160.78L216.51,160.78
		c-5.08,0-10.16-0.18-15.25,0.09c-4.25,0.18-7.11,2.77-7.21,7.02c-0.09,4.25,2.49,7.21,6.84,7.3c10.16,0.28,20.33,0.28,30.49,0.09
		c4.34-0.09,7.21-2.86,7.21-7.02c0-4.62-2.96-7.39-7.85-7.48C225.93,160.69,221.22,160.78,216.51,160.78z M204.77,147.57
		c9.61,0.92,16.72,0.18,23.93-1.29c4.71-0.92,8.69-1.85,9.89-6.93c0.74-3.33-0.92-6.28-3.97-7.39c-5.08-1.94-11.27-3.79-14.88,1.02
		C215.77,138.05,210.69,141.75,204.77,147.57z M216.69,101.19c1.85,4.07,3.33,7.76,4.99,11.36c2.68,5.73,7.76,3.14,11.64,2.59
		c3.6-0.55,5.91-3.7,5.27-7.58c-0.74-4.07-3.51-6.47-7.95-6.38C226.12,101.28,221.68,101.19,216.69,101.19z"/>
	<path class="st3" d="M425.79,481.04c-2.31-6.56,3.23-16.35-3.14-19.59c-4.71-2.4-12.94,1.94-19.68,3.23
		c-15.62,3.14-31.42,0.46-47.03,1.57c-44.17,3.05-87.13-4.62-129.73-14.78c-16.35-3.88-30.68-12.94-45.18-21.16
		c-9.7-5.45-11.73-17.74-6.56-27.53c4.99-9.33,17.19-13.4,27.53-9.15c5.54,2.22,9.52,7.11,15.89,8.13c1.2-1.66,0.09-3.7-0.46-6.01
		c-2.77-10.9,2.4-21.44,12.2-25.04c10.53-3.88,21.34,0.65,26.43,11.36c2.77,5.82,5.54,11.73,7.39,17.93
		c2.4,8.13,6.28,11.27,14.6,7.48c2.49-1.11,5.45-1.02,9.89-1.76c-6.01-3.42-10.72-5.91-15.25-8.69
		c-10.26-6.38-14.04-17.56-9.61-28.27c4.34-10.53,13.77-16.08,25.5-12.57c27.9,8.41,56.82,14.04,80.76,32.52
		c3.23,2.49,7.67,3.33,12.29,3.23c11.64-0.37,23.28-0.55,34.93,0c7.58,0.37,9.98-2.68,8.78-9.52c-1.85-10.63,2.22-14.14,12.94-13.21
		c12.94,1.11,25.96,0.65,38.9,0.83c0,34.93-0.09,69.85,0.09,104.69c0,5.17-1.11,6.47-6.28,6.28
		C455.91,480.85,440.85,481.04,425.79,481.04z M350.67,451.38c7.48,0,15.06,0.09,22.55,0c7.48-0.09,14.97-0.37,22.55-0.46
		c25.59-0.28,29.48-4.07,29.48-28.64c0-2.77-0.28-5.54,0.09-8.22c0.74-5.91-1.57-7.67-7.39-7.58c-13.31,0.37-26.61,0-40.01,0.18
		c-4.16,0-8.13-0.09-11.55-2.96c-22.64-18.39-51.37-22.73-77.43-33.26c-4.8-1.94-9.79-1.57-12.2,3.97
		c-2.31,5.45,0.46,8.78,5.45,11.27c9.7,4.9,19.31,10.07,28.83,15.34c2.4,1.39,6.47,1.57,6.01,5.82c-0.28,3.42-3.6,3.7-5.82,5.08
		c-11.92,7.3-24.39,10.63-38.71,9.79c-25.78-1.48-52.76,4.62-75.4-13.86c-2.68-2.22-6.75-1.85-9.06,1.57
		c-2.68,3.97-1.11,7.39,2.59,9.52c12.29,7.39,25.04,14.97,38.71,18.02C269.18,446.02,309.09,456.09,350.67,451.38z M440.02,426.61
		c0,10.9,0.37,21.9-0.09,32.8c-0.28,6.75,1.11,10.26,8.78,9.15c6.19-0.92,14.23,2.77,13.86-9.15c-0.55-20.14-0.18-40.29-0.18-60.43
		c0-15.25,0-14.88-15.25-14.88c-6.1,0-7.3,2.22-7.11,7.67C440.3,403.42,440.02,415.06,440.02,426.61z M248.85,402.96
		c-2.22-4.99-4.44-10.72-7.21-16.17c-1.48-2.86-4.62-2.86-7.21-1.57c-2.22,1.11-3.79,3.33-2.96,5.91
		c1.57,5.17,3.51,10.26,5.45,15.34c1.48,3.79,4.16,2.86,6.47,1.02C245.06,406.01,249.5,408.41,248.85,402.96z"/>
	<path class="st13" d="M117.92,80.77c-6.93,6.01-13.86,11.92-20.7,18.02c-5.08,4.44-11,1.85-16.63,2.31
		c-4.34,0.37-8.69,0.09-13.03,0.09C66.18,86.4,66.18,86.31,49.73,86.4c-11.55,0.09-23.1,0.28-34.65,0.46
		c0-20.51,0.18-41.12-0.18-61.63c0-5.17,1.2-6.38,6.38-6.28c34.93,0.28,69.85,0.18,104.69,0.18c-6.93,3.42-13.21,7.76-13.77,16.08
		C111.17,50.64,110.44,66.26,117.92,80.77z"/>
	<path class="st14" d="M117.92,80.77c-7.48-14.51-6.75-30.12-5.64-45.64c0.55-8.32,6.84-12.75,13.77-16.08c2.77,0,5.45,0,8.22,0
		c10.53,3.97,15.71,11.36,14.78,22.82c-0.28,3.14,0,6.84,4.25,6.65c3.51-0.18,3.7-3.6,3.42-6.38c-1.11-11.46,4.16-18.85,14.51-23.1
		c2.77,0,5.45,0,8.22,0c10.44,4.16,15.43,11.73,14.6,23.1c-0.18,2.77-0.09,6.19,3.42,6.38c4.25,0.28,4.62-3.51,4.25-6.56
		c-1.11-11.55,4.25-18.85,14.69-22.91c2.77,0,5.45,0,8.22,0c10.72,4.62,14.41,12.94,14.41,24.39c0.09,14.88-1.48,29.11-8.32,42.5
		c-11.36,2.59-22.91,7.58-32.06-5.17c-1.29-1.85-4.8-2.22-7.39-2.96c-13.03-3.88-26.33-7.21-39.18-11.64
		c-8.41-2.86-15.06-1.66-21.34,4.44C126.79,74.39,122.17,77.44,117.92,80.77z"/>
	<path class="st13" d="M171.14,19.04c-10.35,4.25-15.62,11.64-14.51,23.1c0.28,2.77,0.09,6.19-3.42,6.38
		c-4.25,0.18-4.53-3.51-4.25-6.65c0.92-11.46-4.25-18.85-14.78-22.82C146.47,19.04,158.85,19.04,171.14,19.04z"/>
	<path class="st1" d="M216.32,19.04c-10.44,4.07-15.8,11.27-14.69,22.91c0.28,3.14,0,6.84-4.25,6.56c-3.51-0.18-3.6-3.6-3.42-6.38
		c0.83-11.36-4.16-18.94-14.6-23.1C191.65,19.04,204.04,19.04,216.32,19.04z"/>
	<path class="st1" d="M134.37,154.13c2.96,3.42,5.54,4.71,9.79,0.92c6.84-6.19,14.6-11.27,21.44-17.46
		c4.44-4.07,7.76-3.51,10.63,1.02c4.16,6.56,10.35,13.03,4.34,21.71c-0.37,0.55-0.83,1.29-0.74,1.85
		c3.79,16.08-1.85,32.71,1.48,49.62c-6.65-0.09-12.01,2.49-10.07,12.01c0.74,3.79-2.49,3.79-5.36,4.34
		c-17,3.05-24.95,12.94-23.65,28.74c1.2,13.86,12.38,22.82,28.83,22.91c6.19,0,12.29-0.09,18.48,0c7.39,0.09,11.83,4.44,11.83,11.36
		c0,6.56-4.44,10.63-11.27,10.9c-7.48,0.28-15.06,0.09-22.55,0.09c-4.62,0-8.59-2.49-9.52-6.47c-2.13-8.96-9.52-7.21-13.49-5.17
		c-5.27,2.68-1.57,8.5,0.37,12.47c3.88,7.85,10.53,12.94,19.22,13.58c5.45,0.46,8.22,1.57,7.48,7.58c-0.65,4.62,0.18,7.95,6.28,7.58
		c5.36-0.28,8.78-1.85,8.22-7.76c-0.55-6.19,2.59-6.84,7.85-7.39c13.21-1.48,22.91-13.4,22.36-26.33
		c-0.55-13.67-11.09-24.49-24.86-25.04c-7.48-0.37-15.06,0-22.55-0.18c-7.21-0.18-11.83-3.79-11.92-11.18
		c-0.09-7.48,4.71-11,11.83-11.09c6.1-0.09,12.29,0.18,18.48-0.09c7.02-0.28,12.1,2.13,14.04,9.15c1.76,6.47,6.84,6.56,11.36,5.08
		c5.45-1.76,3.6-6.38,2.31-10.44c-3.51-11.46-10.9-16.26-22.91-16.72c-10.07-0.37-4.71-8.04-5.64-13.67
		c16.26,7.11,32.43,3.6,48.23,3.79c7.3,0.09,12.01-5.91,16.72-10.81c31.79,31.51,32.8,89.53,1.94,125.29
		c-26.7,30.95-60.89,41.58-99.61,31.05c-38.81-10.53-62.55-37.98-70.04-77.61c-4.71-24.67,1.48-48.05,14.51-69.58
		c3.05-3.88,7.39-6.93,8.04-12.38c4.53-0.65,6.84-4.25,9.33-7.39C125.77,185.45,132.15,170.67,134.37,154.13z"/>
	<path class="st13" d="M248.85,402.96c0.74,5.54-3.79,3.05-5.54,4.53c-2.31,1.85-4.99,2.86-6.47-1.02
		c-1.94-5.08-3.79-10.16-5.45-15.34c-0.83-2.59,0.74-4.8,2.96-5.91c2.59-1.2,5.73-1.29,7.21,1.57
		C244.41,392.24,246.63,397.97,248.85,402.96z"/>
</g>
</svg>
